<?xml version="1.0" standalone="no"?>
<!DOCTYPE svg PUBLIC "-//W3C//DTD SVG 1.1//EN" "http://www.w3.org/Graphics/SVG/1.1/DTD/svg11.dtd" >
<svg>
<metadata>
Created by FontForge 20090914 at Thu Oct 11 09:09:57 2018
 By www-data
Copyright (c) 2006 by Department of Intellectual Property (DIP), Ministry of Commerce and Software Industry Promotion Agency (Public Organization) (SIPA). All rights reserved.
Created by : Suppakit CHALERMLARP.
</metadata>
<defs>
<font id="THSarabunPSK-Bold" horiz-adv-x="0" >
  <font-face 
    font-family="TH SarabunPSK"
    font-weight="700"
    font-stretch="normal"
    units-per-em="1000"
    panose-1="2 11 5 0 4 2 0 2 0 3"
    ascent="800"
    descent="-200"
    x-height="340"
    cap-height="476"
    bbox="-466.001 -457 947.001 844.001"
    underline-thickness="30"
    underline-position="-20"
    unicode-range="U+0020-U+FB02"
  />
<missing-glyph horiz-adv-x="698" 
d="M645 0h-592v809h592v-809zM609 31v747h-520v-747h520z" />
    <glyph glyph-name="Agrave" unicode="A&#x300;" horiz-adv-x="451" 
d="M452 0h-69l-63 159h-191l-62 -159h-68l200 483h54zM296 213l-70 198l-74 -198h144zM291 521h-48l-84 97l57 18z" />
    <glyph glyph-name="Aacute" unicode="A&#x301;" horiz-adv-x="451" 
d="M452 0h-69l-63 159h-191l-62 -159h-68l200 483h54zM296 213l-70 198l-74 -198h144zM234 636l57 -18l-84 -97h-48z" />
    <glyph glyph-name="Atilde" unicode="A&#x303;" horiz-adv-x="451" 
d="M452 0h-69l-63 159h-191l-62 -159h-68l200 483h54zM296 213l-70 198l-74 -198h144zM325 592c-0.666992 -23.333 -5.83398 -41.8311 -15.501 -55.498s-24.167 -20.5 -43.5 -20.5c-5.33301 0 -11.833 1.5 -19.5 4.5s-15.667 6.33301 -24 10l-23.5 10
c-7.33301 3 -13.333 4.5 -18 4.5c-5.33301 0 -8.66602 -2.5 -9.99902 -7.5s-2 -10.5 -2 -16.5h-44c0 20 4.83301 36.833 14.5 50.5s23.5 20.5 41.5 20.5c6 0 12.833 -1.33301 20.5 -4s15.167 -5.83398 22.5 -9.50098s14.5 -6.83398 21.5 -9.50098s12.833 -4 17.5 -4
c12.667 0 19 9 19 27h43z" />
    <glyph glyph-name="Egrave" unicode="E&#x300;" horiz-adv-x="358" 
d="M333 0h-283v476h283v-54h-220v-144h196v-54h-196v-170h220v-54zM245 521h-48l-84 97l57 18z" />
    <glyph glyph-name="Eacute" unicode="E&#x301;" horiz-adv-x="358" 
d="M333 0h-283v476h283v-54h-220v-144h196v-54h-196v-170h220v-54zM188 636l57 -18l-84 -97h-48z" />
    <glyph glyph-name="Igrave" unicode="I&#x300;" horiz-adv-x="163" 
d="M113 0h-63v476h63v-476zM147 521h-48l-84 97l57 18z" />
    <glyph glyph-name="Iacute" unicode="I&#x301;" horiz-adv-x="163" 
d="M113 0h-63v476h63v-476zM90 636l57 -18l-84 -97h-48z" />
    <glyph glyph-name="Ograve" unicode="O&#x300;" horiz-adv-x="518" 
d="M430 238c0 54.667 -15.667 100.5 -47 137.5s-72.666 55.5 -123.999 55.5s-92.666 -18.5 -123.999 -55.5s-47 -82.833 -47 -137.5s15.667 -100.5 47 -137.5s72.666 -55.5 123.999 -55.5s92.666 18.5 123.999 55.5s47 82.833 47 137.5zM492 237
c0 -70 -21.667 -128.667 -65 -176s-99.333 -71 -168 -71s-124.667 23.667 -168 71s-65 106 -65 176s21.667 128.833 65 176.5s99.333 71.5 168 71.5s124.667 -23.833 168 -71.5s65 -106.5 65 -176.5zM325 521h-48l-84 97l57 18z" />
    <glyph glyph-name="Oacute" unicode="O&#x301;" horiz-adv-x="518" 
d="M430 238c0 54.667 -15.667 100.5 -47 137.5s-72.666 55.5 -123.999 55.5s-92.666 -18.5 -123.999 -55.5s-47 -82.833 -47 -137.5s15.667 -100.5 47 -137.5s72.666 -55.5 123.999 -55.5s92.666 18.5 123.999 55.5s47 82.833 47 137.5zM492 237
c0 -70 -21.667 -128.667 -65 -176s-99.333 -71 -168 -71s-124.667 23.667 -168 71s-65 106 -65 176s21.667 128.833 65 176.5s99.333 71.5 168 71.5s124.667 -23.833 168 -71.5s65 -106.5 65 -176.5zM268 636l57 -18l-84 -97h-48z" />
    <glyph glyph-name="Otilde" unicode="O&#x303;" horiz-adv-x="518" 
d="M430 238c0 54.667 -15.667 100.5 -47 137.5s-72.666 55.5 -123.999 55.5s-92.666 -18.5 -123.999 -55.5s-47 -82.833 -47 -137.5s15.667 -100.5 47 -137.5s72.666 -55.5 123.999 -55.5s92.666 18.5 123.999 55.5s47 82.833 47 137.5zM492 237
c0 -70 -21.667 -128.667 -65 -176s-99.333 -71 -168 -71s-124.667 23.667 -168 71s-65 106 -65 176s21.667 128.833 65 176.5s99.333 71.5 168 71.5s124.667 -23.833 168 -71.5s65 -106.5 65 -176.5zM359 592c-0.666992 -23.333 -5.83398 -41.8311 -15.501 -55.498
s-24.167 -20.5 -43.5 -20.5c-5.33301 0 -11.833 1.5 -19.5 4.5s-15.667 6.33301 -24 10l-23.5 10c-7.33301 3 -13.333 4.5 -18 4.5c-5.33301 0 -8.66602 -2.5 -9.99902 -7.5s-2 -10.5 -2 -16.5h-44c0 20 4.83301 36.833 14.5 50.5s23.5 20.5 41.5 20.5
c6 0 12.833 -1.33301 20.5 -4s15.167 -5.83398 22.5 -9.50098s14.5 -6.83398 21.5 -9.50098s12.833 -4 17.5 -4c12.667 0 19 9 19 27h43z" />
    <glyph glyph-name="Ugrave" unicode="U&#x300;" horiz-adv-x="482" 
d="M432 203c0 -141.333 -63.667 -212 -191 -212s-191 70.667 -191 212v273h64v-273c0 -105.333 42.333 -158 127 -158s127 52.667 127 158v273h64v-273zM307 521h-48l-84 97l57 18z" />
    <glyph glyph-name="Uacute" unicode="U&#x301;" horiz-adv-x="482" 
d="M432 203c0 -141.333 -63.667 -212 -191 -212s-191 70.667 -191 212v273h64v-273c0 -105.333 42.333 -158 127 -158s127 52.667 127 158v273h64v-273zM250 636l57 -18l-84 -97h-48z" />
    <glyph glyph-name="Yacute" unicode="Y&#x301;" horiz-adv-x="396" 
d="M230 0h-62v208l-174 268h73l132 -214l131 214h72l-172 -267v-209zM207 636l57 -18l-84 -97h-48z" />
    <glyph glyph-name="agrave" unicode="a&#x300;" horiz-adv-x="367" 
d="M330 3l-58.999 -12l-10 44c-34 -29.333 -72.333 -44 -115 -44c-34 0 -62.333 9.16699 -85 27.5s-34.334 43.166 -35.001 74.499c0 84.667 75.667 128 227 130c-6.66699 50 -34 75 -82 75c-36 0 -75.667 -8.33301 -119 -25l-7 57c45.333 13.333 88.333 20 129 20
c94.667 0 142 -48.667 142 -146v-113c0 -25.333 4.66699 -54.666 14 -87.999zM253.001 108v60c-108.667 -2 -163 -25 -163 -69c0 -35.333 19.667 -53 59 -53c22 0 44 5.33301 66 16c25.333 12.667 38 28 38 46zM249.001 385h-48l-84 97l57 18z" />
    <glyph glyph-name="aacute" unicode="a&#x301;" horiz-adv-x="367" 
d="M330 3l-58.999 -12l-10 44c-34 -29.333 -72.333 -44 -115 -44c-34 0 -62.333 9.16699 -85 27.5s-34.334 43.166 -35.001 74.499c0 84.667 75.667 128 227 130c-6.66699 50 -34 75 -82 75c-36 0 -75.667 -8.33301 -119 -25l-7 57c45.333 13.333 88.333 20 129 20
c94.667 0 142 -48.667 142 -146v-113c0 -25.333 4.66699 -54.666 14 -87.999zM253.001 108v60c-108.667 -2 -163 -25 -163 -69c0 -35.333 19.667 -53 59 -53c22 0 44 5.33301 66 16c25.333 12.667 38 28 38 46zM192.001 500l57 -18l-84 -97h-48z" />
    <glyph glyph-name="atilde" unicode="a&#x303;" horiz-adv-x="367" 
d="M330 3l-58.999 -12l-10 44c-34 -29.333 -72.333 -44 -115 -44c-34 0 -62.333 9.16699 -85 27.5s-34.334 43.166 -35.001 74.499c0 84.667 75.667 128 227 130c-6.66699 50 -34 75 -82 75c-36 0 -75.667 -8.33301 -119 -25l-7 57c45.333 13.333 88.333 20 129 20
c94.667 0 142 -48.667 142 -146v-113c0 -25.333 4.66699 -54.666 14 -87.999zM253.001 108v60c-108.667 -2 -163 -25 -163 -69c0 -35.333 19.667 -53 59 -53c22 0 44 5.33301 66 16c25.333 12.667 38 28 38 46zM283.001 456
c-0.666992 -23.333 -5.83398 -41.8311 -15.501 -55.498s-24.167 -20.5 -43.5 -20.5c-5.33301 0 -11.833 1.5 -19.5 4.5s-15.667 6.33301 -24 10l-23.5 10c-7.33301 3 -13.333 4.5 -18 4.5c-5.33301 0 -8.66602 -2.5 -9.99902 -7.5s-2 -10.5 -2 -16.5h-44
c0 20 4.83301 36.833 14.5 50.5s23.5 20.5 41.5 20.5c6 0 12.833 -1.33301 20.5 -4s15.167 -5.83398 22.5 -9.50098s14.5 -6.83398 21.5 -9.50098s12.833 -4 17.5 -4c12.667 0 19 9 19 27h43z" />
    <glyph glyph-name="egrave" unicode="e&#x300;" horiz-adv-x="391" 
d="M351 18c-48.667 -18 -95 -26.999 -139 -26.999c-54 0 -98.5 16.167 -133.5 48.5s-52.5 74.166 -52.5 125.499c0 56.667 17.333 102.667 52 138c34 33.333 77.333 50 130 50c102.667 0 155 -64.333 157 -193h-277c2.66699 -36 15.5 -63.833 38.5 -83.5
s52.833 -29.5 89.5 -29.5c37.333 0 80 8.66699 128 26zM303 213.001c-3.33301 26 -14 47.167 -32 63.5s-41 24.5 -69 24.5c-26.667 0 -50.5 -8.16699 -71.5 -24.5s-33.833 -37.5 -38.5 -63.5h211zM261 385.001h-48l-84 97l57 18z" />
    <glyph glyph-name="eacute" unicode="e&#x301;" horiz-adv-x="391" 
d="M351 18c-48.667 -18 -95 -26.999 -139 -26.999c-54 0 -98.5 16.167 -133.5 48.5s-52.5 74.166 -52.5 125.499c0 56.667 17.333 102.667 52 138c34 33.333 77.333 50 130 50c102.667 0 155 -64.333 157 -193h-277c2.66699 -36 15.5 -63.833 38.5 -83.5
s52.833 -29.5 89.5 -29.5c37.333 0 80 8.66699 128 26zM303 213.001c-3.33301 26 -14 47.167 -32 63.5s-41 24.5 -69 24.5c-26.667 0 -50.5 -8.16699 -71.5 -24.5s-33.833 -37.5 -38.5 -63.5h211zM204 500.001l57 -18l-84 -97h-48z" />
    <glyph glyph-name="igrave" unicode="i&#x300;" horiz-adv-x="163" 
d="M113 0h-63v340h63v-340zM147 385h-48l-84 97l57 18z" />
    <glyph glyph-name="iacute" unicode="i&#x301;" horiz-adv-x="163" 
d="M113 0h-63v340h63v-340zM90 500l57 -18l-84 -97h-48z" />
    <glyph glyph-name="ograve" unicode="o&#x300;" horiz-adv-x="412" 
d="M386 172c0 -50.667 -17 -93.334 -51 -128.001s-77 -52 -129 -52s-95 17.333 -129 52s-51 77.334 -51 128.001s17 93.5 51 128.5s77 52.5 129 52.5s95 -17.5 129 -52.5s51 -77.833 51 -128.5zM324 172c0 36 -11 66.167 -33 90.5s-50.333 36.5 -85 36.5
s-63 -12.167 -85 -36.5s-33 -54.5 -33 -90.5s11 -66.167 33 -90.5s50.333 -36.5 85 -36.5s63 12.167 85 36.5s33 54.5 33 90.5zM272 385h-48l-84 97l57 18z" />
    <glyph glyph-name="oacute" unicode="o&#x301;" horiz-adv-x="412" 
d="M386 172c0 -50.667 -17 -93.334 -51 -128.001s-77 -52 -129 -52s-95 17.333 -129 52s-51 77.334 -51 128.001s17 93.5 51 128.5s77 52.5 129 52.5s95 -17.5 129 -52.5s51 -77.833 51 -128.5zM324 172c0 36 -11 66.167 -33 90.5s-50.333 36.5 -85 36.5
s-63 -12.167 -85 -36.5s-33 -54.5 -33 -90.5s11 -66.167 33 -90.5s50.333 -36.5 85 -36.5s63 12.167 85 36.5s33 54.5 33 90.5zM215 500l57 -18l-84 -97h-48z" />
    <glyph glyph-name="otilde" unicode="o&#x303;" horiz-adv-x="412" 
d="M386 172c0 -50.667 -17 -93.334 -51 -128.001s-77 -52 -129 -52s-95 17.333 -129 52s-51 77.334 -51 128.001s17 93.5 51 128.5s77 52.5 129 52.5s95 -17.5 129 -52.5s51 -77.833 51 -128.5zM324 172c0 36 -11 66.167 -33 90.5s-50.333 36.5 -85 36.5
s-63 -12.167 -85 -36.5s-33 -54.5 -33 -90.5s11 -66.167 33 -90.5s50.333 -36.5 85 -36.5s63 12.167 85 36.5s33 54.5 33 90.5zM306 456c-0.666992 -23.333 -5.83398 -41.8311 -15.501 -55.498s-24.167 -20.5 -43.5 -20.5c-5.33301 0 -11.833 1.5 -19.5 4.5
s-15.667 6.33301 -24 10l-23.5 10c-7.33301 3 -13.333 4.5 -18 4.5c-5.33301 0 -8.66602 -2.5 -9.99902 -7.5s-2 -10.5 -2 -16.5h-44c0 20 4.83301 36.833 14.5 50.5s23.5 20.5 41.5 20.5c6 0 12.833 -1.33301 20.5 -4s15.167 -5.83398 22.5 -9.50098
s14.5 -6.83398 21.5 -9.50098s12.833 -4 17.5 -4c12.667 0 19 9 19 27h43z" />
    <glyph glyph-name="ugrave" unicode="u&#x300;" horiz-adv-x="418" 
d="M389 4l-61 -12c-6.66699 16 -12.667 35.333 -18 58c-40 -39.333 -79.667 -59 -119 -59c-94 0 -141 54.333 -141 163v186h63v-180c0 -75.333 28.667 -113 86 -113c24 0 47.667 9.16699 71 27.5s35 39.833 35 64.5v201h63v-249c0 -22.667 7 -51.667 21 -87zM275 385h-48
l-84 97l57 18z" />
    <glyph glyph-name="uacute" unicode="u&#x301;" horiz-adv-x="418" 
d="M389 4l-61 -12c-6.66699 16 -12.667 35.333 -18 58c-40 -39.333 -79.667 -59 -119 -59c-94 0 -141 54.333 -141 163v186h63v-180c0 -75.333 28.667 -113 86 -113c24 0 47.667 9.16699 71 27.5s35 39.833 35 64.5v201h63v-249c0 -22.667 7 -51.667 21 -87zM218 500l57 -18
l-84 -97h-48z" />
    <glyph glyph-name="yacute" unicode="y&#x301;" horiz-adv-x="361" 
d="M208 7c-42 -88.667 -100.667 -141.332 -176 -157.999l-16 52c59.333 13.333 103 54.666 131 123.999l-151 315h69l118 -252l112 252h69zM189 500.002l57 -18l-84 -97h-48z" />
    <glyph glyph-name="Itilde" unicode="I&#x303;" horiz-adv-x="163" 
d="M113 0h-63v476h63v-476zM182 592c-0.666992 -23.333 -5.83398 -41.8311 -15.501 -55.498s-24.167 -20.5 -43.5 -20.5c-5.33301 0 -11.833 1.5 -19.5 4.5s-15.667 6.33301 -24 10l-23.5 10c-7.33301 3 -13.333 4.5 -18 4.5c-5.33301 0 -8.66602 -2.5 -9.99902 -7.5
s-2 -10.5 -2 -16.5h-44c0 20 4.83301 36.833 14.5 50.5s23.5 20.5 41.5 20.5c6 0 12.833 -1.33301 20.5 -4s15.167 -5.83398 22.5 -9.50098s14.5 -6.83398 21.5 -9.50098s12.833 -4 17.5 -4c12.667 0 19 9 19 27h43z" />
    <glyph glyph-name="itilde" unicode="i&#x303;" horiz-adv-x="163" 
d="M113 0h-63v340h63v-340zM181 456c-0.666992 -23.333 -5.83398 -41.8311 -15.501 -55.498s-24.167 -20.5 -43.5 -20.5c-5.33301 0 -11.833 1.5 -19.5 4.5s-15.667 6.33301 -24 10l-23.5 10c-7.33301 3 -13.333 4.5 -18 4.5c-5.33301 0 -8.66602 -2.5 -9.99902 -7.5
s-2 -10.5 -2 -16.5h-44c0 20 4.83301 36.833 14.5 50.5s23.5 20.5 41.5 20.5c6 0 12.833 -1.33301 20.5 -4s15.167 -5.83398 22.5 -9.50098s14.5 -6.83398 21.5 -9.50098s12.833 -4 17.5 -4c12.667 0 19 9 19 27h43z" />
    <glyph glyph-name="Utilde" unicode="U&#x303;" horiz-adv-x="482" 
d="M432 203c0 -141.333 -63.667 -212 -191 -212s-191 70.667 -191 212v273h64v-273c0 -105.333 42.333 -158 127 -158s127 52.667 127 158v273h64v-273zM341 592c-0.666992 -23.333 -5.83398 -41.8311 -15.501 -55.498s-24.167 -20.5 -43.5 -20.5
c-5.33301 0 -11.833 1.5 -19.5 4.5s-15.667 6.33301 -24 10l-23.5 10c-7.33301 3 -13.333 4.5 -18 4.5c-5.33301 0 -8.66602 -2.5 -9.99902 -7.5s-2 -10.5 -2 -16.5h-44c0 20 4.83301 36.833 14.5 50.5s23.5 20.5 41.5 20.5c6 0 12.833 -1.33301 20.5 -4
s15.167 -5.83398 22.5 -9.50098s14.5 -6.83398 21.5 -9.50098s12.833 -4 17.5 -4c12.667 0 19 9 19 27h43z" />
    <glyph glyph-name="utilde" unicode="u&#x303;" horiz-adv-x="418" 
d="M389 4l-61 -12c-6.66699 16 -12.667 35.333 -18 58c-40 -39.333 -79.667 -59 -119 -59c-94 0 -141 54.333 -141 163v186h63v-180c0 -75.333 28.667 -113 86 -113c24 0 47.667 9.16699 71 27.5s35 39.833 35 64.5v201h63v-249c0 -22.667 7 -51.667 21 -87zM309 456
c-0.666992 -23.333 -5.83398 -41.8311 -15.501 -55.498s-24.167 -20.5 -43.5 -20.5c-5.33301 0 -11.833 1.5 -19.5 4.5s-15.667 6.33301 -24 10l-23.5 10c-7.33301 3 -13.333 4.5 -18 4.5c-5.33301 0 -8.66602 -2.5 -9.99902 -7.5s-2 -10.5 -2 -16.5h-44
c0 20 4.83301 36.833 14.5 50.5s23.5 20.5 41.5 20.5c6 0 12.833 -1.33301 20.5 -4s15.167 -5.83398 22.5 -9.50098s14.5 -6.83398 21.5 -9.50098s12.833 -4 17.5 -4c12.667 0 19 9 19 27h43z" />
    <glyph glyph-name="uni1EA0" unicode="A&#x323;" horiz-adv-x="451" 
d="M452 0h-69l-63 159h-191l-62 -159h-68l200 483h54zM296 213l-70 198l-74 -198h144zM272 -96c0 -13.333 -4.66699 -24.666 -14 -33.999s-20.333 -14 -33 -14s-23.667 4.66699 -33 14s-14 20.666 -14 33.999s4.66699 24.666 14 33.999s20.333 14 33 14
s23.667 -4.66699 33 -14s14 -20.666 14 -33.999z" />
    <glyph glyph-name="uni1EA1" unicode="a&#x323;" horiz-adv-x="367" 
d="M330 3l-58.999 -12l-10 44c-34 -29.333 -72.333 -44 -115 -44c-34 0 -62.333 9.16699 -85 27.5s-34.334 43.166 -35.001 74.499c0 84.667 75.667 128 227 130c-6.66699 50 -34 75 -82 75c-36 0 -75.667 -8.33301 -119 -25l-7 57c45.333 13.333 88.333 20 129 20
c94.667 0 142 -48.667 142 -146v-113c0 -25.333 4.66699 -54.666 14 -87.999zM253.001 108v60c-108.667 -2 -163 -25 -163 -69c0 -35.333 19.667 -53 59 -53c22 0 44 5.33301 66 16c25.333 12.667 38 28 38 46zM230.001 -96c0 -13.333 -4.66699 -24.666 -14 -33.999
s-20.333 -14 -33 -14s-23.667 4.66699 -33 14s-14 20.666 -14 33.999s4.66699 24.666 14 33.999s20.333 14 33 14s23.667 -4.66699 33 -14s14 -20.666 14 -33.999z" />
    <glyph glyph-name="uni1EA2" unicode="A&#x309;" horiz-adv-x="451" 
d="M452 0h-69l-63 159h-191l-62 -159h-68l200 483h54zM296 213l-70 198l-74 -198h144zM304 613c0 -11.333 -2.99805 -21.502 -8.99805 -30.502s-12.5 -17.5 -19.5 -25.5s-13.333 -15.833 -19 -23.5s-8.5 -15.834 -8.5 -24.501h-45c0 10.667 3 20.334 9 29.001
s12.667 16.834 20 24.501s14 15.167 20 22.5s9 15 9 23c0 11.333 -2.5 18.833 -7.5 22.5s-11.833 5.5 -20.5 5.5c-11.333 0 -21.333 -3.66699 -30 -11s-14.334 -13 -17.001 -17l-26 22c5.33301 10.667 14.333 20.834 27 30.501s29.667 14.5 51 14.5
c19.333 0 35.166 -5 47.499 -15s18.5 -25.667 18.5 -47z" />
    <glyph glyph-name="uni1EA3" unicode="a&#x309;" horiz-adv-x="367" 
d="M330 3l-58.999 -12l-10 44c-34 -29.333 -72.333 -44 -115 -44c-34 0 -62.333 9.16699 -85 27.5s-34.334 43.166 -35.001 74.499c0 84.667 75.667 128 227 130c-6.66699 50 -34 75 -82 75c-36 0 -75.667 -8.33301 -119 -25l-7 57c45.333 13.333 88.333 20 129 20
c94.667 0 142 -48.667 142 -146v-113c0 -25.333 4.66699 -54.666 14 -87.999zM253.001 108v60c-108.667 -2 -163 -25 -163 -69c0 -35.333 19.667 -53 59 -53c22 0 44 5.33301 66 16c25.333 12.667 38 28 38 46zM255.001 477c0 -11.333 -2.99805 -21.502 -8.99805 -30.502
s-12.5 -17.5 -19.5 -25.5s-13.333 -15.833 -19 -23.5s-8.5 -15.834 -8.5 -24.501h-45c0 10.667 3 20.334 9 29.001s12.667 16.834 20 24.501s14 15.167 20 22.5s9 15 9 23c0 11.333 -2.5 18.833 -7.5 22.5s-11.833 5.5 -20.5 5.5c-11.333 0 -21.333 -3.66699 -30 -11
s-14.334 -13 -17.001 -17l-26 22c5.33301 10.667 14.333 20.834 27 30.501s29.667 14.5 51 14.5c19.333 0 35.166 -5 47.499 -15s18.5 -25.667 18.5 -47z" />
    <glyph glyph-name="uni1EA4" unicode="&#xc2;&#x301;" horiz-adv-x="451" 
d="M452 0h-69l-63 159h-191l-62 -159h-68l200 483h54zM296 213l-70 198l-74 -198h144zM320 521h-54l-41 71l-40 -71h-55l78 115h35zM369 720l57 -18l-84 -97h-48z" />
    <glyph glyph-name="uni1EA5" unicode="&#xe2;&#x301;" horiz-adv-x="367" 
d="M330 3l-58.999 -12l-10 44c-34 -29.333 -72.333 -44 -115 -44c-34 0 -62.333 9.16699 -85 27.5s-34.334 43.166 -35.001 74.499c0 84.667 75.667 128 227 130c-6.66699 50 -34 75 -82 75c-36 0 -75.667 -8.33301 -119 -25l-7 57c45.333 13.333 88.333 20 129 20
c94.667 0 142 -48.667 142 -146v-113c0 -25.333 4.66699 -54.666 14 -87.999zM253.001 108v60c-108.667 -2 -163 -25 -163 -69c0 -35.333 19.667 -53 59 -53c22 0 44 5.33301 66 16c25.333 12.667 38 28 38 46zM278.001 385h-54l-41 71l-40 -71h-55l78 115h35zM330.001 592
l57 -18l-84 -97h-48z" />
    <glyph glyph-name="uni1EA6" unicode="&#xc2;&#x300;" horiz-adv-x="451" 
d="M452 0h-69l-63 159h-191l-62 -159h-68l200 483h54zM296 213l-70 198l-74 -198h144zM320 521h-54l-41 71l-40 -71h-55l78 115h35zM401 605h-48l-84 97l57 18z" />
    <glyph glyph-name="uni1EA7" unicode="&#xe2;&#x300;" horiz-adv-x="367" 
d="M330 3l-58.999 -12l-10 44c-34 -29.333 -72.333 -44 -115 -44c-34 0 -62.333 9.16699 -85 27.5s-34.334 43.166 -35.001 74.499c0 84.667 75.667 128 227 130c-6.66699 50 -34 75 -82 75c-36 0 -75.667 -8.33301 -119 -25l-7 57c45.333 13.333 88.333 20 129 20
c94.667 0 142 -48.667 142 -146v-113c0 -25.333 4.66699 -54.666 14 -87.999zM253.001 108v60c-108.667 -2 -163 -25 -163 -69c0 -35.333 19.667 -53 59 -53c22 0 44 5.33301 66 16c25.333 12.667 38 28 38 46zM278.001 385h-54l-41 71l-40 -71h-55l78 115h35zM341.001 477
h-48l-84 97l57 18z" />
    <glyph glyph-name="uni1EA8" unicode="&#xc2;&#x309;" horiz-adv-x="451" 
d="M452 0h-69l-63 159h-191l-62 -159h-68l200 483h54zM296 213l-70 198l-74 -198h144zM320 521h-54l-41 71l-40 -71h-55l78 115h35zM423 701c0 -11.333 -2.99805 -21.502 -8.99805 -30.502s-12.5 -17.5 -19.5 -25.5s-13.333 -15.833 -19 -23.5s-8.5 -15.834 -8.5 -24.501
h-45c0 10.667 3 20.334 9 29.001s12.667 16.834 20 24.501s14 15.167 20 22.5s9 15 9 23c0 11.333 -2.5 18.833 -7.5 22.5s-11.833 5.5 -20.5 5.5c-11.333 0 -21.333 -3.66699 -30 -11s-14.334 -13 -17.001 -17l-26 22c5.33301 10.667 14.333 20.834 27 30.501
s29.667 14.5 51 14.5c19.333 0 35.166 -5 47.499 -15s18.5 -25.667 18.5 -47z" />
    <glyph glyph-name="uni1EA9" unicode="&#xe2;&#x309;" horiz-adv-x="367" 
d="M330 3l-58.999 -12l-10 44c-34 -29.333 -72.333 -44 -115 -44c-34 0 -62.333 9.16699 -85 27.5s-34.334 43.166 -35.001 74.499c0 84.667 75.667 128 227 130c-6.66699 50 -34 75 -82 75c-36 0 -75.667 -8.33301 -119 -25l-7 57c45.333 13.333 88.333 20 129 20
c94.667 0 142 -48.667 142 -146v-113c0 -25.333 4.66699 -54.666 14 -87.999zM253.001 108v60c-108.667 -2 -163 -25 -163 -69c0 -35.333 19.667 -53 59 -53c22 0 44 5.33301 66 16c25.333 12.667 38 28 38 46zM278.001 385h-54l-41 71l-40 -71h-55l78 115h35zM371.001 571
c0 -11.333 -2.99805 -21.502 -8.99805 -30.502s-12.5 -17.5 -19.5 -25.5s-13.333 -15.833 -19 -23.5s-8.5 -15.834 -8.5 -24.501h-45c0 10.667 3 20.334 9 29.001s12.667 16.834 20 24.501s14 15.167 20 22.5s9 15 9 23c0 11.333 -2.5 18.833 -7.5 22.5
s-11.833 5.5 -20.5 5.5c-11.333 0 -21.333 -3.66699 -30 -11s-14.334 -13 -17.001 -17l-26 22c5.33301 10.667 14.333 20.834 27 30.501s29.667 14.5 51 14.5c19.333 0 35.166 -5 47.499 -15s18.5 -25.667 18.5 -47z" />
    <glyph glyph-name="uni1EAA" unicode="&#xc2;&#x303;" horiz-adv-x="451" 
d="M452 0h-69l-63 159h-191l-62 -159h-68l200 483h54zM296 213l-70 198l-74 -198h144zM320 521h-54l-41 71l-40 -71h-55l78 115h35zM325 748c-0.666992 -23.333 -5.83398 -41.8311 -15.501 -55.498s-24.167 -20.5 -43.5 -20.5c-5.33301 0 -11.833 1.5 -19.5 4.5
s-15.667 6.33301 -24 10l-23.5 10c-7.33301 3 -13.333 4.5 -18 4.5c-5.33301 0 -8.66602 -2.5 -9.99902 -7.5s-2 -10.5 -2 -16.5h-44c0 20 4.83301 36.833 14.5 50.5s23.5 20.5 41.5 20.5c6 0 12.833 -1.33301 20.5 -4s15.167 -5.83398 22.5 -9.50098
s14.5 -6.83398 21.5 -9.50098s12.833 -4 17.5 -4c12.667 0 19 9 19 27h43z" />
    <glyph glyph-name="uni1EAB" unicode="&#xe2;&#x303;" horiz-adv-x="367" 
d="M330 3l-58.999 -12l-10 44c-34 -29.333 -72.333 -44 -115 -44c-34 0 -62.333 9.16699 -85 27.5s-34.334 43.166 -35.001 74.499c0 84.667 75.667 128 227 130c-6.66699 50 -34 75 -82 75c-36 0 -75.667 -8.33301 -119 -25l-7 57c45.333 13.333 88.333 20 129 20
c94.667 0 142 -48.667 142 -146v-113c0 -25.333 4.66699 -54.666 14 -87.999zM253.001 108v60c-108.667 -2 -163 -25 -163 -69c0 -35.333 19.667 -53 59 -53c22 0 44 5.33301 66 16c25.333 12.667 38 28 38 46zM278.001 385h-54l-41 71l-40 -71h-55l78 115h35zM283.001 600
c-0.666992 -23.333 -5.83398 -41.8311 -15.501 -55.498s-24.167 -20.5 -43.5 -20.5c-5.33301 0 -11.833 1.5 -19.5 4.5s-15.667 6.33301 -24 10l-23.5 10c-7.33301 3 -13.333 4.5 -18 4.5c-5.33301 0 -8.66602 -2.5 -9.99902 -7.5s-2 -10.5 -2 -16.5h-44
c0 20 4.83301 36.833 14.5 50.5s23.5 20.5 41.5 20.5c6 0 12.833 -1.33301 20.5 -4s15.167 -5.83398 22.5 -9.50098s14.5 -6.83398 21.5 -9.50098s12.833 -4 17.5 -4c12.667 0 19 9 19 27h43z" />
    <glyph glyph-name="uni1EAC" unicode="&#xc2;&#x323;" horiz-adv-x="451" 
d="M452 0h-69l-63 159h-191l-62 -159h-68l200 483h54zM296 213l-70 198l-74 -198h144zM272 -96c0 -13.333 -4.66699 -24.666 -14 -33.999s-20.333 -14 -33 -14s-23.667 4.66699 -33 14s-14 20.666 -14 33.999s4.66699 24.666 14 33.999s20.333 14 33 14
s23.667 -4.66699 33 -14s14 -20.666 14 -33.999zM320 521h-54l-41 71l-40 -71h-55l78 115h35z" />
    <glyph glyph-name="uni1EAD" unicode="&#xe2;&#x323;" horiz-adv-x="367" 
d="M330 3l-58.999 -12l-10 44c-34 -29.333 -72.333 -44 -115 -44c-34 0 -62.333 9.16699 -85 27.5s-34.334 43.166 -35.001 74.499c0 84.667 75.667 128 227 130c-6.66699 50 -34 75 -82 75c-36 0 -75.667 -8.33301 -119 -25l-7 57c45.333 13.333 88.333 20 129 20
c94.667 0 142 -48.667 142 -146v-113c0 -25.333 4.66699 -54.666 14 -87.999zM253.001 108v60c-108.667 -2 -163 -25 -163 -69c0 -35.333 19.667 -53 59 -53c22 0 44 5.33301 66 16c25.333 12.667 38 28 38 46zM230.001 -96c0 -13.333 -4.66699 -24.666 -14 -33.999
s-20.333 -14 -33 -14s-23.667 4.66699 -33 14s-14 20.666 -14 33.999s4.66699 24.666 14 33.999s20.333 14 33 14s23.667 -4.66699 33 -14s14 -20.666 14 -33.999zM278.001 385h-54l-41 71l-40 -71h-55l78 115h35z" />
    <glyph glyph-name="uni1EAE" unicode="&#x102;&#x301;" horiz-adv-x="451" 
d="M452 0h-69l-63 159h-191l-62 -159h-68l200 483h54zM296 213l-70 198l-74 -198h144zM343 627c-6.66699 -38 -20 -66.167 -40 -84.5s-46 -27.5 -78 -27.5s-58 9.16699 -78 27.5s-33.333 46.5 -40 84.5h54c3.33301 -16.667 10.166 -31.5 20.499 -44.5
s24.833 -19.5 43.5 -19.5s33.334 6.5 44.001 19.5s17.667 27.833 21 44.5h53zM273 762l57 -18l-84 -97h-48z" />
    <glyph glyph-name="uni1EAF" unicode="&#x103;&#x301;" horiz-adv-x="367" 
d="M330 3l-58.999 -12l-10 44c-34 -29.333 -72.333 -44 -115 -44c-34 0 -62.333 9.16699 -85 27.5s-34.334 43.166 -35.001 74.499c0 84.667 75.667 128 227 130c-6.66699 50 -34 75 -82 75c-36 0 -75.667 -8.33301 -119 -25l-7 57c45.333 13.333 88.333 20 129 20
c94.667 0 142 -48.667 142 -146v-113c0 -25.333 4.66699 -54.666 14 -87.999zM253.001 108v60c-108.667 -2 -163 -25 -163 -69c0 -35.333 19.667 -53 59 -53c22 0 44 5.33301 66 16c25.333 12.667 38 28 38 46zM301.001 491c-6.66699 -38 -20 -66.167 -40 -84.5
s-46 -27.5 -78 -27.5s-58 9.16699 -78 27.5s-33.333 46.5 -40 84.5h54c3.33301 -16.667 10.166 -31.5 20.499 -44.5s24.833 -19.5 43.5 -19.5s33.334 6.5 44.001 19.5s17.667 27.833 21 44.5h53zM230.001 626l57 -18l-84 -97h-48z" />
    <glyph glyph-name="uni1EB0" unicode="&#x102;&#x300;" horiz-adv-x="451" 
d="M452 0h-69l-63 159h-191l-62 -159h-68l200 483h54zM296 213l-70 198l-74 -198h144zM343 627c-6.66699 -38 -20 -66.167 -40 -84.5s-46 -27.5 -78 -27.5s-58 9.16699 -78 27.5s-33.333 46.5 -40 84.5h54c3.33301 -16.667 10.166 -31.5 20.499 -44.5
s24.833 -19.5 43.5 -19.5s33.334 6.5 44.001 19.5s17.667 27.833 21 44.5h53zM253 636h-48l-84 97l57 18z" />
    <glyph glyph-name="uni1EB1" unicode="&#x103;&#x300;" horiz-adv-x="367" 
d="M330 3l-58.999 -12l-10 44c-34 -29.333 -72.333 -44 -115 -44c-34 0 -62.333 9.16699 -85 27.5s-34.334 43.166 -35.001 74.499c0 84.667 75.667 128 227 130c-6.66699 50 -34 75 -82 75c-36 0 -75.667 -8.33301 -119 -25l-7 57c45.333 13.333 88.333 20 129 20
c94.667 0 142 -48.667 142 -146v-113c0 -25.333 4.66699 -54.666 14 -87.999zM253.001 108v60c-108.667 -2 -163 -25 -163 -69c0 -35.333 19.667 -53 59 -53c22 0 44 5.33301 66 16c25.333 12.667 38 28 38 46zM301.001 491c-6.66699 -38 -20 -66.167 -40 -84.5
s-46 -27.5 -78 -27.5s-58 9.16699 -78 27.5s-33.333 46.5 -40 84.5h54c3.33301 -16.667 10.166 -31.5 20.499 -44.5s24.833 -19.5 43.5 -19.5s33.334 6.5 44.001 19.5s17.667 27.833 21 44.5h53zM212.001 502h-48l-84 97l57 18z" />
    <glyph glyph-name="uni1EB2" unicode="&#x102;&#x309;" horiz-adv-x="451" 
d="M452 0h-69l-63 159h-191l-62 -159h-68l200 483h54zM296 213l-70 198l-74 -198h144zM343 627c-6.66699 -38 -20 -66.167 -40 -84.5s-46 -27.5 -78 -27.5s-58 9.16699 -78 27.5s-33.333 46.5 -40 84.5h54c3.33301 -16.667 10.166 -31.5 20.499 -44.5
s24.833 -19.5 43.5 -19.5s33.334 6.5 44.001 19.5s17.667 27.833 21 44.5h53zM301 735c0 -11.333 -2.99805 -21.502 -8.99805 -30.502s-12.5 -17.5 -19.5 -25.5s-13.333 -15.833 -19 -23.5s-8.5 -15.834 -8.5 -24.501h-45c0 10.667 3 20.334 9 29.001
s12.667 16.834 20 24.501s14 15.167 20 22.5s9 15 9 23c0 11.333 -2.5 18.833 -7.5 22.5s-11.833 5.5 -20.5 5.5c-11.333 0 -21.333 -3.66699 -30 -11s-14.334 -13 -17.001 -17l-26 22c5.33301 10.667 14.333 20.834 27 30.501s29.667 14.5 51 14.5
c19.333 0 35.166 -5 47.499 -15s18.5 -25.667 18.5 -47z" />
    <glyph glyph-name="uni1EB3" unicode="&#x103;&#x309;" horiz-adv-x="367" 
d="M330 3l-58.999 -12l-10 44c-34 -29.333 -72.333 -44 -115 -44c-34 0 -62.333 9.16699 -85 27.5s-34.334 43.166 -35.001 74.499c0 84.667 75.667 128 227 130c-6.66699 50 -34 75 -82 75c-36 0 -75.667 -8.33301 -119 -25l-7 57c45.333 13.333 88.333 20 129 20
c94.667 0 142 -48.667 142 -146v-113c0 -25.333 4.66699 -54.666 14 -87.999zM253.001 108v60c-108.667 -2 -163 -25 -163 -69c0 -35.333 19.667 -53 59 -53c22 0 44 5.33301 66 16c25.333 12.667 38 28 38 46zM301.001 491c-6.66699 -38 -20 -66.167 -40 -84.5
s-46 -27.5 -78 -27.5s-58 9.16699 -78 27.5s-33.333 46.5 -40 84.5h54c3.33301 -16.667 10.166 -31.5 20.499 -44.5s24.833 -19.5 43.5 -19.5s33.334 6.5 44.001 19.5s17.667 27.833 21 44.5h53zM262.001 593c0 -11.333 -2.99805 -21.502 -8.99805 -30.502
s-12.5 -17.5 -19.5 -25.5s-13.333 -15.833 -19 -23.5s-8.5 -15.834 -8.5 -24.501h-45c0 10.667 3 20.334 9 29.001s12.667 16.834 20 24.501s14 15.167 20 22.5s9 15 9 23c0 11.333 -2.5 18.833 -7.5 22.5s-11.833 5.5 -20.5 5.5c-11.333 0 -21.333 -3.66699 -30 -11
s-14.334 -13 -17.001 -17l-26 22c5.33301 10.667 14.333 20.834 27 30.501s29.667 14.5 51 14.5c19.333 0 35.166 -5 47.499 -15s18.5 -25.667 18.5 -47z" />
    <glyph glyph-name="uni1EB4" unicode="&#x102;&#x303;" horiz-adv-x="451" 
d="M452 0h-69l-63 159h-191l-62 -159h-68l200 483h54zM296 213l-70 198l-74 -198h144zM343 627c-6.66699 -38 -20 -66.167 -40 -84.5s-46 -27.5 -78 -27.5s-58 9.16699 -78 27.5s-33.333 46.5 -40 84.5h54c3.33301 -16.667 10.166 -31.5 20.499 -44.5
s24.833 -19.5 43.5 -19.5s33.334 6.5 44.001 19.5s17.667 27.833 21 44.5h53zM325 748c-0.666992 -23.333 -5.83398 -41.8311 -15.501 -55.498s-24.167 -20.5 -43.5 -20.5c-5.33301 0 -11.833 1.5 -19.5 4.5s-15.667 6.33301 -24 10l-23.5 10
c-7.33301 3 -13.333 4.5 -18 4.5c-5.33301 0 -8.66602 -2.5 -9.99902 -7.5s-2 -10.5 -2 -16.5h-44c0 20 4.83301 36.833 14.5 50.5s23.5 20.5 41.5 20.5c6 0 12.833 -1.33301 20.5 -4s15.167 -5.83398 22.5 -9.50098s14.5 -6.83398 21.5 -9.50098s12.833 -4 17.5 -4
c12.667 0 19 9 19 27h43z" />
    <glyph glyph-name="uni1EB5" unicode="&#x103;&#x303;" horiz-adv-x="367" 
d="M330 3l-58.999 -12l-10 44c-34 -29.333 -72.333 -44 -115 -44c-34 0 -62.333 9.16699 -85 27.5s-34.334 43.166 -35.001 74.499c0 84.667 75.667 128 227 130c-6.66699 50 -34 75 -82 75c-36 0 -75.667 -8.33301 -119 -25l-7 57c45.333 13.333 88.333 20 129 20
c94.667 0 142 -48.667 142 -146v-113c0 -25.333 4.66699 -54.666 14 -87.999zM253.001 108v60c-108.667 -2 -163 -25 -163 -69c0 -35.333 19.667 -53 59 -53c22 0 44 5.33301 66 16c25.333 12.667 38 28 38 46zM301.001 491c-6.66699 -38 -20 -66.167 -40 -84.5
s-46 -27.5 -78 -27.5s-58 9.16699 -78 27.5s-33.333 46.5 -40 84.5h54c3.33301 -16.667 10.166 -31.5 20.499 -44.5s24.833 -19.5 43.5 -19.5s33.334 6.5 44.001 19.5s17.667 27.833 21 44.5h53zM283.001 596c-0.666992 -23.333 -5.83398 -41.8311 -15.501 -55.498
s-24.167 -20.5 -43.5 -20.5c-5.33301 0 -11.833 1.5 -19.5 4.5s-15.667 6.33301 -24 10l-23.5 10c-7.33301 3 -13.333 4.5 -18 4.5c-5.33301 0 -8.66602 -2.5 -9.99902 -7.5s-2 -10.5 -2 -16.5h-44c0 20 4.83301 36.833 14.5 50.5s23.5 20.5 41.5 20.5
c6 0 12.833 -1.33301 20.5 -4s15.167 -5.83398 22.5 -9.50098s14.5 -6.83398 21.5 -9.50098s12.833 -4 17.5 -4c12.667 0 19 9 19 27h43z" />
    <glyph glyph-name="uni1EB6" unicode="&#x102;&#x323;" horiz-adv-x="451" 
d="M452 0h-69l-63 159h-191l-62 -159h-68l200 483h54zM296 213l-70 198l-74 -198h144zM272 -96c0 -13.333 -4.66699 -24.666 -14 -33.999s-20.333 -14 -33 -14s-23.667 4.66699 -33 14s-14 20.666 -14 33.999s4.66699 24.666 14 33.999s20.333 14 33 14
s23.667 -4.66699 33 -14s14 -20.666 14 -33.999zM343 627c-6.66699 -38 -20 -66.167 -40 -84.5s-46 -27.5 -78 -27.5s-58 9.16699 -78 27.5s-33.333 46.5 -40 84.5h54c3.33301 -16.667 10.166 -31.5 20.499 -44.5s24.833 -19.5 43.5 -19.5s33.334 6.5 44.001 19.5
s17.667 27.833 21 44.5h53z" />
    <glyph glyph-name="uni1EB7" unicode="&#x103;&#x323;" horiz-adv-x="367" 
d="M330 3l-58.999 -12l-10 44c-34 -29.333 -72.333 -44 -115 -44c-34 0 -62.333 9.16699 -85 27.5s-34.334 43.166 -35.001 74.499c0 84.667 75.667 128 227 130c-6.66699 50 -34 75 -82 75c-36 0 -75.667 -8.33301 -119 -25l-7 57c45.333 13.333 88.333 20 129 20
c94.667 0 142 -48.667 142 -146v-113c0 -25.333 4.66699 -54.666 14 -87.999zM253.001 108v60c-108.667 -2 -163 -25 -163 -69c0 -35.333 19.667 -53 59 -53c22 0 44 5.33301 66 16c25.333 12.667 38 28 38 46zM230.001 -96c0 -13.333 -4.66699 -24.666 -14 -33.999
s-20.333 -14 -33 -14s-23.667 4.66699 -33 14s-14 20.666 -14 33.999s4.66699 24.666 14 33.999s20.333 14 33 14s23.667 -4.66699 33 -14s14 -20.666 14 -33.999zM301.001 491c-6.66699 -38 -20 -66.167 -40 -84.5s-46 -27.5 -78 -27.5s-58 9.16699 -78 27.5
s-33.333 46.5 -40 84.5h54c3.33301 -16.667 10.166 -31.5 20.499 -44.5s24.833 -19.5 43.5 -19.5s33.334 6.5 44.001 19.5s17.667 27.833 21 44.5h53z" />
    <glyph glyph-name="uni1EB8" unicode="E&#x323;" horiz-adv-x="358" 
d="M333 0h-283v476h283v-54h-220v-144h196v-54h-196v-170h220v-54zM226 -96c0 -13.333 -4.66699 -24.666 -14 -33.999s-20.333 -14 -33 -14s-23.667 4.66699 -33 14s-14 20.666 -14 33.999s4.66699 24.666 14 33.999s20.333 14 33 14s23.667 -4.66699 33 -14
s14 -20.666 14 -33.999z" />
    <glyph glyph-name="uni1EB9" unicode="e&#x323;" horiz-adv-x="391" 
d="M351 18c-48.667 -18 -95 -26.999 -139 -26.999c-54 0 -98.5 16.167 -133.5 48.5s-52.5 74.166 -52.5 125.499c0 56.667 17.333 102.667 52 138c34 33.333 77.333 50 130 50c102.667 0 155 -64.333 157 -193h-277c2.66699 -36 15.5 -63.833 38.5 -83.5
s52.833 -29.5 89.5 -29.5c37.333 0 80 8.66699 128 26zM303 213.001c-3.33301 26 -14 47.167 -32 63.5s-41 24.5 -69 24.5c-26.667 0 -50.5 -8.16699 -71.5 -24.5s-33.833 -37.5 -38.5 -63.5h211zM242 -95.999c0 -13.333 -4.66699 -24.666 -14 -33.999s-20.333 -14 -33 -14
s-23.667 4.66699 -33 14s-14 20.666 -14 33.999s4.66699 24.666 14 33.999s20.333 14 33 14s23.667 -4.66699 33 -14s14 -20.666 14 -33.999z" />
    <glyph glyph-name="uni1EBA" unicode="E&#x309;" horiz-adv-x="358" 
d="M333 0h-283v476h283v-54h-220v-144h196v-54h-196v-170h220v-54zM260 613c0 -11.333 -2.99805 -21.502 -8.99805 -30.502s-12.5 -17.5 -19.5 -25.5s-13.333 -15.833 -19 -23.5s-8.5 -15.834 -8.5 -24.501h-45c0 10.667 3 20.334 9 29.001s12.667 16.834 20 24.501
s14 15.167 20 22.5s9 15 9 23c0 11.333 -2.5 18.833 -7.5 22.5s-11.833 5.5 -20.5 5.5c-11.333 0 -21.333 -3.66699 -30 -11s-14.334 -13 -17.001 -17l-26 22c5.33301 10.667 14.333 20.834 27 30.501s29.667 14.5 51 14.5c19.333 0 35.166 -5 47.499 -15
s18.5 -25.667 18.5 -47z" />
    <glyph glyph-name="uni1EBB" unicode="e&#x309;" horiz-adv-x="391" 
d="M351 18c-48.667 -18 -95 -26.999 -139 -26.999c-54 0 -98.5 16.167 -133.5 48.5s-52.5 74.166 -52.5 125.499c0 56.667 17.333 102.667 52 138c34 33.333 77.333 50 130 50c102.667 0 155 -64.333 157 -193h-277c2.66699 -36 15.5 -63.833 38.5 -83.5
s52.833 -29.5 89.5 -29.5c37.333 0 80 8.66699 128 26zM303 213.001c-3.33301 26 -14 47.167 -32 63.5s-41 24.5 -69 24.5c-26.667 0 -50.5 -8.16699 -71.5 -24.5s-33.833 -37.5 -38.5 -63.5h211zM277 477.001c0 -11.333 -2.99805 -21.502 -8.99805 -30.502
s-12.5 -17.5 -19.5 -25.5s-13.333 -15.833 -19 -23.5s-8.5 -15.834 -8.5 -24.501h-45c0 10.667 3 20.334 9 29.001s12.667 16.834 20 24.501s14 15.167 20 22.5s9 15 9 23c0 11.333 -2.5 18.833 -7.5 22.5s-11.833 5.5 -20.5 5.5c-11.333 0 -21.333 -3.66699 -30 -11
s-14.334 -13 -17.001 -17l-26 22c5.33301 10.667 14.333 20.834 27 30.501s29.667 14.5 51 14.5c19.333 0 35.166 -5 47.499 -15s18.5 -25.667 18.5 -47z" />
    <glyph glyph-name="uni1EBC" unicode="E&#x303;" horiz-adv-x="358" 
d="M333 0h-283v476h283v-54h-220v-144h196v-54h-196v-170h220v-54zM279 592c-0.666992 -23.333 -5.83398 -41.8311 -15.501 -55.498s-24.167 -20.5 -43.5 -20.5c-5.33301 0 -11.833 1.5 -19.5 4.5s-15.667 6.33301 -24 10l-23.5 10c-7.33301 3 -13.333 4.5 -18 4.5
c-5.33301 0 -8.66602 -2.5 -9.99902 -7.5s-2 -10.5 -2 -16.5h-44c0 20 4.83301 36.833 14.5 50.5s23.5 20.5 41.5 20.5c6 0 12.833 -1.33301 20.5 -4s15.167 -5.83398 22.5 -9.50098s14.5 -6.83398 21.5 -9.50098s12.833 -4 17.5 -4c12.667 0 19 9 19 27h43z" />
    <glyph glyph-name="uni1EBD" unicode="e&#x303;" horiz-adv-x="391" 
d="M351 18c-48.667 -18 -95 -26.999 -139 -26.999c-54 0 -98.5 16.167 -133.5 48.5s-52.5 74.166 -52.5 125.499c0 56.667 17.333 102.667 52 138c34 33.333 77.333 50 130 50c102.667 0 155 -64.333 157 -193h-277c2.66699 -36 15.5 -63.833 38.5 -83.5
s52.833 -29.5 89.5 -29.5c37.333 0 80 8.66699 128 26zM303 213.001c-3.33301 26 -14 47.167 -32 63.5s-41 24.5 -69 24.5c-26.667 0 -50.5 -8.16699 -71.5 -24.5s-33.833 -37.5 -38.5 -63.5h211zM295 456.001c-0.666992 -23.333 -5.83398 -41.8311 -15.501 -55.498
s-24.167 -20.5 -43.5 -20.5c-5.33301 0 -11.833 1.5 -19.5 4.5s-15.667 6.33301 -24 10l-23.5 10c-7.33301 3 -13.333 4.5 -18 4.5c-5.33301 0 -8.66602 -2.5 -9.99902 -7.5s-2 -10.5 -2 -16.5h-44c0 20 4.83301 36.833 14.5 50.5s23.5 20.5 41.5 20.5
c6 0 12.833 -1.33301 20.5 -4s15.167 -5.83398 22.5 -9.50098s14.5 -6.83398 21.5 -9.50098s12.833 -4 17.5 -4c12.667 0 19 9 19 27h43z" />
    <glyph glyph-name="uni1EBE" unicode="&#xca;&#x301;" horiz-adv-x="358" 
d="M333 0h-283v476h283v-54h-220v-144h196v-54h-196v-170h220v-54zM274 521h-54l-41 71l-40 -71h-55l78 115h35zM322 735l57 -18l-84 -97h-48z" />
    <glyph glyph-name="uni1EBF" unicode="&#xea;&#x301;" horiz-adv-x="391" 
d="M351 18c-48.667 -18 -95 -26.999 -139 -26.999c-54 0 -98.5 16.167 -133.5 48.5s-52.5 74.166 -52.5 125.499c0 56.667 17.333 102.667 52 138c34 33.333 77.333 50 130 50c102.667 0 155 -64.333 157 -193h-277c2.66699 -36 15.5 -63.833 38.5 -83.5
s52.833 -29.5 89.5 -29.5c37.333 0 80 8.66699 128 26zM303 213.001c-3.33301 26 -14 47.167 -32 63.5s-41 24.5 -69 24.5c-26.667 0 -50.5 -8.16699 -71.5 -24.5s-33.833 -37.5 -38.5 -63.5h211zM290 385.001h-54l-41 71l-40 -71h-55l78 115h35zM338 602.001l57 -18
l-84 -97h-48z" />
    <glyph glyph-name="uni1EC0" unicode="&#xca;&#x300;" horiz-adv-x="358" 
d="M333 0h-283v476h283v-54h-220v-144h196v-54h-196v-170h220v-54zM274 521h-54l-41 71l-40 -71h-55l78 115h35zM333 636h-48l-84 97l57 18z" />
    <glyph glyph-name="uni1EC1" unicode="&#xea;&#x300;" horiz-adv-x="391" 
d="M351 18c-48.667 -18 -95 -26.999 -139 -26.999c-54 0 -98.5 16.167 -133.5 48.5s-52.5 74.166 -52.5 125.499c0 56.667 17.333 102.667 52 138c34 33.333 77.333 50 130 50c102.667 0 155 -64.333 157 -193h-277c2.66699 -36 15.5 -63.833 38.5 -83.5
s52.833 -29.5 89.5 -29.5c37.333 0 80 8.66699 128 26zM303 213.001c-3.33301 26 -14 47.167 -32 63.5s-41 24.5 -69 24.5c-26.667 0 -50.5 -8.16699 -71.5 -24.5s-33.833 -37.5 -38.5 -63.5h211zM290 385.001h-54l-41 71l-40 -71h-55l78 115h35zM365 476.001h-48l-84 97
l57 18z" />
    <glyph glyph-name="uni1EC2" unicode="&#xca;&#x309;" horiz-adv-x="358" 
d="M333 0h-283v476h283v-54h-220v-144h196v-54h-196v-170h220v-54zM274 521h-54l-41 71l-40 -71h-55l78 115h35zM366 700c0 -11.333 -2.99805 -21.502 -8.99805 -30.502s-12.5 -17.5 -19.5 -25.5s-13.333 -15.833 -19 -23.5s-8.5 -15.834 -8.5 -24.501h-45
c0 10.667 3 20.334 9 29.001s12.667 16.834 20 24.501s14 15.167 20 22.5s9 15 9 23c0 11.333 -2.5 18.833 -7.5 22.5s-11.833 5.5 -20.5 5.5c-11.333 0 -21.333 -3.66699 -30 -11s-14.334 -13 -17.001 -17l-26 22c5.33301 10.667 14.333 20.834 27 30.501
s29.667 14.5 51 14.5c19.333 0 35.166 -5 47.499 -15s18.5 -25.667 18.5 -47z" />
    <glyph glyph-name="uni1EC3" unicode="&#xea;&#x309;" horiz-adv-x="391" 
d="M351 18c-48.667 -18 -95 -26.999 -139 -26.999c-54 0 -98.5 16.167 -133.5 48.5s-52.5 74.166 -52.5 125.499c0 56.667 17.333 102.667 52 138c34 33.333 77.333 50 130 50c102.667 0 155 -64.333 157 -193h-277c2.66699 -36 15.5 -63.833 38.5 -83.5
s52.833 -29.5 89.5 -29.5c37.333 0 80 8.66699 128 26zM303 213.001c-3.33301 26 -14 47.167 -32 63.5s-41 24.5 -69 24.5c-26.667 0 -50.5 -8.16699 -71.5 -24.5s-33.833 -37.5 -38.5 -63.5h211zM290 385.001h-54l-41 71l-40 -71h-55l78 115h35zM398 559.001
c0 -11.333 -2.99805 -21.502 -8.99805 -30.502s-12.5 -17.5 -19.5 -25.5s-13.333 -15.833 -19 -23.5s-8.5 -15.834 -8.5 -24.501h-45c0 10.667 3 20.334 9 29.001s12.667 16.834 20 24.501s14 15.167 20 22.5s9 15 9 23c0 11.333 -2.5 18.833 -7.5 22.5
s-11.833 5.5 -20.5 5.5c-11.333 0 -21.333 -3.66699 -30 -11s-14.334 -13 -17.001 -17l-26 22c5.33301 10.667 14.333 20.834 27 30.501s29.667 14.5 51 14.5c19.333 0 35.166 -5 47.499 -15s18.5 -25.667 18.5 -47z" />
    <glyph glyph-name="uni1EC4" unicode="&#xca;&#x303;" horiz-adv-x="358" 
d="M333 0h-283v476h283v-54h-220v-144h196v-54h-196v-170h220v-54zM274 521h-54l-41 71l-40 -71h-55l78 115h35zM279 747c-0.666992 -23.333 -5.83398 -41.8311 -15.501 -55.498s-24.167 -20.5 -43.5 -20.5c-5.33301 0 -11.833 1.5 -19.5 4.5s-15.667 6.33301 -24 10
l-23.5 10c-7.33301 3 -13.333 4.5 -18 4.5c-5.33301 0 -8.66602 -2.5 -9.99902 -7.5s-2 -10.5 -2 -16.5h-44c0 20 4.83301 36.833 14.5 50.5s23.5 20.5 41.5 20.5c6 0 12.833 -1.33301 20.5 -4s15.167 -5.83398 22.5 -9.50098s14.5 -6.83398 21.5 -9.50098
s12.833 -4 17.5 -4c12.667 0 19 9 19 27h43z" />
    <glyph glyph-name="uni1EC5" unicode="&#xea;&#x303;" horiz-adv-x="391" 
d="M351 18c-48.667 -18 -95 -26.999 -139 -26.999c-54 0 -98.5 16.167 -133.5 48.5s-52.5 74.166 -52.5 125.499c0 56.667 17.333 102.667 52 138c34 33.333 77.333 50 130 50c102.667 0 155 -64.333 157 -193h-277c2.66699 -36 15.5 -63.833 38.5 -83.5
s52.833 -29.5 89.5 -29.5c37.333 0 80 8.66699 128 26zM303 213.001c-3.33301 26 -14 47.167 -32 63.5s-41 24.5 -69 24.5c-26.667 0 -50.5 -8.16699 -71.5 -24.5s-33.833 -37.5 -38.5 -63.5h211zM290 385.001h-54l-41 71l-40 -71h-55l78 115h35zM295 593.001
c-0.666992 -23.333 -5.83398 -41.8311 -15.501 -55.498s-24.167 -20.5 -43.5 -20.5c-5.33301 0 -11.833 1.5 -19.5 4.5s-15.667 6.33301 -24 10l-23.5 10c-7.33301 3 -13.333 4.5 -18 4.5c-5.33301 0 -8.66602 -2.5 -9.99902 -7.5s-2 -10.5 -2 -16.5h-44
c0 20 4.83301 36.833 14.5 50.5s23.5 20.5 41.5 20.5c6 0 12.833 -1.33301 20.5 -4s15.167 -5.83398 22.5 -9.50098s14.5 -6.83398 21.5 -9.50098s12.833 -4 17.5 -4c12.667 0 19 9 19 27h43z" />
    <glyph glyph-name="uni1EC6" unicode="&#xca;&#x323;" horiz-adv-x="358" 
d="M333 0h-283v476h283v-54h-220v-144h196v-54h-196v-170h220v-54zM226 -96c0 -13.333 -4.66699 -24.666 -14 -33.999s-20.333 -14 -33 -14s-23.667 4.66699 -33 14s-14 20.666 -14 33.999s4.66699 24.666 14 33.999s20.333 14 33 14s23.667 -4.66699 33 -14
s14 -20.666 14 -33.999zM274 521h-54l-41 71l-40 -71h-55l78 115h35z" />
    <glyph glyph-name="uni1EC7" unicode="&#xea;&#x323;" horiz-adv-x="391" 
d="M351 18c-48.667 -18 -95 -26.999 -139 -26.999c-54 0 -98.5 16.167 -133.5 48.5s-52.5 74.166 -52.5 125.499c0 56.667 17.333 102.667 52 138c34 33.333 77.333 50 130 50c102.667 0 155 -64.333 157 -193h-277c2.66699 -36 15.5 -63.833 38.5 -83.5
s52.833 -29.5 89.5 -29.5c37.333 0 80 8.66699 128 26zM303 213.001c-3.33301 26 -14 47.167 -32 63.5s-41 24.5 -69 24.5c-26.667 0 -50.5 -8.16699 -71.5 -24.5s-33.833 -37.5 -38.5 -63.5h211zM242 -95.999c0 -13.333 -4.66699 -24.666 -14 -33.999s-20.333 -14 -33 -14
s-23.667 4.66699 -33 14s-14 20.666 -14 33.999s4.66699 24.666 14 33.999s20.333 14 33 14s23.667 -4.66699 33 -14s14 -20.666 14 -33.999zM290 385.001h-54l-41 71l-40 -71h-55l78 115h35z" />
    <glyph glyph-name="uni1EC8" unicode="I&#x309;" horiz-adv-x="163" 
d="M113 0h-63v476h63v-476zM158 613c0 -11.333 -2.99805 -21.502 -8.99805 -30.502s-12.5 -17.5 -19.5 -25.5s-13.333 -15.833 -19 -23.5s-8.5 -15.834 -8.5 -24.501h-45c0 10.667 3 20.334 9 29.001s12.667 16.834 20 24.501s14 15.167 20 22.5s9 15 9 23
c0 11.333 -2.5 18.833 -7.5 22.5s-11.833 5.5 -20.5 5.5c-11.333 0 -21.333 -3.66699 -30 -11s-14.334 -13 -17.001 -17l-26 22c5.33301 10.667 14.333 20.834 27 30.501s29.667 14.5 51 14.5c19.333 0 35.166 -5 47.499 -15s18.5 -25.667 18.5 -47z" />
    <glyph glyph-name="uni1EC9" unicode="i&#x309;" horiz-adv-x="163" 
d="M159 477c0 -11.333 -2.99805 -21.502 -8.99805 -30.502s-12.5 -17.5 -19.5 -25.5s-13.333 -15.833 -19 -23.5s-8.5 -15.834 -8.5 -24.501h-45c0 10.667 3 20.334 9 29.001s12.667 16.834 20 24.501s14 15.167 20 22.5s9 15 9 23c0 11.333 -2.5 18.833 -7.5 22.5
s-11.833 5.5 -20.5 5.5c-11.333 0 -21.333 -3.66699 -30 -11s-14.334 -13 -17.001 -17l-26 22c5.33301 10.667 14.333 20.834 27 30.501s29.667 14.5 51 14.5c19.333 0 35.166 -5 47.499 -15s18.5 -25.667 18.5 -47zM113.002 -0.00195312h-63v340h63v-340z" />
    <glyph glyph-name="uni1ECA" unicode="I&#x323;" horiz-adv-x="163" 
d="M113 0h-63v476h63v-476zM130 -96c0 -13.333 -4.66699 -24.666 -14 -33.999s-20.333 -14 -33 -14s-23.667 4.66699 -33 14s-14 20.666 -14 33.999s4.66699 24.666 14 33.999s20.333 14 33 14s23.667 -4.66699 33 -14s14 -20.666 14 -33.999z" />
    <glyph glyph-name="uni1ECB" unicode="i&#x323;" horiz-adv-x="163" 
d="M113 0h-63v340h63v-340zM128 440c0 -13.333 -4.66699 -24.666 -14 -33.999s-20.666 -14 -33.999 -14s-24.666 4.66699 -33.999 14s-14 20.666 -14 33.999s4.66699 24.666 14 33.999s20.666 14 33.999 14s24.666 -4.66699 33.999 -14s14 -20.666 14 -33.999zM130 -96
c0 -13.333 -4.66699 -24.666 -14 -33.999s-20.333 -14 -33 -14s-23.667 4.66699 -33 14s-14 20.666 -14 33.999s4.66699 24.666 14 33.999s20.333 14 33 14s23.667 -4.66699 33 -14s14 -20.666 14 -33.999z" />
    <glyph glyph-name="uni1ECC" unicode="O&#x323;" horiz-adv-x="518" 
d="M430 238c0 54.667 -15.667 100.5 -47 137.5s-72.666 55.5 -123.999 55.5s-92.666 -18.5 -123.999 -55.5s-47 -82.833 -47 -137.5s15.667 -100.5 47 -137.5s72.666 -55.5 123.999 -55.5s92.666 18.5 123.999 55.5s47 82.833 47 137.5zM492 237
c0 -70 -21.667 -128.667 -65 -176s-99.333 -71 -168 -71s-124.667 23.667 -168 71s-65 106 -65 176s21.667 128.833 65 176.5s99.333 71.5 168 71.5s124.667 -23.833 168 -71.5s65 -106.5 65 -176.5zM306 -96c0 -13.333 -4.66699 -24.666 -14 -33.999s-20.333 -14 -33 -14
s-23.667 4.66699 -33 14s-14 20.666 -14 33.999s4.66699 24.666 14 33.999s20.333 14 33 14s23.667 -4.66699 33 -14s14 -20.666 14 -33.999z" />
    <glyph glyph-name="uni1ECD" unicode="o&#x323;" horiz-adv-x="412" 
d="M386 172c0 -50.667 -17 -93.334 -51 -128.001s-77 -52 -129 -52s-95 17.333 -129 52s-51 77.334 -51 128.001s17 93.5 51 128.5s77 52.5 129 52.5s95 -17.5 129 -52.5s51 -77.833 51 -128.5zM324 172c0 36 -11 66.167 -33 90.5s-50.333 36.5 -85 36.5
s-63 -12.167 -85 -36.5s-33 -54.5 -33 -90.5s11 -66.167 33 -90.5s50.333 -36.5 85 -36.5s63 12.167 85 36.5s33 54.5 33 90.5zM253 -96c0 -13.333 -4.66699 -24.666 -14 -33.999s-20.333 -14 -33 -14s-23.667 4.66699 -33 14s-14 20.666 -14 33.999
s4.66699 24.666 14 33.999s20.333 14 33 14s23.667 -4.66699 33 -14s14 -20.666 14 -33.999z" />
    <glyph glyph-name="uni1ECE" unicode="O&#x309;" horiz-adv-x="518" 
d="M430 238c0 54.667 -15.667 100.5 -47 137.5s-72.666 55.5 -123.999 55.5s-92.666 -18.5 -123.999 -55.5s-47 -82.833 -47 -137.5s15.667 -100.5 47 -137.5s72.666 -55.5 123.999 -55.5s92.666 18.5 123.999 55.5s47 82.833 47 137.5zM492 237
c0 -70 -21.667 -128.667 -65 -176s-99.333 -71 -168 -71s-124.667 23.667 -168 71s-65 106 -65 176s21.667 128.833 65 176.5s99.333 71.5 168 71.5s124.667 -23.833 168 -71.5s65 -106.5 65 -176.5zM331 613c0 -11.333 -2.99805 -21.502 -8.99805 -30.502
s-12.5 -17.5 -19.5 -25.5s-13.333 -15.833 -19 -23.5s-8.5 -15.834 -8.5 -24.501h-45c0 10.667 3 20.334 9 29.001s12.667 16.834 20 24.501s14 15.167 20 22.5s9 15 9 23c0 11.333 -2.5 18.833 -7.5 22.5s-11.833 5.5 -20.5 5.5c-11.333 0 -21.333 -3.66699 -30 -11
s-14.334 -13 -17.001 -17l-26 22c5.33301 10.667 14.333 20.834 27 30.501s29.667 14.5 51 14.5c19.333 0 35.166 -5 47.499 -15s18.5 -25.667 18.5 -47z" />
    <glyph glyph-name="uni1ECF" unicode="o&#x309;" horiz-adv-x="412" 
d="M386 172c0 -50.667 -17 -93.334 -51 -128.001s-77 -52 -129 -52s-95 17.333 -129 52s-51 77.334 -51 128.001s17 93.5 51 128.5s77 52.5 129 52.5s95 -17.5 129 -52.5s51 -77.833 51 -128.5zM324 172c0 36 -11 66.167 -33 90.5s-50.333 36.5 -85 36.5
s-63 -12.167 -85 -36.5s-33 -54.5 -33 -90.5s11 -66.167 33 -90.5s50.333 -36.5 85 -36.5s63 12.167 85 36.5s33 54.5 33 90.5zM278 477c0 -11.333 -2.99805 -21.502 -8.99805 -30.502s-12.5 -17.5 -19.5 -25.5s-13.333 -15.833 -19 -23.5s-8.5 -15.834 -8.5 -24.501h-45
c0 10.667 3 20.334 9 29.001s12.667 16.834 20 24.501s14 15.167 20 22.5s9 15 9 23c0 11.333 -2.5 18.833 -7.5 22.5s-11.833 5.5 -20.5 5.5c-11.333 0 -21.333 -3.66699 -30 -11s-14.334 -13 -17.001 -17l-26 22c5.33301 10.667 14.333 20.834 27 30.501
s29.667 14.5 51 14.5c19.333 0 35.166 -5 47.499 -15s18.5 -25.667 18.5 -47z" />
    <glyph glyph-name="uni1ED0" unicode="&#xd4;&#x301;" horiz-adv-x="518" 
d="M430 238c0 54.667 -15.667 100.5 -47 137.5s-72.666 55.5 -123.999 55.5s-92.666 -18.5 -123.999 -55.5s-47 -82.833 -47 -137.5s15.667 -100.5 47 -137.5s72.666 -55.5 123.999 -55.5s92.666 18.5 123.999 55.5s47 82.833 47 137.5zM492 237
c0 -70 -21.667 -128.667 -65 -176s-99.333 -71 -168 -71s-124.667 23.667 -168 71s-65 106 -65 176s21.667 128.833 65 176.5s99.333 71.5 168 71.5s124.667 -23.833 168 -71.5s65 -106.5 65 -176.5zM354 521h-54l-41 71l-40 -71h-55l78 115h35zM435 706l57 -18l-84 -97h-48
z" />
    <glyph glyph-name="uni1ED1" unicode="&#xf4;&#x301;" horiz-adv-x="432" 
d="M396 172c0 -50.667 -17 -93.334 -51 -128.001s-77 -52 -129 -52s-95 17.333 -129 52s-51 77.334 -51 128.001s17 93.5 51 128.5s77 52.5 129 52.5s95 -17.5 129 -52.5s51 -77.833 51 -128.5zM334 172c0 36 -11 66.167 -33 90.5s-50.333 36.5 -85 36.5
s-63 -12.167 -85 -36.5s-33 -54.5 -33 -90.5s11 -66.167 33 -90.5s50.333 -36.5 85 -36.5s63 12.167 85 36.5s33 54.5 33 90.5zM311 385h-54l-41 71l-40 -71h-55l78 115h35zM372 586l57 -18l-84 -97h-48z" />
    <glyph glyph-name="uni1ED2" unicode="&#xd4;&#x300;" horiz-adv-x="518" 
d="M430 238c0 54.667 -15.667 100.5 -47 137.5s-72.666 55.5 -123.999 55.5s-92.666 -18.5 -123.999 -55.5s-47 -82.833 -47 -137.5s15.667 -100.5 47 -137.5s72.666 -55.5 123.999 -55.5s92.666 18.5 123.999 55.5s47 82.833 47 137.5zM492 237
c0 -70 -21.667 -128.667 -65 -176s-99.333 -71 -168 -71s-124.667 23.667 -168 71s-65 106 -65 176s21.667 128.833 65 176.5s99.333 71.5 168 71.5s124.667 -23.833 168 -71.5s65 -106.5 65 -176.5zM354 521h-54l-41 71l-40 -71h-55l78 115h35zM450 591h-48l-84 97l57 18z
" />
    <glyph glyph-name="uni1ED3" unicode="&#xf4;&#x300;" horiz-adv-x="432" 
d="M396 172c0 -50.667 -17 -93.334 -51 -128.001s-77 -52 -129 -52s-95 17.333 -129 52s-51 77.334 -51 128.001s17 93.5 51 128.5s77 52.5 129 52.5s95 -17.5 129 -52.5s51 -77.833 51 -128.5zM334 172c0 36 -11 66.167 -33 90.5s-50.333 36.5 -85 36.5
s-63 -12.167 -85 -36.5s-33 -54.5 -33 -90.5s11 -66.167 33 -90.5s50.333 -36.5 85 -36.5s63 12.167 85 36.5s33 54.5 33 90.5zM311 385h-54l-41 71l-40 -71h-55l78 115h35zM396 471h-48l-84 97l57 18z" />
    <glyph glyph-name="uni1ED4" unicode="&#xd4;&#x309;" horiz-adv-x="518" 
d="M430 238c0 54.667 -15.667 100.5 -47 137.5s-72.666 55.5 -123.999 55.5s-92.666 -18.5 -123.999 -55.5s-47 -82.833 -47 -137.5s15.667 -100.5 47 -137.5s72.666 -55.5 123.999 -55.5s92.666 18.5 123.999 55.5s47 82.833 47 137.5zM492 237
c0 -70 -21.667 -128.667 -65 -176s-99.333 -71 -168 -71s-124.667 23.667 -168 71s-65 106 -65 176s21.667 128.833 65 176.5s99.333 71.5 168 71.5s124.667 -23.833 168 -71.5s65 -106.5 65 -176.5zM354 521h-54l-41 71l-40 -71h-55l78 115h35zM458 701
c0 -11.333 -2.99805 -21.502 -8.99805 -30.502s-12.5 -17.5 -19.5 -25.5s-13.333 -15.833 -19 -23.5s-8.5 -15.834 -8.5 -24.501h-45c0 10.667 3 20.334 9 29.001s12.667 16.834 20 24.501s14 15.167 20 22.5s9 15 9 23c0 11.333 -2.5 18.833 -7.5 22.5
s-11.833 5.5 -20.5 5.5c-11.333 0 -21.333 -3.66699 -30 -11s-14.334 -13 -17.001 -17l-26 22c5.33301 10.667 14.333 20.834 27 30.501s29.667 14.5 51 14.5c19.333 0 35.166 -5 47.499 -15s18.5 -25.667 18.5 -47z" />
    <glyph glyph-name="uni1ED5" unicode="&#xf4;&#x309;" horiz-adv-x="432" 
d="M396 172c0 -50.667 -17 -93.334 -51 -128.001s-77 -52 -129 -52s-95 17.333 -129 52s-51 77.334 -51 128.001s17 93.5 51 128.5s77 52.5 129 52.5s95 -17.5 129 -52.5s51 -77.833 51 -128.5zM334 172c0 36 -11 66.167 -33 90.5s-50.333 36.5 -85 36.5
s-63 -12.167 -85 -36.5s-33 -54.5 -33 -90.5s11 -66.167 33 -90.5s50.333 -36.5 85 -36.5s63 12.167 85 36.5s33 54.5 33 90.5zM311 385h-54l-41 71l-40 -71h-55l78 115h35zM412 571c0 -11.333 -2.99805 -21.502 -8.99805 -30.502s-12.5 -17.5 -19.5 -25.5
s-13.333 -15.833 -19 -23.5s-8.5 -15.834 -8.5 -24.501h-45c0 10.667 3 20.334 9 29.001s12.667 16.834 20 24.501s14 15.167 20 22.5s9 15 9 23c0 11.333 -2.5 18.833 -7.5 22.5s-11.833 5.5 -20.5 5.5c-11.333 0 -21.333 -3.66699 -30 -11s-14.334 -13 -17.001 -17l-26 22
c5.33301 10.667 14.333 20.834 27 30.501s29.667 14.5 51 14.5c19.333 0 35.166 -5 47.499 -15s18.5 -25.667 18.5 -47z" />
    <glyph glyph-name="uni1ED6" unicode="&#xd4;&#x303;" horiz-adv-x="518" 
d="M430 238c0 54.667 -15.667 100.5 -47 137.5s-72.666 55.5 -123.999 55.5s-92.666 -18.5 -123.999 -55.5s-47 -82.833 -47 -137.5s15.667 -100.5 47 -137.5s72.666 -55.5 123.999 -55.5s92.666 18.5 123.999 55.5s47 82.833 47 137.5zM492 237
c0 -70 -21.667 -128.667 -65 -176s-99.333 -71 -168 -71s-124.667 23.667 -168 71s-65 106 -65 176s21.667 128.833 65 176.5s99.333 71.5 168 71.5s124.667 -23.833 168 -71.5s65 -106.5 65 -176.5zM354 521h-54l-41 71l-40 -71h-55l78 115h35zM359 748
c-0.666992 -23.333 -5.83398 -41.8311 -15.501 -55.498s-24.167 -20.5 -43.5 -20.5c-5.33301 0 -11.833 1.5 -19.5 4.5s-15.667 6.33301 -24 10l-23.5 10c-7.33301 3 -13.333 4.5 -18 4.5c-5.33301 0 -8.66602 -2.5 -9.99902 -7.5s-2 -10.5 -2 -16.5h-44
c0 20 4.83301 36.833 14.5 50.5s23.5 20.5 41.5 20.5c6 0 12.833 -1.33301 20.5 -4s15.167 -5.83398 22.5 -9.50098s14.5 -6.83398 21.5 -9.50098s12.833 -4 17.5 -4c12.667 0 19 9 19 27h43z" />
    <glyph glyph-name="uni1ED7" unicode="&#xf4;&#x303;" horiz-adv-x="432" 
d="M396 172c0 -50.667 -17 -93.334 -51 -128.001s-77 -52 -129 -52s-95 17.333 -129 52s-51 77.334 -51 128.001s17 93.5 51 128.5s77 52.5 129 52.5s95 -17.5 129 -52.5s51 -77.833 51 -128.5zM334 172c0 36 -11 66.167 -33 90.5s-50.333 36.5 -85 36.5
s-63 -12.167 -85 -36.5s-33 -54.5 -33 -90.5s11 -66.167 33 -90.5s50.333 -36.5 85 -36.5s63 12.167 85 36.5s33 54.5 33 90.5zM311 385h-54l-41 71l-40 -71h-55l78 115h35zM316 600c-0.666992 -23.333 -5.83398 -41.8311 -15.501 -55.498s-24.167 -20.5 -43.5 -20.5
c-5.33301 0 -11.833 1.5 -19.5 4.5s-15.667 6.33301 -24 10l-23.5 10c-7.33301 3 -13.333 4.5 -18 4.5c-5.33301 0 -8.66602 -2.5 -9.99902 -7.5s-2 -10.5 -2 -16.5h-44c0 20 4.83301 36.833 14.5 50.5s23.5 20.5 41.5 20.5c6 0 12.833 -1.33301 20.5 -4
s15.167 -5.83398 22.5 -9.50098s14.5 -6.83398 21.5 -9.50098s12.833 -4 17.5 -4c12.667 0 19 9 19 27h43z" />
    <glyph glyph-name="uni1ED8" unicode="&#xd4;&#x323;" horiz-adv-x="518" 
d="M430 238c0 54.667 -15.667 100.5 -47 137.5s-72.666 55.5 -123.999 55.5s-92.666 -18.5 -123.999 -55.5s-47 -82.833 -47 -137.5s15.667 -100.5 47 -137.5s72.666 -55.5 123.999 -55.5s92.666 18.5 123.999 55.5s47 82.833 47 137.5zM492 237
c0 -70 -21.667 -128.667 -65 -176s-99.333 -71 -168 -71s-124.667 23.667 -168 71s-65 106 -65 176s21.667 128.833 65 176.5s99.333 71.5 168 71.5s124.667 -23.833 168 -71.5s65 -106.5 65 -176.5zM306 -96c0 -13.333 -4.66699 -24.666 -14 -33.999s-20.333 -14 -33 -14
s-23.667 4.66699 -33 14s-14 20.666 -14 33.999s4.66699 24.666 14 33.999s20.333 14 33 14s23.667 -4.66699 33 -14s14 -20.666 14 -33.999zM354 521h-54l-41 71l-40 -71h-55l78 115h35z" />
    <glyph glyph-name="uni1ED9" unicode="&#xf4;&#x323;" horiz-adv-x="412" 
d="M386 172c0 -50.667 -17 -93.334 -51 -128.001s-77 -52 -129 -52s-95 17.333 -129 52s-51 77.334 -51 128.001s17 93.5 51 128.5s77 52.5 129 52.5s95 -17.5 129 -52.5s51 -77.833 51 -128.5zM324 172c0 36 -11 66.167 -33 90.5s-50.333 36.5 -85 36.5
s-63 -12.167 -85 -36.5s-33 -54.5 -33 -90.5s11 -66.167 33 -90.5s50.333 -36.5 85 -36.5s63 12.167 85 36.5s33 54.5 33 90.5zM253 -96c0 -13.333 -4.66699 -24.666 -14 -33.999s-20.333 -14 -33 -14s-23.667 4.66699 -33 14s-14 20.666 -14 33.999
s4.66699 24.666 14 33.999s20.333 14 33 14s23.667 -4.66699 33 -14s14 -20.666 14 -33.999zM301 385h-54l-41 71l-40 -71h-55l78 115h35z" />
    <glyph glyph-name="uni1EDA" unicode="&#x1a0;&#x301;" horiz-adv-x="518" 
d="M492 237c0 -70 -21.667 -128.667 -65 -176s-99.333 -71 -168 -71s-124.667 23.667 -168 71s-65 106 -65 176s21.667 128.833 65 176.5s99.333 71.5 168 71.5c48 0 90.667 -12.333 128 -37c17.333 22 26 48.333 26 79h54c0 -38.667 -14.333 -75.667 -43 -111
c45.333 -47.333 68 -107 68 -179zM430 238c0 54.667 -15.667 100.5 -47 137.5s-72.666 55.5 -123.999 55.5s-92.666 -18.5 -123.999 -55.5s-47 -82.833 -47 -137.5s15.667 -100.5 47 -137.5s72.666 -55.5 123.999 -55.5s92.666 18.5 123.999 55.5s47 82.833 47 137.5z
M268 636l57 -18l-84 -97h-48z" />
    <glyph glyph-name="uni1EDB" unicode="&#x1a1;&#x301;" horiz-adv-x="432" 
d="M386 172c0 -50.667 -17 -93.334 -51 -128.001s-77 -52 -129 -52s-95 17.333 -129 52s-51 77.334 -51 128.001s17 93.5 51 128.5s77 52.5 129 52.5c46.667 0 86.667 -15 120 -45c13.333 22 20 45.667 20 71h54c0 -36.667 -14 -73 -42 -109c18.667 -29.333 28 -62 28 -98z
M324 172c0 36 -11 66.167 -33 90.5s-50.333 36.5 -85 36.5s-63 -12.167 -85 -36.5s-33 -54.5 -33 -90.5s11 -66.167 33 -90.5s50.333 -36.5 85 -36.5s63 12.167 85 36.5s33 54.5 33 90.5zM225 500l57 -18l-84 -97h-48z" />
    <glyph glyph-name="uni1EDC" unicode="&#x1a0;&#x300;" horiz-adv-x="518" 
d="M492 237c0 -70 -21.667 -128.667 -65 -176s-99.333 -71 -168 -71s-124.667 23.667 -168 71s-65 106 -65 176s21.667 128.833 65 176.5s99.333 71.5 168 71.5c48 0 90.667 -12.333 128 -37c17.333 22 26 48.333 26 79h54c0 -38.667 -14.333 -75.667 -43 -111
c45.333 -47.333 68 -107 68 -179zM430 238c0 54.667 -15.667 100.5 -47 137.5s-72.666 55.5 -123.999 55.5s-92.666 -18.5 -123.999 -55.5s-47 -82.833 -47 -137.5s15.667 -100.5 47 -137.5s72.666 -55.5 123.999 -55.5s92.666 18.5 123.999 55.5s47 82.833 47 137.5z
M325 521h-48l-84 97l57 18z" />
    <glyph glyph-name="uni1EDD" unicode="&#x1a1;&#x300;" horiz-adv-x="432" 
d="M386 172c0 -50.667 -17 -93.334 -51 -128.001s-77 -52 -129 -52s-95 17.333 -129 52s-51 77.334 -51 128.001s17 93.5 51 128.5s77 52.5 129 52.5c46.667 0 86.667 -15 120 -45c13.333 22 20 45.667 20 71h54c0 -36.667 -14 -73 -42 -109c18.667 -29.333 28 -62 28 -98z
M324 172c0 36 -11 66.167 -33 90.5s-50.333 36.5 -85 36.5s-63 -12.167 -85 -36.5s-33 -54.5 -33 -90.5s11 -66.167 33 -90.5s50.333 -36.5 85 -36.5s63 12.167 85 36.5s33 54.5 33 90.5zM282 385h-48l-84 97l57 18z" />
    <glyph glyph-name="uni1EDE" unicode="&#x1a0;&#x309;" horiz-adv-x="518" 
d="M492 237c0 -70 -21.667 -128.667 -65 -176s-99.333 -71 -168 -71s-124.667 23.667 -168 71s-65 106 -65 176s21.667 128.833 65 176.5s99.333 71.5 168 71.5c48 0 90.667 -12.333 128 -37c17.333 22 26 48.333 26 79h54c0 -38.667 -14.333 -75.667 -43 -111
c45.333 -47.333 68 -107 68 -179zM430 238c0 54.667 -15.667 100.5 -47 137.5s-72.666 55.5 -123.999 55.5s-92.666 -18.5 -123.999 -55.5s-47 -82.833 -47 -137.5s15.667 -100.5 47 -137.5s72.666 -55.5 123.999 -55.5s92.666 18.5 123.999 55.5s47 82.833 47 137.5z
M331 617c0 -11.333 -2.99805 -21.502 -8.99805 -30.502s-12.5 -17.5 -19.5 -25.5s-13.333 -15.833 -19 -23.5s-8.5 -15.834 -8.5 -24.501h-45c0 10.667 3 20.334 9 29.001s12.667 16.834 20 24.501s14 15.167 20 22.5s9 15 9 23c0 11.333 -2.5 18.833 -7.5 22.5
s-11.833 5.5 -20.5 5.5c-11.333 0 -21.333 -3.66699 -30 -11s-14.334 -13 -17.001 -17l-26 22c5.33301 10.667 14.333 20.834 27 30.501s29.667 14.5 51 14.5c19.333 0 35.166 -5 47.499 -15s18.5 -25.667 18.5 -47z" />
    <glyph glyph-name="uni1EDF" unicode="&#x1a1;&#x309;" horiz-adv-x="432" 
d="M386 172c0 -50.667 -17 -93.334 -51 -128.001s-77 -52 -129 -52s-95 17.333 -129 52s-51 77.334 -51 128.001s17 93.5 51 128.5s77 52.5 129 52.5c46.667 0 86.667 -15 120 -45c13.333 22 20 45.667 20 71h54c0 -36.667 -14 -73 -42 -109c18.667 -29.333 28 -62 28 -98z
M324 172c0 36 -11 66.167 -33 90.5s-50.333 36.5 -85 36.5s-63 -12.167 -85 -36.5s-33 -54.5 -33 -90.5s11 -66.167 33 -90.5s50.333 -36.5 85 -36.5s63 12.167 85 36.5s33 54.5 33 90.5zM288 481c0 -11.333 -2.99805 -21.502 -8.99805 -30.502s-12.5 -17.5 -19.5 -25.5
s-13.333 -15.833 -19 -23.5s-8.5 -15.834 -8.5 -24.501h-45c0 10.667 3 20.334 9 29.001s12.667 16.834 20 24.501s14 15.167 20 22.5s9 15 9 23c0 11.333 -2.5 18.833 -7.5 22.5s-11.833 5.5 -20.5 5.5c-11.333 0 -21.333 -3.66699 -30 -11s-14.334 -13 -17.001 -17l-26 22
c5.33301 10.667 14.333 20.834 27 30.501s29.667 14.5 51 14.5c19.333 0 35.166 -5 47.499 -15s18.5 -25.667 18.5 -47z" />
    <glyph glyph-name="uni1EE0" unicode="&#x1a0;&#x303;" horiz-adv-x="518" 
d="M492 237c0 -70 -21.667 -128.667 -65 -176s-99.333 -71 -168 -71s-124.667 23.667 -168 71s-65 106 -65 176s21.667 128.833 65 176.5s99.333 71.5 168 71.5c48 0 90.667 -12.333 128 -37c17.333 22 26 48.333 26 79h54c0 -38.667 -14.333 -75.667 -43 -111
c45.333 -47.333 68 -107 68 -179zM430 238c0 54.667 -15.667 100.5 -47 137.5s-72.666 55.5 -123.999 55.5s-92.666 -18.5 -123.999 -55.5s-47 -82.833 -47 -137.5s15.667 -100.5 47 -137.5s72.666 -55.5 123.999 -55.5s92.666 18.5 123.999 55.5s47 82.833 47 137.5z
M359 592c-0.666992 -23.333 -5.83398 -41.8311 -15.501 -55.498s-24.167 -20.5 -43.5 -20.5c-5.33301 0 -11.833 1.5 -19.5 4.5s-15.667 6.33301 -24 10l-23.5 10c-7.33301 3 -13.333 4.5 -18 4.5c-5.33301 0 -8.66602 -2.5 -9.99902 -7.5s-2 -10.5 -2 -16.5h-44
c0 20 4.83301 36.833 14.5 50.5s23.5 20.5 41.5 20.5c6 0 12.833 -1.33301 20.5 -4s15.167 -5.83398 22.5 -9.50098s14.5 -6.83398 21.5 -9.50098s12.833 -4 17.5 -4c12.667 0 19 9 19 27h43z" />
    <glyph glyph-name="uni1EE1" unicode="&#x1a1;&#x303;" horiz-adv-x="432" 
d="M386 172c0 -50.667 -17 -93.334 -51 -128.001s-77 -52 -129 -52s-95 17.333 -129 52s-51 77.334 -51 128.001s17 93.5 51 128.5s77 52.5 129 52.5c46.667 0 86.667 -15 120 -45c13.333 22 20 45.667 20 71h54c0 -36.667 -14 -73 -42 -109c18.667 -29.333 28 -62 28 -98z
M324 172c0 36 -11 66.167 -33 90.5s-50.333 36.5 -85 36.5s-63 -12.167 -85 -36.5s-33 -54.5 -33 -90.5s11 -66.167 33 -90.5s50.333 -36.5 85 -36.5s63 12.167 85 36.5s33 54.5 33 90.5zM316 456c-0.666992 -23.333 -5.83398 -41.8311 -15.501 -55.498
s-24.167 -20.5 -43.5 -20.5c-5.33301 0 -11.833 1.5 -19.5 4.5s-15.667 6.33301 -24 10l-23.5 10c-7.33301 3 -13.333 4.5 -18 4.5c-5.33301 0 -8.66602 -2.5 -9.99902 -7.5s-2 -10.5 -2 -16.5h-44c0 20 4.83301 36.833 14.5 50.5s23.5 20.5 41.5 20.5
c6 0 12.833 -1.33301 20.5 -4s15.167 -5.83398 22.5 -9.50098s14.5 -6.83398 21.5 -9.50098s12.833 -4 17.5 -4c12.667 0 19 9 19 27h43z" />
    <glyph glyph-name="uni1EE2" unicode="&#x1a0;&#x323;" horiz-adv-x="518" 
d="M492 237c0 -70 -21.667 -128.667 -65 -176s-99.333 -71 -168 -71s-124.667 23.667 -168 71s-65 106 -65 176s21.667 128.833 65 176.5s99.333 71.5 168 71.5c48 0 90.667 -12.333 128 -37c17.333 22 26 48.333 26 79h54c0 -38.667 -14.333 -75.667 -43 -111
c45.333 -47.333 68 -107 68 -179zM430 238c0 54.667 -15.667 100.5 -47 137.5s-72.666 55.5 -123.999 55.5s-92.666 -18.5 -123.999 -55.5s-47 -82.833 -47 -137.5s15.667 -100.5 47 -137.5s72.666 -55.5 123.999 -55.5s92.666 18.5 123.999 55.5s47 82.833 47 137.5z
M306 -96c0 -13.333 -4.66699 -24.666 -14 -33.999s-20.333 -14 -33 -14s-23.667 4.66699 -33 14s-14 20.666 -14 33.999s4.66699 24.666 14 33.999s20.333 14 33 14s23.667 -4.66699 33 -14s14 -20.666 14 -33.999z" />
    <glyph glyph-name="uni1EE3" unicode="&#x1a1;&#x323;" horiz-adv-x="432" 
d="M386 172c0 -50.667 -17 -93.334 -51 -128.001s-77 -52 -129 -52s-95 17.333 -129 52s-51 77.334 -51 128.001s17 93.5 51 128.5s77 52.5 129 52.5c46.667 0 86.667 -15 120 -45c13.333 22 20 45.667 20 71h54c0 -36.667 -14 -73 -42 -109c18.667 -29.333 28 -62 28 -98z
M324 172c0 36 -11 66.167 -33 90.5s-50.333 36.5 -85 36.5s-63 -12.167 -85 -36.5s-33 -54.5 -33 -90.5s11 -66.167 33 -90.5s50.333 -36.5 85 -36.5s63 12.167 85 36.5s33 54.5 33 90.5zM263 -96c0 -13.333 -4.66699 -24.666 -14 -33.999s-20.333 -14 -33 -14
s-23.667 4.66699 -33 14s-14 20.666 -14 33.999s4.66699 24.666 14 33.999s20.333 14 33 14s23.667 -4.66699 33 -14s14 -20.666 14 -33.999z" />
    <glyph glyph-name="uni1EE4" unicode="U&#x323;" horiz-adv-x="482" 
d="M432 203c0 -141.333 -63.667 -212 -191 -212s-191 70.667 -191 212v273h64v-273c0 -105.333 42.333 -158 127 -158s127 52.667 127 158v273h64v-273zM288 -96c0 -13.333 -4.66699 -24.666 -14 -33.999s-20.333 -14 -33 -14s-23.667 4.66699 -33 14s-14 20.666 -14 33.999
s4.66699 24.666 14 33.999s20.333 14 33 14s23.667 -4.66699 33 -14s14 -20.666 14 -33.999z" />
    <glyph glyph-name="uni1EE5" unicode="u&#x323;" horiz-adv-x="418" 
d="M389 4l-61 -12c-6.66699 16 -12.667 35.333 -18 58c-40 -39.333 -79.667 -59 -119 -59c-94 0 -141 54.333 -141 163v186h63v-180c0 -75.333 28.667 -113 86 -113c24 0 47.667 9.16699 71 27.5s35 39.833 35 64.5v201h63v-249c0 -22.667 7 -51.667 21 -87zM256 -96
c0 -13.333 -4.66699 -24.666 -14 -33.999s-20.333 -14 -33 -14s-23.667 4.66699 -33 14s-14 20.666 -14 33.999s4.66699 24.666 14 33.999s20.333 14 33 14s23.667 -4.66699 33 -14s14 -20.666 14 -33.999z" />
    <glyph glyph-name="uni1EE6" unicode="U&#x309;" horiz-adv-x="482" 
d="M432 203c0 -141.333 -63.667 -212 -191 -212s-191 70.667 -191 212v273h64v-273c0 -105.333 42.333 -158 127 -158s127 52.667 127 158v273h64v-273zM313 613c0 -11.333 -2.99805 -21.502 -8.99805 -30.502s-12.5 -17.5 -19.5 -25.5s-13.333 -15.833 -19 -23.5
s-8.5 -15.834 -8.5 -24.501h-45c0 10.667 3 20.334 9 29.001s12.667 16.834 20 24.501s14 15.167 20 22.5s9 15 9 23c0 11.333 -2.5 18.833 -7.5 22.5s-11.833 5.5 -20.5 5.5c-11.333 0 -21.333 -3.66699 -30 -11s-14.334 -13 -17.001 -17l-26 22
c5.33301 10.667 14.333 20.834 27 30.501s29.667 14.5 51 14.5c19.333 0 35.166 -5 47.499 -15s18.5 -25.667 18.5 -47z" />
    <glyph glyph-name="uni1EE7" unicode="u&#x309;" horiz-adv-x="418" 
d="M389 4l-61 -12c-6.66699 16 -12.667 35.333 -18 58c-40 -39.333 -79.667 -59 -119 -59c-94 0 -141 54.333 -141 163v186h63v-180c0 -75.333 28.667 -113 86 -113c24 0 47.667 9.16699 71 27.5s35 39.833 35 64.5v201h63v-249c0 -22.667 7 -51.667 21 -87zM281 477
c0 -11.333 -2.99805 -21.502 -8.99805 -30.502s-12.5 -17.5 -19.5 -25.5s-13.333 -15.833 -19 -23.5s-8.5 -15.834 -8.5 -24.501h-45c0 10.667 3 20.334 9 29.001s12.667 16.834 20 24.501s14 15.167 20 22.5s9 15 9 23c0 11.333 -2.5 18.833 -7.5 22.5
s-11.833 5.5 -20.5 5.5c-11.333 0 -21.333 -3.66699 -30 -11s-14.334 -13 -17.001 -17l-26 22c5.33301 10.667 14.333 20.834 27 30.501s29.667 14.5 51 14.5c19.333 0 35.166 -5 47.499 -15s18.5 -25.667 18.5 -47z" />
    <glyph glyph-name="uni1EE8" unicode="&#x1af;&#x301;" horiz-adv-x="482" 
d="M432 203c0 -141.333 -63.667 -212 -191 -212s-191 70.667 -191 212v273h64v-273c0 -105.333 42.333 -158 127 -158s127 52.667 127 158v273h64v-40c14.667 8 26.5 20.833 35.5 38.5s13.5 35.167 13.5 52.5h54c-2 -31.333 -12.833 -61.5 -32.5 -90.5
s-43.167 -48.5 -70.5 -58.5v-175zM250 636l57 -18l-84 -97h-48z" />
    <glyph glyph-name="uni1EE9" unicode="&#x1b0;&#x301;" horiz-adv-x="414" 
d="M386 4l-61 -11.9971c-6 12.667 -11 28.667 -15 48c-42 -32.667 -82.667 -49 -122 -49c-94 0 -141 54.333 -141 163v186h63v-180c0 -75.333 28.667 -113 86 -113c24 0 47.667 9.16699 71 27.5s35 39.833 35 64.5v201h63v-61c13.333 7.33301 25.166 20.166 35.499 38.499
s15.5 36.166 15.5 53.499h54c0 -26 -9.66699 -54 -29 -84c-21.333 -32.667 -46.666 -54.334 -75.999 -65.001v-131c0 -22.667 7 -51.667 21 -87zM216 500.003l57 -18l-84 -97h-48z" />
    <glyph glyph-name="uni1EEA" unicode="&#x1af;&#x300;" horiz-adv-x="482" 
d="M432 203c0 -141.333 -63.667 -212 -191 -212s-191 70.667 -191 212v273h64v-273c0 -105.333 42.333 -158 127 -158s127 52.667 127 158v273h64v-40c14.667 8 26.5 20.833 35.5 38.5s13.5 35.167 13.5 52.5h54c-2 -31.333 -12.833 -61.5 -32.5 -90.5
s-43.167 -48.5 -70.5 -58.5v-175zM307 521h-48l-84 97l57 18z" />
    <glyph glyph-name="uni1EEB" unicode="&#x1b0;&#x300;" horiz-adv-x="414" 
d="M386 4l-61 -11.9971c-6 12.667 -11 28.667 -15 48c-42 -32.667 -82.667 -49 -122 -49c-94 0 -141 54.333 -141 163v186h63v-180c0 -75.333 28.667 -113 86 -113c24 0 47.667 9.16699 71 27.5s35 39.833 35 64.5v201h63v-61c13.333 7.33301 25.166 20.166 35.499 38.499
s15.5 36.166 15.5 53.499h54c0 -26 -9.66699 -54 -29 -84c-21.333 -32.667 -46.666 -54.334 -75.999 -65.001v-131c0 -22.667 7 -51.667 21 -87zM273 385.003h-48l-84 97l57 18z" />
    <glyph glyph-name="uni1EEC" unicode="&#x1af;&#x309;" horiz-adv-x="482" 
d="M432 203c0 -141.333 -63.667 -212 -191 -212s-191 70.667 -191 212v273h64v-273c0 -105.333 42.333 -158 127 -158s127 52.667 127 158v273h64v-40c14.667 8 26.5 20.833 35.5 38.5s13.5 35.167 13.5 52.5h54c-2 -31.333 -12.833 -61.5 -32.5 -90.5
s-43.167 -48.5 -70.5 -58.5v-175zM313 613c0 -11.333 -2.99805 -21.502 -8.99805 -30.502s-12.5 -17.5 -19.5 -25.5s-13.333 -15.833 -19 -23.5s-8.5 -15.834 -8.5 -24.501h-45c0 10.667 3 20.334 9 29.001s12.667 16.834 20 24.501s14 15.167 20 22.5s9 15 9 23
c0 11.333 -2.5 18.833 -7.5 22.5s-11.833 5.5 -20.5 5.5c-11.333 0 -21.333 -3.66699 -30 -11s-14.334 -13 -17.001 -17l-26 22c5.33301 10.667 14.333 20.834 27 30.501s29.667 14.5 51 14.5c19.333 0 35.166 -5 47.499 -15s18.5 -25.667 18.5 -47z" />
    <glyph glyph-name="uni1EED" unicode="&#x1b0;&#x309;" horiz-adv-x="414" 
d="M386 4l-61 -11.9971c-6 12.667 -11 28.667 -15 48c-42 -32.667 -82.667 -49 -122 -49c-94 0 -141 54.333 -141 163v186h63v-180c0 -75.333 28.667 -113 86 -113c24 0 47.667 9.16699 71 27.5s35 39.833 35 64.5v201h63v-61c13.333 7.33301 25.166 20.166 35.499 38.499
s15.5 36.166 15.5 53.499h54c0 -26 -9.66699 -54 -29 -84c-21.333 -32.667 -46.666 -54.334 -75.999 -65.001v-131c0 -22.667 7 -51.667 21 -87zM279 477.003c0 -11.333 -2.99805 -21.502 -8.99805 -30.502s-12.5 -17.5 -19.5 -25.5s-13.333 -15.833 -19 -23.5
s-8.5 -15.834 -8.5 -24.501h-45c0 10.667 3 20.334 9 29.001s12.667 16.834 20 24.501s14 15.167 20 22.5s9 15 9 23c0 11.333 -2.5 18.833 -7.5 22.5s-11.833 5.5 -20.5 5.5c-11.333 0 -21.333 -3.66699 -30 -11s-14.334 -13 -17.001 -17l-26 22
c5.33301 10.667 14.333 20.834 27 30.501s29.667 14.5 51 14.5c19.333 0 35.166 -5 47.499 -15s18.5 -25.667 18.5 -47z" />
    <glyph glyph-name="uni1EEE" unicode="&#x1af;&#x303;" horiz-adv-x="482" 
d="M432 203c0 -141.333 -63.667 -212 -191 -212s-191 70.667 -191 212v273h64v-273c0 -105.333 42.333 -158 127 -158s127 52.667 127 158v273h64v-40c14.667 8 26.5 20.833 35.5 38.5s13.5 35.167 13.5 52.5h54c-2 -31.333 -12.833 -61.5 -32.5 -90.5
s-43.167 -48.5 -70.5 -58.5v-175zM341 592c-0.666992 -23.333 -5.83398 -41.8311 -15.501 -55.498s-24.167 -20.5 -43.5 -20.5c-5.33301 0 -11.833 1.5 -19.5 4.5s-15.667 6.33301 -24 10l-23.5 10c-7.33301 3 -13.333 4.5 -18 4.5c-5.33301 0 -8.66602 -2.5 -9.99902 -7.5
s-2 -10.5 -2 -16.5h-44c0 20 4.83301 36.833 14.5 50.5s23.5 20.5 41.5 20.5c6 0 12.833 -1.33301 20.5 -4s15.167 -5.83398 22.5 -9.50098s14.5 -6.83398 21.5 -9.50098s12.833 -4 17.5 -4c12.667 0 19 9 19 27h43z" />
    <glyph glyph-name="uni1EEF" unicode="&#x1b0;&#x303;" horiz-adv-x="414" 
d="M386 4l-61 -11.9971c-6 12.667 -11 28.667 -15 48c-42 -32.667 -82.667 -49 -122 -49c-94 0 -141 54.333 -141 163v186h63v-180c0 -75.333 28.667 -113 86 -113c24 0 47.667 9.16699 71 27.5s35 39.833 35 64.5v201h63v-61c13.333 7.33301 25.166 20.166 35.499 38.499
s15.5 36.166 15.5 53.499h54c0 -26 -9.66699 -54 -29 -84c-21.333 -32.667 -46.666 -54.334 -75.999 -65.001v-131c0 -22.667 7 -51.667 21 -87zM307 456.003c-0.666992 -23.333 -5.83398 -41.8311 -15.501 -55.498s-24.167 -20.5 -43.5 -20.5
c-5.33301 0 -11.833 1.5 -19.5 4.5s-15.667 6.33301 -24 10l-23.5 10c-7.33301 3 -13.333 4.5 -18 4.5c-5.33301 0 -8.66602 -2.5 -9.99902 -7.5s-2 -10.5 -2 -16.5h-44c0 20 4.83301 36.833 14.5 50.5s23.5 20.5 41.5 20.5c6 0 12.833 -1.33301 20.5 -4
s15.167 -5.83398 22.5 -9.50098s14.5 -6.83398 21.5 -9.50098s12.833 -4 17.5 -4c12.667 0 19 9 19 27h43z" />
    <glyph glyph-name="uni1EF0" unicode="&#x1af;&#x323;" horiz-adv-x="482" 
d="M432 203c0 -141.333 -63.667 -212 -191 -212s-191 70.667 -191 212v273h64v-273c0 -105.333 42.333 -158 127 -158s127 52.667 127 158v273h64v-40c14.667 8 26.5 20.833 35.5 38.5s13.5 35.167 13.5 52.5h54c-2 -31.333 -12.833 -61.5 -32.5 -90.5
s-43.167 -48.5 -70.5 -58.5v-175zM288 -96c0 -13.333 -4.66699 -24.666 -14 -33.999s-20.333 -14 -33 -14s-23.667 4.66699 -33 14s-14 20.666 -14 33.999s4.66699 24.666 14 33.999s20.333 14 33 14s23.667 -4.66699 33 -14s14 -20.666 14 -33.999z" />
    <glyph glyph-name="uni1EF1" unicode="&#x1b0;&#x323;" horiz-adv-x="414" 
d="M386 4l-61 -11.9971c-6 12.667 -11 28.667 -15 48c-42 -32.667 -82.667 -49 -122 -49c-94 0 -141 54.333 -141 163v186h63v-180c0 -75.333 28.667 -113 86 -113c24 0 47.667 9.16699 71 27.5s35 39.833 35 64.5v201h63v-61c13.333 7.33301 25.166 20.166 35.499 38.499
s15.5 36.166 15.5 53.499h54c0 -26 -9.66699 -54 -29 -84c-21.333 -32.667 -46.666 -54.334 -75.999 -65.001v-131c0 -22.667 7 -51.667 21 -87zM254 -95.9971c0 -13.333 -4.66699 -24.666 -14 -33.999s-20.333 -14 -33 -14s-23.667 4.66699 -33 14s-14 20.666 -14 33.999
s4.66699 24.666 14 33.999s20.333 14 33 14s23.667 -4.66699 33 -14s14 -20.666 14 -33.999z" />
    <glyph glyph-name="Ygrave" unicode="Y&#x300;" horiz-adv-x="396" 
d="M230 0h-62v208l-174 268h73l132 -214l131 214h72l-172 -267v-209zM264 521h-48l-84 97l57 18z" />
    <glyph glyph-name="ygrave" unicode="y&#x300;" horiz-adv-x="361" 
d="M208 7c-42 -88.667 -100.667 -141.332 -176 -157.999l-16 52c59.333 13.333 103 54.666 131 123.999l-151 315h69l118 -252l112 252h69zM246 385.002h-48l-84 97l57 18z" />
    <glyph glyph-name="uni1EF4" unicode="Y&#x323;" horiz-adv-x="396" 
d="M230 0h-62v208l-174 268h73l132 -214l131 214h72l-172 -267v-209zM245 -96c0 -13.333 -4.66699 -24.666 -14 -33.999s-20.333 -14 -33 -14s-23.667 4.66699 -33 14s-14 20.666 -14 33.999s4.66699 24.666 14 33.999s20.333 14 33 14s23.667 -4.66699 33 -14
s14 -20.666 14 -33.999z" />
    <glyph glyph-name="uni1EF5" unicode="y&#x323;" horiz-adv-x="361" 
d="M208 7c-42 -88.667 -100.667 -141.332 -176 -157.999l-16 52c59.333 13.333 103 54.666 131 123.999l-151 315h69l118 -252l112 252h69zM336 -95.998c0 -13.333 -4.66699 -24.666 -14 -33.999s-20.333 -14 -33 -14s-23.667 4.66699 -33 14s-14 20.666 -14 33.999
s4.66699 24.666 14 33.999s20.333 14 33 14s23.667 -4.66699 33 -14s14 -20.666 14 -33.999z" />
    <glyph glyph-name="uni1EF6" unicode="Y&#x309;" horiz-adv-x="396" 
d="M230 0h-62v208l-174 268h73l132 -214l131 214h72l-172 -267v-209zM270 613c0 -11.333 -2.99805 -21.502 -8.99805 -30.502s-12.5 -17.5 -19.5 -25.5s-13.333 -15.833 -19 -23.5s-8.5 -15.834 -8.5 -24.501h-45c0 10.667 3 20.334 9 29.001s12.667 16.834 20 24.501
s14 15.167 20 22.5s9 15 9 23c0 11.333 -2.5 18.833 -7.5 22.5s-11.833 5.5 -20.5 5.5c-11.333 0 -21.333 -3.66699 -30 -11s-14.334 -13 -17.001 -17l-26 22c5.33301 10.667 14.333 20.834 27 30.501s29.667 14.5 51 14.5c19.333 0 35.166 -5 47.499 -15
s18.5 -25.667 18.5 -47z" />
    <glyph glyph-name="uni1EF7" unicode="y&#x309;" horiz-adv-x="361" 
d="M208 7c-42 -88.667 -100.667 -141.332 -176 -157.999l-16 52c59.333 13.333 103 54.666 131 123.999l-151 315h69l118 -252l112 252h69zM252 477.002c0 -11.333 -2.99805 -21.502 -8.99805 -30.502s-12.5 -17.5 -19.5 -25.5s-13.333 -15.833 -19 -23.5
s-8.5 -15.834 -8.5 -24.501h-45c0 10.667 3 20.334 9 29.001s12.667 16.834 20 24.501s14 15.167 20 22.5s9 15 9 23c0 11.333 -2.5 18.833 -7.5 22.5s-11.833 5.5 -20.5 5.5c-11.333 0 -21.333 -3.66699 -30 -11s-14.334 -13 -17.001 -17l-26 22
c5.33301 10.667 14.333 20.834 27 30.501s29.667 14.5 51 14.5c19.333 0 35.166 -5 47.499 -15s18.5 -25.667 18.5 -47z" />
    <glyph glyph-name="uni1EF8" unicode="Y&#x303;" horiz-adv-x="396" 
d="M230 0h-62v208l-174 268h73l132 -214l131 214h72l-172 -267v-209zM298 592c-0.666992 -23.333 -5.83398 -41.8311 -15.501 -55.498s-24.167 -20.5 -43.5 -20.5c-5.33301 0 -11.833 1.5 -19.5 4.5s-15.667 6.33301 -24 10l-23.5 10c-7.33301 3 -13.333 4.5 -18 4.5
c-5.33301 0 -8.66602 -2.5 -9.99902 -7.5s-2 -10.5 -2 -16.5h-44c0 20 4.83301 36.833 14.5 50.5s23.5 20.5 41.5 20.5c6 0 12.833 -1.33301 20.5 -4s15.167 -5.83398 22.5 -9.50098s14.5 -6.83398 21.5 -9.50098s12.833 -4 17.5 -4c12.667 0 19 9 19 27h43z" />
    <glyph glyph-name="uni1EF9" unicode="y&#x303;" horiz-adv-x="361" 
d="M208 7c-42 -88.667 -100.667 -141.332 -176 -157.999l-16 52c59.333 13.333 103 54.666 131 123.999l-151 315h69l118 -252l112 252h69zM280 456.002c-0.666992 -23.333 -5.83398 -41.8311 -15.501 -55.498s-24.167 -20.5 -43.5 -20.5c-5.33301 0 -11.833 1.5 -19.5 4.5
s-15.667 6.33301 -24 10l-23.5 10c-7.33301 3 -13.333 4.5 -18 4.5c-5.33301 0 -8.66602 -2.5 -9.99902 -7.5s-2 -10.5 -2 -16.5h-44c0 20 4.83301 36.833 14.5 50.5s23.5 20.5 41.5 20.5c6 0 12.833 -1.33301 20.5 -4s15.167 -5.83398 22.5 -9.50098
s14.5 -6.83398 21.5 -9.50098s12.833 -4 17.5 -4c12.667 0 19 9 19 27h43z" />
    <glyph glyph-name="uni0E4F.liga" unicode="&#xe4f;&#x22;" horiz-adv-x="449" 
d="M289 163c0 17.333 -6.16699 32.333 -18.5 45s-27.5 19 -45.5 19s-33.167 -6.33301 -45.5 -19s-18.5 -27.667 -18.5 -45c0 -18 6.16699 -33.167 18.5 -45.5s27.5 -18.5 45.5 -18.5s33.167 6.16699 45.5 18.5s18.5 27.5 18.5 45.5zM324 163
c0 -27.333 -9.66699 -50.833 -29 -70.5s-42.666 -29.5 -69.999 -29.5s-50.666 9.83301 -69.999 29.5s-29 43.167 -29 70.5s9.66699 50.666 29 69.999s42.666 29 69.999 29s50.666 -9.66699 69.999 -29s29 -42.666 29 -69.999zM359 163c0 37.333 -13 68.998 -39 94.998
s-57.667 39 -95 39c-36.667 0 -68.167 -13 -94.5 -39s-39.5 -57.667 -39.5 -95s13.167 -69.166 39.5 -95.499s57.833 -39.5 94.5 -39.5s68.167 13.333 94.5 40s39.5 58.334 39.5 95.001zM394 162.998c0 -46.667 -16.5 -86.5 -49.5 -119.5s-72.833 -49.5 -119.5 -49.5
s-86.5 16.5 -119.5 49.5s-49.5 72.833 -49.5 119.5s16.5 86.5 49.5 119.5s72.833 49.5 119.5 49.5c45.333 0 84.833 -16.833 118.5 -50.5s50.5 -73.167 50.5 -118.5zM291.197 366.394h-36.7998l-10.3994 154.398h56.7988zM193.599 366.394h-35.999l-10.4004 154.398h56.7988
z" />
    <glyph glyph-name="uni0E24.liga" unicode="&#xe24;&#xe32;" horiz-adv-x="598" 
d="M340 -140h-61.999v405c0 27.333 -8.33301 49 -25 65s-38.667 24 -66 24c-40 0 -70.333 -17 -91 -51c31.333 -6 53.666 -21 66.999 -45c-34 -20 -51 -44 -51 -72v-47c4.66699 2.66699 11 4 19 4c20.667 0 38.167 -7.16699 52.5 -21.5s21.5 -32.166 21.5 -53.499
s-7.33301 -39.333 -22 -54s-32.667 -22 -54 -22c-22 0 -40.667 7.66699 -56 23s-23 34.666 -23 57.999v117c0 28 13.667 50 41 66c-16.667 11.333 -37 15.333 -61 12c1.33301 41.333 17.333 75.333 48 102c28 24.667 63.667 37 107 37c48 0 85.833 -12.833 113.5 -38.5
s41.5 -60.5 41.5 -104.5v-404zM165.001 67c0 9.33301 -3.33301 17.333 -10 24s-14.667 10 -24 10s-17.333 -3.33301 -24 -10s-10 -14.667 -10 -24s3.33301 -17.333 10 -24s14.667 -10 24 -10s17.333 3.33301 24 10s10 14.667 10 24zM547.001 -140h-62v431
c0 18.667 -6.33301 33.834 -19 45.501s-30 17.5 -52 17.5s-40 -7.33301 -54 -22s-21.333 -33.334 -22 -56.001h-60c2 40 15.167 71.833 39.5 95.5s56.5 35.5 96.5 35.5c37.333 0 68.833 -9.5 94.5 -28.5s38.5 -47.833 38.5 -86.5v-432z" />
    <glyph glyph-name="uni0E26.liga" unicode="&#xe26;&#xe32;" horiz-adv-x="629" 
d="M118 68c0 9.33301 -3.33301 17.333 -10 24s-14.667 10 -24 10s-17.333 -3.33301 -24 -10s-10 -14.667 -10 -24s3.33301 -17.333 10 -24s14.667 -10 24 -10s17.333 3.33301 24 10s10 14.667 10 24zM374 -140h-61.999v405c0 26.667 -8.83301 48.167 -26.5 64.5
s-39.834 24.5 -66.501 24.5c-40.667 0 -70.334 -17 -89.001 -51c32.667 -6.66699 55 -21.667 67 -45c-18 -10 -30 -18.333 -36 -25c-8.66699 -10.667 -13 -25 -13 -43c0 -14.667 1.66699 -35.834 5 -63.501s5 -47.167 5 -58.5c0 -21.333 -7.16699 -39.333 -21.5 -54
s-31.833 -22 -52.5 -22c-21.333 0 -39.333 7.33301 -54 22s-22 32.667 -22 54c0 20.667 7.33301 38.334 22 53.001s32 22 52 22c8 0 13 -1 15 -3l-6 62c0 23.333 11.333 41.333 34 54c-18 11.333 -38.333 15.333 -61 12c0.666992 41.333 16 75.333 46 102
c28.667 24.667 64.667 37 108 37c46.667 0 84.334 -13 113.001 -39s43 -60.667 43 -104v-404zM578.001 -140h-62v431c0 18.667 -6.33301 33.834 -19 45.501s-30 17.5 -52 17.5s-40 -7.33301 -54 -22s-21.333 -33.334 -22 -56.001h-60c2 40 15.167 71.833 39.5 95.5
s56.5 35.5 96.5 35.5c37.333 0 68.833 -9.5 94.5 -28.5s38.5 -47.833 38.5 -86.5v-432z" />
    <glyph glyph-name="fi" unicode="fi" horiz-adv-x="405" 
d="M358 340v-340h-63v288h-158v-288h-63v288h-57v52h58c0 54 14.333 96 43 126s66 45 112 45c48 0 87.333 -18 118 -54l-33 -45c-26 30 -55 45 -87 45c-24 0 -44.667 -10 -62 -30c-19.333 -22 -29 -51 -29 -87h221z" />
    <glyph glyph-name="fl" unicode="fl" horiz-adv-x="455" 
d="M451 49l-7 -57.001c-99.333 4.66699 -149 65.667 -149 183v257c-20 16.667 -42.333 25 -67 25c-24 0 -44.667 -10 -62 -30c-19.333 -22 -29 -51 -29 -87h118v-52h-118v-288h-63v288h-57v52h58c0 54 14.333 96 43 126s66 45 112 45c53.333 0 96 -21.333 128 -64v-258
c0 -51.333 8 -87.666 24 -108.999c14 -18 37 -28.333 69 -31z" />
    <glyph glyph-name="PSK" unicode="PSK&#x2e;Design&#x28;c&#x29;" horiz-adv-x="954" 
d="M212 520c0 18.667 -14.667 28 -44 28h-38v-57h38c29.333 0 44 9.66699 44 29zM271 519c0 -48.667 -33.333 -73 -100 -73h-41v-80h-58v225h110c59.333 0 89 -24 89 -72zM779 366l-82 114v-114h-60v225h60v-96l82 96h70l-89 -100l96 -125h-77zM916 666
c-3.33301 -17.333 -13.333 -26 -30 -26c-20.667 0 -31 12 -31 36s10.333 36 31 36c18 0 27.667 -8 29 -24h-16c-2 6.66699 -6.33301 10 -13 10c-8.66699 0 -13 -7 -13 -21c0 -16 4.66699 -24 14 -24c7.33301 0 11.333 4.33301 12 13h17zM237 120
c0 17.333 -8.33301 26 -25 26c-18 0 -27 -8.33301 -27 -25s9 -25 27 -25c16.667 0 25 8 25 24zM261 121c0 -28 -17 -42 -51 -42c-32 0 -48 14 -48 42c0 27.333 16.667 41 50 41c32.667 0 49 -13.667 49 -41zM325 135c0 6.66699 -5.66699 10 -17 10h-15v-21h15
c11.333 0 17 3.66699 17 11zM348 135c0 -18 -12.667 -27 -38 -27h-17v-25h-21v79h41c23.333 0 35 -9 35 -27zM404 83h-23v28l-36 51h26l24 -34c2 2.66699 9.33301 14 22 34h23l-36 -52v-27zM196 17l-7 17l-8 -17h15zM215 0h-13l-4 9h-20l-4 -9h-12l20 43h15zM689 0h-34v43
h34v-9h-23v-8h21v-8h-21v-9h23v-9zM774 43l-17 -43h-12l-18 43h12l12 -32l12 32h11zM847 21c0 8.66699 -4.33301 13 -13 13h-8v-24h8c8.66699 0 13 3.66699 13 11zM858 21c0 -14 -8 -21 -24 -21h-20v43h20c16 0 24 -7.33301 24 -22zM249 0h-32v43h10v-34h22v-9zM332 30
c0 3.33301 -2.66699 5 -8 5h-6v-9h6c5.33301 0 8 1.33301 8 4zM345 32c0 -5.33301 -2.66699 -9.00098 -8 -11.001c4 -1.33301 7.33301 -8.33301 10 -21h-13c0 2.66699 -0.333008 5.33398 -1 8.00098c-2 6 -5 9 -9 9h-6v-17h-11v43h21c11.333 0 17 -3.66699 17 -11z
M361 42.999v-43h-9v43h9zM412 2.99902c-6 -2.66699 -12.334 -4 -19.001 -4c-17.333 0 -26 7.33301 -26 22c0 15.333 8.33301 23 25 23c12.667 0 19.334 -5.33301 20.001 -16h-11c-0.666992 4.66699 -3.66699 7 -9 7c-8.66699 0 -13 -4.33301 -13 -13
c0 -9.33301 4.66699 -14 14 -14c3.33301 0 6 0.333008 8 1v7h-9v8h20v-21zM461.999 -0.000976562h-11v18h-22v-18h-11v43h11v-17h22v17h11v-43zM505.999 33.999h-14v-34h-12v34h-15v9h41v-9zM564.999 82.999h-25v79h25v-79zM667.999 85.999c-12 -3.33301 -25.667 -5 -41 -5
c-34 0 -51 13.667 -51 41s16.333 41 49 41c26.667 0 41 -9 43 -27h-26c-1.33301 7.33301 -7.33301 11 -18 11c-16 0 -24 -8 -24 -24c0 -17.333 9 -26 27 -26l16 2v14h-19v13h44v-40zM767.999 82.999h-23v32h-40v-32h-24v79h24v-31h40v31h23v-79zM863.999 143.999h-33v-61
h-23v61h-31v18h87v-18zM505.999 136.999c0 5.33301 -6 8 -18 8h-15v-19h15c12 0 18 3.66699 18 11zM530.999 82.999h-21.999l-5 20c-0.666992 6.66699 -6.33398 10 -17.001 10h-14v-30h-23v79h45c22.667 0 34 -7 34 -21c0 -8.66699 -5.66699 -15 -17 -19
c10 -2 15 -8.33301 15 -19zM650 12.999c0 -9.33301 -6.66699 -14 -20 -14c-12 0 -18 5.33301 -18 16h11c0 -4.66699 2.66699 -7 8 -7c4.66699 0 7 1.33301 7 4c0 0.666992 -4.16699 2.5 -12.5 5.5s-12.5 7.16699 -12.5 12.5c0 9.33301 6 14 18 14s18 -4.66699 18 -14h-11
c0 4 -2.33301 6 -7 6s-7 -1.66699 -7 -5c0 -2.66699 4.33301 -5 13 -7s13 -5.66699 13 -11zM809 -0.000976562h-33v43h33v-9h-21v-8h20v-8h-20v-9h21v-9zM608 8.99902v-9h-34v43h33v-9h-22v-8h21v-8h-21v-9h23zM156 108.999c-2 -20 -16.333 -30 -43 -30
c-31.333 0 -47 14.333 -47 43c0 28 16.333 42 49 42c24.667 0 38.334 -10 41.001 -30h-26c-0.666992 8.66699 -6.33398 13 -17.001 13c-15.333 0 -23 -8.33301 -23 -25s7.33301 -25 22 -25c11.333 0 17.333 4 18 12h26zM867 198.999h-809v25h809v-25zM562 405.999
c0 -52.667 -19.332 -91.3291 -57.999 -115.996c-30.667 -20 -70 -30 -118 -30c-40.667 0 -72.5 8.66699 -95.5 26s-34.5 41.666 -34.5 72.999c0 10.667 1.33301 21 4 31h38c-0.666992 -4.66699 -1 -10.334 -1 -17.001c0 -52.667 33 -79 99 -79c29.333 0 55.666 7 78.999 21
c30 18 45 43.667 45 77c0 25.333 -17.333 44.666 -52 57.999l-95 32c-34.667 14.667 -52 36 -52 64c0 45.333 17.333 80 52 104c30.667 20.667 70.334 31 119.001 31c33.333 0 59.833 -7 79.5 -21s29.5 -33.667 29.5 -59c0 -10 -1.66699 -21 -5 -33h-36
c1.33301 9.33301 2 15.666 2 18.999c0 40 -22 60 -66 60c-40 0 -71.833 -7.66699 -95.5 -23s-35.5 -36 -35.5 -62c0 -17.333 6 -30.333 18 -39s37.167 -18.5 75.5 -29.5s65.166 -23 80.499 -36s23 -30.167 23 -51.5zM947.001 675.004c0 -17.333 -5.66699 -31.333 -17 -42
s-25.666 -16 -42.999 -16c-16.667 0 -30.5 5.33301 -41.5 16s-16.5 24.667 -16.5 42s5.5 31.5 16.5 42.5s24.833 16.5 41.5 16.5c17.333 0 31.666 -5.5 42.999 -16.5s17 -25.167 17 -42.5zM938.001 674.004c0 14 -5 25.833 -15 35.5s-22 14.5 -36 14.5
c-13.333 0 -24.666 -4.83301 -33.999 -14.5s-14 -21.5 -14 -35.5s4.66699 -25.667 14 -35s20.666 -14 33.999 -14c14 0 26 4.66699 36 14s15 21 15 35zM557.001 30.0039c0 3.33301 -2.33301 5 -7 5h-7v-9h7c4.66699 0 7 1.33301 7 4zM569.001 32.0039
c0 -5.33301 -2.66699 -9.00098 -8 -11.001c4 -1.33301 7.33301 -8.33301 10 -21h-12c0 2.66699 -0.333008 5.33398 -1 8.00098c-2 6 -4.66699 9 -8 9h-7v-17h-12v43h22c10.667 0 16 -3.66699 16 -11zM702.001 26.0029h7c4.66699 0 7 1.33301 7 4c0 3.33301 -2.33301 5 -7 5
h-7v-9zM730.001 0.00292969l-12 -0.000976562c0 2.66699 -0.333008 5.33398 -1 8.00098c-2 6 -4.66699 9 -8 9h-7v-17h-10v43h21c10 0 15 -3.66699 15 -11c0 -5.33301 -2.66699 -9 -8 -11c4 -1.33301 7.33301 -8.33301 10 -21zM284.001 0.00195312h-32v43h10v-34h22v-9z" />
    <glyph glyph-name=".notdef" horiz-adv-x="698" 
d="M645 0h-592v809h592v-809zM609 31v747h-520v-747h520z" />
    <glyph glyph-name="space" unicode=" " horiz-adv-x="226" 
 />
    <glyph glyph-name="exclam" unicode="!" horiz-adv-x="168" 
d="M111 139h-56l-7 337h72zM132 39c0 -13.333 -4.66699 -24.666 -14 -33.999s-20.666 -14 -33.999 -14s-24.666 4.66699 -33.999 14s-14 20.666 -14 33.999s4.66699 24.666 14 33.999s20.666 14 33.999 14s24.666 -4.66699 33.999 -14s14 -20.666 14 -33.999z" />
    <glyph glyph-name="quotedbl" unicode="&#x22;" horiz-adv-x="291" 
d="M229 333h-46l-13 193h71zM107 333h-45l-13 193h71z" />
    <glyph glyph-name="numbersign" unicode="#" horiz-adv-x="462" 
d="M322 0h-59l20 142h-129l-17 -142h-59l17 142h-62v53h69l12 89h-68v54h74l19 137h57l-17 -137h127l17 137h59l-17 -137h63v-54h-71l-11 -89h67v-53h-72zM288 195l12 89h-128l-11 -89h127z" />
    <glyph glyph-name="dollar" unicode="$" horiz-adv-x="367" 
d="M324 138c0 -28 -10 -53.335 -30 -76.002s-47 -37.667 -81 -45v-72h-59v70c-44 4 -81 17.667 -111 41l27 48c29.333 -23.333 64.333 -35 105 -35c26.667 0 48 6.16699 64 18.5s24 28.5 24 48.5c0 31.333 -27 58.333 -81 81c-84.667 36 -127 78.333 -127 127
c0 28.667 9.5 53.334 28.5 74.001s45.167 34.334 78.5 41.001v74h58v-73c31.333 -4 63.333 -15 96 -33l-30 -49c-22.667 19.333 -53.667 29 -93 29c-22 0 -40.333 -5.16699 -55 -15.5s-22 -24.5 -22 -42.5c0 -25.333 29.333 -51 88 -77c44 -19.333 75 -39 93 -59
s27 -45 27 -75z" />
    <glyph glyph-name="percent" unicode="%" horiz-adv-x="688" 
d="M217 -9h-61l305 485h61zM276 338c0 -97.333 -39.667 -146 -119 -146c-78.667 0 -118 48.667 -118 146c0 98 39.333 147 118 147c79.333 0 119 -49 119 -147zM217 338c0 62.667 -20 94 -60 94c-38.667 0 -58 -31.333 -58 -94c0 -61.333 19.333 -92 58 -92
c40 0 60 30.667 60 92zM649 139c0 -98 -40 -147 -120 -147c-79.333 0 -119 49 -119 147c0 97.333 39.667 146 119 146c80 0 120 -48.667 120 -146zM589 139c0 62.667 -20 94 -60 94c-39.333 0 -59 -31.333 -59 -94c0 -62 19.667 -93 59 -93c40 0 60 31 60 93z" />
    <glyph glyph-name="ampersand" unicode="&#x26;" horiz-adv-x="486" 
d="M420 -14l-68.002 62c-52.667 -38 -106 -57 -160 -57c-45.333 0 -82.833 14 -112.5 42s-44.5 61.667 -44.5 101c0 59.333 31.667 106.333 95 141c-24.667 32 -37 63 -37 93c0 34.667 12.167 64 36.5 88s55.5 36 93.5 36c32.667 0 59.5 -9.83301 80.5 -29.5
s31.5 -44.834 31.5 -75.501c0 -52.667 -38 -96.667 -114 -132c30 -33.333 72.333 -76.333 127 -129c32.667 42.667 51.334 89.334 56.001 140.001h53c-9.33301 -72 -31.666 -131 -66.999 -177l84 -75zM276.998 384c0 38 -19 56.998 -57 56.998c-20 0 -36 -6.66699 -48 -20
s-18 -29.666 -18 -48.999s12.333 -44 37 -74c57.333 28.667 86 57.334 86 86.001zM311.998 84.998l-144.999 147.999c-46 -26 -69 -57.667 -69 -95c0 -27.333 9.66699 -49.666 29 -66.999s43.666 -26 72.999 -26c44 0 81.333 13.333 112 40z" />
    <glyph glyph-name="quotesingle" unicode="'" horiz-adv-x="169" 
d="M107 333h-45l-13 193h71z" />
    <glyph glyph-name="parenleft" unicode="(" horiz-adv-x="244" 
d="M162 -55c-78.667 81.333 -118 178.001 -118 290.001c0 104.667 38.333 203 115 295h74c-84.667 -92.667 -127 -191 -127 -295c0 -98.667 42 -195.334 126 -290.001h-70z" />
    <glyph glyph-name="parenright" unicode=")" horiz-adv-x="244" 
d="M199 238c0 -109.333 -39.333 -207 -118 -293h-69c83.333 99.333 125 197 125 293c0 96.667 -42 194 -126 292h69c79.333 -84.667 119 -182 119 -292z" />
    <glyph glyph-name="asterisk" unicode="*" horiz-adv-x="343" 
d="M266 277l-51 -30l-44 86l-44 -86l-51 30l62 77l-99 -9v52l99 -8l-62 77l51 30l44 -86l44 86l51 -30l-62 -77l99 8v-51l-99 8z" />
    <glyph glyph-name="plus" unicode="+" horiz-adv-x="417" 
d="M240 0h-63v157h-148v55h148v151h63v-151h148v-55h-148v-157z" />
    <glyph glyph-name="comma" unicode="," horiz-adv-x="172" 
d="M137 37c0 -66 -30.332 -113.999 -90.999 -143.999l-21 29c35.333 21.333 55.666 44.666 60.999 69.999c-32 2 -48 18.667 -48 50c0 14 4.83301 25.833 14.5 35.5s21.167 14.5 34.5 14.5c14 0 25.833 -5.16699 35.5 -15.5s14.5 -23.5 14.5 -39.5z" />
    <glyph glyph-name="hyphen" unicode="-" horiz-adv-x="226" 
d="M213 157h-200v54h200v-54z" />
    <glyph glyph-name="hyphen" unicode="&#xad;" horiz-adv-x="226" 
d="M213 157h-200v54h200v-54z" />
    <glyph glyph-name="period" unicode="." horiz-adv-x="172" 
d="M134 39c0 -13.333 -4.66699 -24.666 -14 -33.999s-20.666 -14 -33.999 -14s-24.666 4.66699 -33.999 14s-14 20.666 -14 33.999s4.66699 24.666 14 33.999s20.666 14 33.999 14s24.666 -4.66699 33.999 -14s14 -20.666 14 -33.999z" />
    <glyph glyph-name="slash" unicode="/" horiz-adv-x="276" 
d="M34 -28h-64l267 520h64z" />
    <glyph glyph-name="zero" unicode="0" horiz-adv-x="378" 
d="M349 235c0 -67.333 -14 -124.833 -42 -172.5s-68 -71.5 -120 -71.5c-50 0 -89 23.833 -117 71.5s-42 105.167 -42 172.5s14 124.833 42 172.5s67 71.5 117 71.5c52 0 92 -23.833 120 -71.5s42 -105.167 42 -172.5zM285 235c0 56 -8 101.5 -24 136.5s-40 52.5 -72 52.5
c-32.667 0 -57 -17.5 -73 -52.5s-24 -80.5 -24 -136.5s8 -101.5 24 -136.5s40 -52.5 72 -52.5c32.667 0 57 17.5 73 52.5s24 80.5 24 136.5z" />
    <glyph glyph-name="one" unicode="1" horiz-adv-x="378" 
d="M307 0h-211v51h74v332l-63 -53l-37 41l127 107c24.667 0 37 -16 37 -48v-379h73v-51z" />
    <glyph glyph-name="two" unicode="2" horiz-adv-x="378" 
d="M348 0h-324.002c5.33301 29.333 11 53.333 17 72c17.333 21.333 70.333 73.333 159 156c54.667 51.333 82 93.333 82 126c0 44 -26 66 -78 66c-51.333 0 -82 -29.667 -92 -89l-59 15c4.66699 42.667 21.334 75.667 50.001 99c26.667 22 60.667 33 102 33
c40.667 0 74.334 -12 101.001 -36s40 -54.333 40 -91c0 -32.667 -17.333 -69.667 -52 -111c-21.333 -24.667 -57 -59 -107 -103c-44.667 -39.333 -72 -66.333 -82 -81h255z" />
    <glyph glyph-name="three" unicode="3" horiz-adv-x="378" 
d="M345 165c0 -52 -18.499 -93.833 -55.499 -125.5s-85.5 -47.5 -145.5 -47.5c-45.333 0 -84.666 14 -117.999 42l28 51c30 -21.333 63.333 -32 100 -32c34.667 0 64.667 11 90 33s38 47.667 38 77c0 21.333 -6.83301 39.333 -20.5 54s-30.834 22 -51.501 22
c-24.667 0 -48.334 -9.66699 -71.001 -29l-27 44c32.667 18.667 61.667 39.667 87 63c30 28 45 50.667 45 68c0 26 -18.333 39 -55 39c-24 0 -46.167 -7.66699 -66.5 -23s-34.833 -33.333 -43.5 -54l-45 23c12.667 33.333 33.167 59.666 61.5 78.999s60.5 29 96.5 29
c32 0 58.667 -8.33301 80 -25s32 -39 32 -67c0 -27.333 -20.667 -58.666 -62 -93.999c31.333 -6 56.333 -20.333 75 -43s28 -50.667 28 -84z" />
    <glyph glyph-name="four" unicode="4" horiz-adv-x="378" 
d="M229 160l0.000976562 244.002c-32 -20.667 -60.833 -54.334 -86.5 -101.001s-42.834 -94.334 -51.501 -143.001h138zM293.001 0.00195312h-64v106h-201c0 83.333 26.333 166.5 79 249.5s114.667 127.5 186 133.5v-329h64l-7 -54h-57v-106z" />
    <glyph glyph-name="five" unicode="5" horiz-adv-x="378" 
d="M346 168c0 -52 -18.334 -94.334 -55.001 -127.001s-84 -49 -142 -49c-49.333 0 -90.333 14.333 -123 43l27 46c37.333 -23.333 71.666 -35 102.999 -35c34.667 0 64.334 11.5 89.001 34.5s37 51.833 37 86.5c0 28.667 -9.33301 50.834 -28 66.501s-43.667 23.5 -75 23.5
s-51.666 -11 -60.999 -33l-40 -2l17 254h238l-11 -54h-166l-7 -116c12 5.33301 26.333 8 43 8c44 0 80.667 -13.667 110 -41s44 -62.333 44 -105z" />
    <glyph glyph-name="six" unicode="6" horiz-adv-x="378" 
d="M341 150c0 -44.667 -13.5 -82.167 -40.5 -112.5s-61.5 -45.5 -103.5 -45.5c-46.667 0 -85.167 16.333 -115.5 49s-45.5 76 -45.5 130c0 76.667 25.333 144.334 76 203.001s116.667 96 198 112l6 -50c-42 -11.333 -82 -31.833 -120 -61.5s-65.333 -62.834 -82 -99.501
c20.667 20.667 49 31 85 31c40 0 73.667 -15 101 -45s41 -67 41 -111zM283 150c0 26.667 -8.66699 50.333 -26 71s-38 31 -62 31c-25.333 0 -46.833 -9.83301 -64.5 -29.5s-26.5 -43.834 -26.5 -72.501c0 -28 8.83301 -52 26.5 -72s39.167 -30 64.5 -30
c24 0 44.667 10.333 62 31s26 44.334 26 71.001z" />
    <glyph glyph-name="seven" unicode="7" horiz-adv-x="378" 
d="M197 0l-65 -0.000976562c5.33301 186 52.333 326.667 141 422h-245l15 54h311l-9 -54c-51.333 -64 -88 -125.333 -110 -184c-25.333 -67.333 -38 -146.666 -38 -237.999z" />
    <glyph glyph-name="eight" unicode="8" horiz-adv-x="378" 
d="M286 131c0 24.667 -8.33301 47 -25 67s-40.667 31 -72 33c-31.333 -2 -55.333 -13 -72 -33s-25 -42.333 -25 -67c0 -26 9 -46.667 27 -62s41.333 -23 70 -23s52 7.66699 70 23s27 36 27 62zM272 355c0 20 -7.66699 36.667 -23 50s-35.333 20 -60 20
s-44.667 -6.66699 -60 -20s-23 -30 -23 -50c0 -32.667 27.333 -56.667 82 -72c56 15.333 84 39.333 84 72zM347 134c0 -44 -14.332 -78.667 -42.999 -104s-67.334 -38 -116.001 -38c-48 0 -86.167 12.667 -114.5 38s-42.5 60 -42.5 104c0 26.667 7.5 51.334 22.5 74.001
s34.167 39.334 57.5 50.001c-43.333 23.333 -65 54.666 -65 93.999c0 36.667 13.5 67 40.5 91s61.167 36 102.5 36s75.5 -12 102.5 -36s40.5 -54.333 40.5 -91c0 -39.333 -21.667 -70.666 -65 -93.999c23.333 -10.667 42.5 -27.334 57.5 -50.001s22.5 -47.334 22.5 -74.001z
" />
    <glyph glyph-name="nine" unicode="9" horiz-adv-x="378" 
d="M341 299c0 -76.667 -25.333 -144.333 -76 -203s-116.667 -96 -198 -112l-6 50c40.667 10.667 81.167 32 121.5 64s68.5 64.667 84.5 98c-19.333 -21.333 -49 -32 -89 -32s-73.667 15 -101 45s-41 67 -41 111c0 44.667 13.5 82.167 40.5 112.5s61.5 45.5 103.5 45.5
c46.667 0 85.167 -16.333 115.5 -49s45.5 -76 45.5 -130zM273 320.001c0 28 -8.83301 52.001 -26.5 72.001s-39.167 30 -64.5 30c-24 0 -44.667 -10.333 -62 -31s-26 -44.334 -26 -71.001s8.66699 -50.334 26 -71.001s38 -31 62 -31c25.333 0 46.833 9.83301 64.5 29.5
s26.5 43.834 26.5 72.501z" />
    <glyph glyph-name="colon" unicode=":" horiz-adv-x="172" 
d="M134 39c0 -13.333 -4.66699 -24.666 -14 -33.999s-20.666 -14 -33.999 -14s-24.666 4.66699 -33.999 14s-14 20.666 -14 33.999s4.66699 24.666 14 33.999s20.666 14 33.999 14s24.666 -4.66699 33.999 -14s14 -20.666 14 -33.999zM134 285
c0 -13.333 -4.66699 -24.666 -14 -33.999s-20.666 -14 -33.999 -14s-24.666 4.66699 -33.999 14s-14 20.666 -14 33.999s4.66699 24.666 14 33.999s20.666 14 33.999 14s24.666 -4.66699 33.999 -14s14 -20.666 14 -33.999z" />
    <glyph glyph-name="semicolon" unicode=";" horiz-adv-x="172" 
d="M134 285c0 -13.333 -4.66699 -24.666 -14 -33.999s-20.666 -14 -33.999 -14s-24.666 4.66699 -33.999 14s-14 20.666 -14 33.999s4.66699 24.666 14 33.999s20.666 14 33.999 14s24.666 -4.66699 33.999 -14s14 -20.666 14 -33.999zM137 37
c0 -66 -30.332 -113.999 -90.999 -143.999l-21 29c35.333 21.333 55.666 44.666 60.999 69.999c-32 2 -48 18.667 -48 50c0 14 4.83301 25.833 14.5 35.5s21.167 14.5 34.5 14.5c14 0 25.833 -5.16699 35.5 -15.5s14.5 -23.5 14.5 -39.5z" />
    <glyph glyph-name="less" unicode="&#x3c;" horiz-adv-x="417" 
d="M381 -10l-345 180v41l345 179v-63l-265 -137l265 -137v-63z" />
    <glyph glyph-name="equal" unicode="=" horiz-adv-x="417" 
d="M371 223h-325v52h325v-52zM371 97h-325v53h325v-53z" />
    <glyph glyph-name="greater" unicode="&#x3e;" horiz-adv-x="417" 
d="M381 170l-345 -180v63l266 138l-266 136v63l345 -179v-41z" />
    <glyph glyph-name="question" unicode="?" horiz-adv-x="289" 
d="M265 371c0 -36 -21.998 -76.333 -65.998 -121c-30 -30 -45.333 -60.333 -46 -91c0 -10 2.33301 -24 7 -42h-57c-6.66699 20 -10 35 -10 45c0 32.667 18.167 70 54.5 112s54.5 73.667 54.5 95c0 38 -23.333 57 -70 57c-28.667 0 -56.334 -9.66699 -83.001 -29l-25 49
c39.333 24.667 77.666 37 114.999 37c38 0 68.5 -10.167 91.5 -30.5s34.5 -47.5 34.5 -81.5zM183.002 39c0 -13.333 -4.66699 -24.666 -14 -33.999s-20.666 -14 -33.999 -14s-24.666 4.66699 -33.999 14s-14 20.666 -14 33.999s4.66699 24.666 14 33.999
s20.666 14 33.999 14s24.666 -4.66699 33.999 -14s14 -20.666 14 -33.999z" />
    <glyph glyph-name="at" unicode="@" horiz-adv-x="572" 
d="M540 177c0 -53.333 -19.334 -95.999 -58.001 -127.999c-34 -28 -74.333 -42 -121 -42l-6 36c-31.333 -28 -67 -42 -107 -42c-28.667 0 -53.167 8.16699 -73.5 24.5s-30.5 36.833 -30.5 61.5c0 72.667 66.333 110.667 199 114c0 50.667 -24 76 -72 76
c-26 0 -50 -7 -72 -21l-17 35c32 18.667 67 28 105 28c35.333 0 62.5 -11.667 81.5 -35s28.5 -55 28.5 -95v-104c0 -15.333 0.333008 -26 1 -32h12c23.333 6.66699 43 21.834 59 45.501s24 49.167 24 76.5c0 51.333 -17.333 94.166 -52 128.499s-81 51.5 -139 51.5
c-65.333 0 -118.5 -20.833 -159.5 -62.5s-61.5 -93.834 -61.5 -156.501c0 -54.667 18.167 -100 54.5 -136s81.166 -54 134.499 -54c40.667 0 81.334 10.667 122.001 32l19 -40c-46.667 -22 -94.667 -33 -144 -33c-65.333 0 -120.666 21.333 -165.999 64
c-47.333 43.333 -71 98 -71 164c0 75.333 26.333 138 79 188s118.667 75 198 75c68 0 123.833 -20.5 167.5 -61.5s65.5 -93.5 65.5 -157.5zM345.999 107.001l-0.000976562 56c-101.333 -4 -152 -27.667 -152 -71c0 -31.333 18.333 -47 55 -47
c24.667 0 46.334 5.33301 65.001 16c21.333 12 32 27.333 32 46z" />
    <glyph glyph-name="A" unicode="A" horiz-adv-x="451" 
d="M452 0h-69l-63 159h-191l-62 -159h-68l200 483h54zM296 213l-70 198l-74 -198h144z" />
    <glyph glyph-name="B" unicode="B" horiz-adv-x="396" 
d="M366 138c0 -96 -70.667 -143.999 -212 -143.999c-30 0 -64.667 4.33301 -104 13v460c41.333 10 79.333 15 114 15c122 0 183 -42 183 -126c0 -42.667 -20 -76.334 -60 -101.001c52.667 -24.667 79 -63.667 79 -117zM284 355.001c0 48 -40 72 -120 72c-14 0 -31 -1 -51 -3
v-146h71c29.333 0 53.333 6.83301 72 20.5s28 32.5 28 56.5zM304 137.001c0 32 -15.332 55.667 -45.999 71c-23.333 11.333 -52.333 17 -87 17h-58v-174c11.333 -2 28 -3 50 -3c43.333 0 77.666 7.66699 102.999 23s38 37.333 38 66z" />
    <glyph glyph-name="C" unicode="C" horiz-adv-x="432" 
d="M410 25c-48.667 -21.333 -106.668 -31.999 -174.001 -31.999c-63.333 0 -114.166 22.5 -152.499 67.5s-57.5 103.833 -57.5 176.5c0 72 18.667 130 56 174c41.333 48 99 72 173 72c56.667 0 108.334 -9.66699 155.001 -29l-20 -50c-40 16.667 -84.333 25 -133 25
c-61.333 0 -106.333 -22.667 -135 -68c-21.333 -33.333 -32 -75.333 -32 -126c0 -46.667 11.667 -87.334 35 -122.001c29.333 -44 70.666 -66 123.999 -66c55.333 0 103.333 10 144 30z" />
    <glyph glyph-name="D" unicode="D" horiz-adv-x="459" 
d="M433 248c0 -72 -17.3311 -129.668 -51.998 -173.001c-42.667 -52.667 -108.334 -79 -197.001 -79c-27.333 0 -72 3.33301 -134 10v462c76 8.66699 127.333 13 154 13c81.333 0 141.666 -24.333 180.999 -73c32 -39.333 48 -92.666 48 -159.999zM369.002 247.999
c0 119.333 -56 179 -168 179c-18.667 0 -48 -2 -88 -6v-368c22 -2 49.667 -3 83 -3c64.667 0 111.667 23 141 69c21.333 34 32 77 32 129z" />
    <glyph glyph-name="E" unicode="E" horiz-adv-x="358" 
d="M333 0h-283v476h283v-54h-220v-144h196v-54h-196v-170h220v-54z" />
    <glyph glyph-name="F" unicode="F" horiz-adv-x="358" 
d="M113 0h-63v476h293v-54h-230v-150h216v-53h-216v-219z" />
    <glyph glyph-name="G" unicode="G" horiz-adv-x="454" 
d="M414 11l-32 8.00098c-38.667 -17.333 -87.334 -26 -146.001 -26c-63.333 0 -114.166 22.5 -152.499 67.5s-57.5 103.833 -57.5 176.5c0 72 18.667 130 56 174c41.333 48 99 72 173 72c56.667 0 108.334 -9.66699 155.001 -29l-20 -50c-40 16.667 -84.333 25 -133 25
c-61.333 0 -106.333 -22.667 -135 -68c-21.333 -33.333 -32 -75.333 -32 -126c0 -46.667 11.667 -87.334 35 -122.001c29.333 -44 70.666 -66 123.999 -66c39.333 0 73.333 5.33301 102 16v135h-120v53h183v-240z" />
    <glyph glyph-name="H" unicode="H" horiz-adv-x="472" 
d="M422 0h-63v226h-246v-226h-63v476h63v-196h246v196h63v-476z" />
    <glyph glyph-name="I" unicode="I" horiz-adv-x="163" 
d="M113 0h-63v476h63v-476z" />
    <glyph glyph-name="J" unicode="J" horiz-adv-x="282" 
d="M232 160c0 -112.667 -50.999 -169 -152.999 -169c-26 0 -54.333 6.33301 -85 19l17 52c19.333 -11.333 42 -17 68 -17c31.333 0 54.166 9.33301 68.499 28s21.5 51 21.5 97v306h63v-316z" />
    <glyph glyph-name="K" unicode="K" horiz-adv-x="411" 
d="M418 15l-60 -22l-206 236l-39 -38v-191h-63v476h63v-210l227 218l61 -16l-206 -197z" />
    <glyph glyph-name="L" unicode="L" horiz-adv-x="359" 
d="M346 0h-296v476h63v-422h233v-54z" />
    <glyph glyph-name="M" unicode="M" horiz-adv-x="574" 
d="M545 0h-61l-26 369l-150 -369h-42l-150 369l-26 -369h-61l34 476h66l158 -396l158 396h66z" />
    <glyph glyph-name="N" unicode="N" horiz-adv-x="472" 
d="M422 0h-60l-249 386v-386h-63v476h63l246 -376v376h63v-476z" />
    <glyph glyph-name="O" unicode="O" horiz-adv-x="518" 
d="M430 238c0 54.667 -15.667 100.5 -47 137.5s-72.666 55.5 -123.999 55.5s-92.666 -18.5 -123.999 -55.5s-47 -82.833 -47 -137.5s15.667 -100.5 47 -137.5s72.666 -55.5 123.999 -55.5s92.666 18.5 123.999 55.5s47 82.833 47 137.5zM492 237
c0 -70 -21.667 -128.667 -65 -176s-99.333 -71 -168 -71s-124.667 23.667 -168 71s-65 106 -65 176s21.667 128.833 65 176.5s99.333 71.5 168 71.5s124.667 -23.833 168 -71.5s65 -106.5 65 -176.5z" />
    <glyph glyph-name="P" unicode="P" horiz-adv-x="390" 
d="M365 339c0 -46 -18.5 -83.167 -55.5 -111.5s-85.833 -42.5 -146.5 -42.5c-15.333 0 -32 1 -50 3v-188h-63v469c48 8 90.333 12 127 12c58.667 0 104.667 -13.167 138 -39.5s50 -60.5 50 -102.5zM302 336c0 60.667 -42 91 -126 91c-22.667 0 -43.667 -1 -63 -3v-179
c22.667 -4 41.667 -6 57 -6c88 0 132 32.333 132 97z" />
    <glyph glyph-name="Q" unicode="Q" horiz-adv-x="518" 
d="M430 238c0 54.667 -15.667 100.5 -47 137.5s-72.666 55.5 -123.999 55.5s-92.666 -18.5 -123.999 -55.5s-47 -82.833 -47 -137.5s15.667 -100.5 47 -137.5s72.666 -55.5 123.999 -55.5s92.666 18.5 123.999 55.5s47 82.833 47 137.5zM492 237
c0 -53.333 -12.498 -99.499 -37.498 -138.499s-59.5 -66.167 -103.5 -81.5v-4c53.333 -13.333 101.666 -23.333 144.999 -30l-20 -54c-50.667 13.333 -114.334 32.333 -191.001 57c-3.33301 1.33301 -12 2.66602 -26 3.99902c-68.667 0 -124.667 23.667 -168 71
s-65 106 -65 176s21.667 128.833 65 176.5s99.333 71.5 168 71.5s124.667 -23.833 168 -71.5s65 -106.5 65 -176.5z" />
    <glyph glyph-name="R" unicode="R" horiz-adv-x="395" 
d="M380 0h-63.002c-18 138 -59.333 207 -124 207h-80v-207h-63v468c48 8.66699 91 13 129 13c56.667 0 101.667 -12 135 -36s50 -56.667 50 -98c0 -54.667 -26 -94 -78 -118c24.667 -16.667 43.834 -41 57.501 -73s25.834 -84 36.501 -156zM302.998 343
c0 55.333 -41.333 83 -124 83c-26.667 0 -48.667 -1 -66 -3v-164h77c75.333 0 113 28 113 84z" />
    <glyph glyph-name="S" unicode="S" horiz-adv-x="365" 
d="M339 130c0 -41.333 -16.501 -74.8311 -49.501 -100.498s-74.167 -38.5 -123.5 -38.5c-52.667 0 -101.667 14.333 -147 43l27 57c38 -28.667 79.333 -43 124 -43c32.667 0 58.334 7.16699 77.001 21.5s28 33.5 28 57.5c0 40 -32 70.333 -96 91c-94 30 -141 76 -141 138
c0 37.333 14.833 68.166 44.5 92.499s68.167 36.5 115.5 36.5s88.333 -10.667 123 -32l-27 -50c-33.333 16.667 -65.666 25 -96.999 25c-28.667 0 -51.834 -6.5 -69.501 -19.5s-26.5 -28.833 -26.5 -47.5c0 -36.667 32 -65.334 96 -86.001c52 -16.667 88.667 -36 110 -58
s32 -51 32 -87z" />
    <glyph glyph-name="T" unicode="T" horiz-adv-x="421" 
d="M243 0h-63v422h-176v54h413v-54h-174v-422z" />
    <glyph glyph-name="U" unicode="U" horiz-adv-x="482" 
d="M432 203c0 -141.333 -63.667 -212 -191 -212s-191 70.667 -191 212v273h64v-273c0 -105.333 42.333 -158 127 -158s127 52.667 127 158v273h64v-273z" />
    <glyph glyph-name="V" unicode="V" horiz-adv-x="422" 
d="M240 0h-58l-183 476h68l144 -390l144 390h68z" />
    <glyph glyph-name="W" unicode="W" horiz-adv-x="612" 
d="M484 0h-58l-120 389l-120 -389h-58l-132 476h69l93 -380l118 380h60l118 -380l93 380h69z" />
    <glyph glyph-name="X" unicode="X" horiz-adv-x="426" 
d="M428 0h-75l-138 193l-140 -193h-76l177 244l-170 232h77l132 -186l129 186h78l-170 -232z" />
    <glyph glyph-name="Y" unicode="Y" horiz-adv-x="396" 
d="M230 0h-62v208l-174 268h73l132 -214l131 214h72l-172 -267v-209z" />
    <glyph glyph-name="Z" unicode="Z" horiz-adv-x="451" 
d="M426 0h-399v40l309 382h-293l11 54h369v-41l-309 -381h324z" />
    <glyph glyph-name="bracketleft" unicode="[" horiz-adv-x="234" 
d="M204 -77h-158v605h158v-52h-99v-502h99v-51z" />
    <glyph glyph-name="backslash" unicode="\" horiz-adv-x="268" 
d="M302 -27h-64l-260 510h65z" />
    <glyph glyph-name="bracketright" unicode="]" horiz-adv-x="234" 
d="M188 -77h-158v51h99v502h-99v52h158v-605z" />
    <glyph glyph-name="asciicircum" unicode="^" horiz-adv-x="418" 
d="M394 152h-65l-116 253l-116 -253h-65l156 328h51z" />
    <glyph glyph-name="underscore" unicode="_" horiz-adv-x="376" 
d="M376 -175h-376v53h376v-53z" />
    <glyph glyph-name="grave" unicode="`" horiz-adv-x="210" 
d="M166 375h-48l-84 97l57 18z" />
    <glyph glyph-name="a" unicode="a" horiz-adv-x="367" 
d="M330 3l-58.999 -12l-10 44c-34 -29.333 -72.333 -44 -115 -44c-34 0 -62.333 9.16699 -85 27.5s-34.334 43.166 -35.001 74.499c0 84.667 75.667 128 227 130c-6.66699 50 -34 75 -82 75c-36 0 -75.667 -8.33301 -119 -25l-7 57c45.333 13.333 88.333 20 129 20
c94.667 0 142 -48.667 142 -146v-113c0 -25.333 4.66699 -54.666 14 -87.999zM253.001 108v60c-108.667 -2 -163 -25 -163 -69c0 -35.333 19.667 -53 59 -53c22 0 44 5.33301 66 16c25.333 12.667 38 28 38 46z" />
    <glyph glyph-name="b" unicode="b" horiz-adv-x="435" 
d="M409 177c0 -54 -16.834 -98.501 -50.501 -133.501s-75.167 -52.5 -124.5 -52.5s-89.666 15.333 -120.999 46c0 -17.333 -1 -29.666 -3 -36.999h-60c2.66699 32.667 4 63 4 91v413h63v-198c31.333 31.333 72 47 122 47c48.667 0 89.167 -16.833 121.5 -50.5
s48.5 -75.5 48.5 -125.5zM346.999 176.999c0 36 -10.332 65.667 -30.999 89s-48.334 35 -83.001 35c-28 0 -54.333 -9.33301 -79 -28s-37 -40.667 -37 -66v-78c0 -25.333 10.333 -45.5 31 -60.5s47.667 -22.5 81 -22.5c37.333 0 66.333 11.667 87 35s31 55.333 31 96z" />
    <glyph glyph-name="c" unicode="c" horiz-adv-x="347" 
d="M322 21c-32 -20 -71 -30 -117 -30c-54 0 -97.333 16.833 -130 50.5s-49 77.167 -49 130.5c0 54 16.333 97.667 49 131s76 50 130 50c45.333 0 84.333 -10 117 -30l-22 -52c-31.333 19.333 -63.666 29 -96.999 29c-34 0 -61.333 -11.833 -82 -35.5s-31 -54.5 -31 -92.5
c0 -38.667 10.333 -69.667 31 -93s48 -35 82 -35c33.333 0 65.666 9.66699 96.999 29z" />
    <glyph glyph-name="d" unicode="d" horiz-adv-x="435" 
d="M385 0l-60.001 0.000976562c-2 7.33301 -3 19.666 -3 36.999c-31.333 -30.667 -71.666 -46 -120.999 -46s-90.833 17.5 -124.5 52.5s-50.5 79.5 -50.5 133.5c0 50 16.167 91.833 48.5 125.5s72.833 50.5 121.5 50.5c50 0 90.667 -15.667 122 -47v198h63v-413
c0 -28 1.33301 -58.333 4 -91zM317.999 129.001l0.000976562 78c0 25.333 -12.333 47.333 -37 66s-51 28 -79 28c-34.667 0 -62.334 -11.667 -83.001 -35s-31 -53 -31 -89c0 -40.667 10.333 -72.667 31 -96s49.667 -35 87 -35c33.333 0 60.333 7.5 81 22.5
s31 35.167 31 60.5z" />
    <glyph glyph-name="e" unicode="e" horiz-adv-x="391" 
d="M351 18c-48.667 -18 -95 -26.999 -139 -26.999c-54 0 -98.5 16.167 -133.5 48.5s-52.5 74.166 -52.5 125.499c0 56.667 17.333 102.667 52 138c34 33.333 77.333 50 130 50c102.667 0 155 -64.333 157 -193h-277c2.66699 -36 15.5 -63.833 38.5 -83.5
s52.833 -29.5 89.5 -29.5c37.333 0 80 8.66699 128 26zM303 213.001c-3.33301 26 -14 47.167 -32 63.5s-41 24.5 -69 24.5c-26.667 0 -50.5 -8.16699 -71.5 -24.5s-33.833 -37.5 -38.5 -63.5h211z" />
    <glyph glyph-name="f" unicode="f" horiz-adv-x="254" 
d="M137 0h-63.001v288h-57v52h58c0 114 44.333 171 133 171c28 0 51.667 -7.33301 71 -22l-18 -47c-23.333 10 -41.666 15 -54.999 15c-46 0 -69 -39 -69 -117h97v-52h-97v-288z" />
    <glyph glyph-name="g" unicode="g" horiz-adv-x="332" 
d="M292 -45c0 -31.333 -11.334 -56.6689 -34.001 -76.002s-55.667 -29 -99 -29c-36 0 -73 11.333 -111 34l22 50c35.333 -20.667 66.333 -31 93 -31c20.667 0 37.834 4.83301 51.501 14.5s20.5 21.167 20.5 34.5c0 20 -18.667 37.667 -56 53c-28 11.333 -55 24 -81 38
s-39 32.333 -39 55c0 10.667 3 24.334 9 41.001c-24 26 -36 53.667 -36 83c0 36.667 12.333 66.667 37 90s54.334 35 89.001 35h144v-43h-50c12 -4.66699 21.667 -15.667 29 -33c6 -14 9 -28 9 -42c0 -39.333 -10.833 -70.5 -32.5 -93.5s-52.834 -34.5 -93.501 -34.5
c-14.667 0 -29 2.33301 -43 7c-3.33301 -3.33301 -5 -7.66602 -5 -12.999c0 -10 24 -21.667 72 -35c69.333 -19.333 104 -54.333 104 -105zM236.999 223.997c0 20 -7.16699 37 -21.5 51s-31.5 21 -51.5 21s-37.167 -7 -51.5 -21s-21.5 -31 -21.5 -51
s7.16699 -36.833 21.5 -50.5s31.5 -20.5 51.5 -20.5c24 0 42.167 6.83301 54.5 20.5s18.5 30.5 18.5 50.5z" />
    <glyph glyph-name="h" unicode="h" horiz-adv-x="423" 
d="M373 0h-63v191c0 30 -8.16699 54.833 -24.5 74.5s-38.5 29.5 -66.5 29.5s-52.667 -10 -74 -30s-32 -42 -32 -66v-199h-63v504h63v-201c30.667 30.667 69 46 115 46c45.333 0 80.833 -14.167 106.5 -42.5s38.5 -66.5 38.5 -114.5v-192z" />
    <glyph glyph-name="i" unicode="i" horiz-adv-x="163" 
d="M113 0h-63v340h63v-340zM128 440c0 -13.333 -4.66699 -24.666 -14 -33.999s-20.666 -14 -33.999 -14s-24.666 4.66699 -33.999 14s-14 20.666 -14 33.999s4.66699 24.666 14 33.999s20.666 14 33.999 14s24.666 -4.66699 33.999 -14s14 -20.666 14 -33.999z" />
    <glyph glyph-name="j" unicode="j" horiz-adv-x="171" 
d="M121 18c0 -103.333 -54 -156.334 -162 -159.001l-7 51c45.333 3.33301 74.333 13.333 87 30s19 51.334 19 104.001v296h63v-322zM137 439.999c0 -13.333 -4.66699 -24.666 -14 -33.999s-20.666 -14 -33.999 -14s-24.666 4.66699 -33.999 14s-14 20.666 -14 33.999
s4.66699 24.666 14 33.999s20.666 14 33.999 14s24.666 -4.66699 33.999 -14s14 -20.666 14 -33.999z" />
    <glyph glyph-name="k" unicode="k" horiz-adv-x="340" 
d="M358 6l-65 -16l-156 174l-24 -20v-144h-63v504h63v-287l152 130l69 -12l-153 -135z" />
    <glyph glyph-name="l" unicode="l" horiz-adv-x="213" 
d="M199 -8c-99.333 5.33301 -149 66.332 -149 182.999v329h63v-315c0 -51.333 8 -87.666 24 -108.999c14 -18 37 -28.333 69 -31z" />
    <glyph glyph-name="m" unicode="m" horiz-adv-x="636" 
d="M586 0l-62.9971 0.00195312v188c0 30.667 -7 56 -21 76c-16 22 -37 33 -63 33c-22 0 -42.5 -8.66699 -61.5 -26s-28.5 -36 -28.5 -56v-215h-63v205c0 61.333 -25.667 92 -77 92c-22.667 0 -44.334 -10.167 -65.001 -30.5s-31 -41.5 -31 -63.5v-203h-63v250
c0 41.333 -2.66699 71.666 -8 90.999h59c4.66699 -11.333 7 -24.333 7 -39c9.33301 13.333 24.666 24.666 45.999 33.999s42.333 14 63 14c44 0 79.333 -18.667 106 -56c35.333 37.333 78 56 128 56c39.333 0 71.666 -14.833 96.999 -44.5s38 -68.5 38 -116.5v-189z" />
    <glyph glyph-name="n" unicode="n" horiz-adv-x="423" 
d="M373 0l-63.001 0.000976562v193c0 69.333 -31.667 104 -95 104c-23.333 0 -46.166 -10.5 -68.499 -31.5s-33.5 -41.833 -33.5 -62.5v-203h-63v250c0 41.333 -2.66699 71.666 -8 90.999h59c4.66699 -11.333 7 -25 7 -41c32 33.333 70.667 50 116 50s81.5 -14 108.5 -42
s40.5 -66.333 40.5 -115v-193z" />
    <glyph glyph-name="o" unicode="o" horiz-adv-x="412" 
d="M386 172c0 -50.667 -17 -93.334 -51 -128.001s-77 -52 -129 -52s-95 17.333 -129 52s-51 77.334 -51 128.001s17 93.5 51 128.5s77 52.5 129 52.5s95 -17.5 129 -52.5s51 -77.833 51 -128.5zM324 172c0 36 -11 66.167 -33 90.5s-50.333 36.5 -85 36.5
s-63 -12.167 -85 -36.5s-33 -54.5 -33 -90.5s11 -66.167 33 -90.5s50.333 -36.5 85 -36.5s63 12.167 85 36.5s33 54.5 33 90.5z" />
    <glyph glyph-name="p" unicode="p" horiz-adv-x="431" 
d="M405 179c0 -55.333 -17 -100.501 -51 -135.501s-76.333 -52.5 -127 -52.5c-46.667 0 -84.667 13.667 -114 41v-175h-63v373c0 55.333 -1.33301 94 -4 116h62l7 -37c35.333 29.333 75.333 44 120 44c49.333 0 90 -16.667 122 -50s48 -74.666 48 -123.999zM344 177.999
c0 34.667 -10.833 63.832 -32.5 87.499s-49.167 35.5 -82.5 35.5c-26.667 0 -52.667 -10.667 -78 -32s-38 -45 -38 -71v-56c0 -26 10.833 -48.5 32.5 -67.5s48.167 -28.5 79.5 -28.5c37.333 0 66.5 11.833 87.5 35.5s31.5 55.834 31.5 96.501z" />
    <glyph glyph-name="q" unicode="q" horiz-adv-x="431" 
d="M381 -143l-63 0.000976562v175c-29.333 -27.333 -67.333 -41 -114 -41c-50.667 0 -93 17.5 -127 52.5s-51 80.167 -51 135.5c0 49.333 16 90.666 48 123.999s72.667 50 122 50c44.667 0 84.667 -14.667 120 -44l7 37h62c-2.66699 -22 -4 -60.667 -4 -116v-373z
M318 142.001v56.002c0 26 -12.667 49.667 -38 71s-51.333 32 -78 32c-33.333 0 -60.833 -11.833 -82.5 -35.5s-32.5 -52.834 -32.5 -87.501c0 -40.667 10.5 -72.834 31.5 -96.501s50.167 -35.5 87.5 -35.5c31.333 0 57.833 9.5 79.5 28.5s32.5 41.5 32.5 67.5z" />
    <glyph glyph-name="r" unicode="r" horiz-adv-x="246" 
d="M113 0h-63v225c0 53.333 -4 93.333 -12 120h56c7.33301 -12 11 -28 11 -48c6 12.667 18.5 24.667 37.5 36s37.833 17 56.5 17c13.333 0 24 -1 32 -3v-54c-5.33301 1.33301 -13 2 -23 2c-63.333 0 -95 -38 -95 -114v-181z" />
    <glyph glyph-name="s" unicode="s" horiz-adv-x="296" 
d="M271 97c0 -31.333 -12.1689 -56.834 -36.502 -76.501s-57.166 -29.5 -98.499 -29.5c-34 0 -70.667 11 -110 33l25 50c27.333 -18.667 56.666 -28 87.999 -28c46.667 0 70 16 70 48c0 24.667 -22.667 44 -68 58c-66.667 20.667 -100 52.334 -100 95.001
c0 28.667 11.167 52.834 33.5 72.501s52.5 29.5 90.5 29.5c38.667 0 71.334 -9.66699 98.001 -29l-23 -46c-23.333 17.333 -49.666 26 -78.999 26c-17.333 0 -31.833 -4.5 -43.5 -13.5s-17.5 -20.5 -17.5 -34.5c0 -17.333 24.333 -34.333 73 -51
c65.333 -22.667 98 -57.334 98 -104.001z" />
    <glyph glyph-name="t" unicode="t" horiz-adv-x="258" 
d="M242 5c-22 -9.33301 -44 -14 -66 -14c-30.667 0 -54.834 10.333 -72.501 31s-26.5 49 -26.5 85v181h-68v52h68v93l63 27v-120h109v-52h-109v-180c0 -40.667 13 -61 39 -61c16.667 0 35.334 3.66699 56.001 11z" />
    <glyph glyph-name="u" unicode="u" horiz-adv-x="418" 
d="M389 4l-61 -12c-6.66699 16 -12.667 35.333 -18 58c-40 -39.333 -79.667 -59 -119 -59c-94 0 -141 54.333 -141 163v186h63v-180c0 -75.333 28.667 -113 86 -113c24 0 47.667 9.16699 71 27.5s35 39.833 35 64.5v201h63v-249c0 -22.667 7 -51.667 21 -87z" />
    <glyph glyph-name="v" unicode="v" horiz-adv-x="358" 
d="M204 0h-50l-158 340h66l117 -262l117 262h66z" />
    <glyph glyph-name="w" unicode="w" horiz-adv-x="480" 
d="M399 0h-53l-106 273l-106 -273h-53l-85 340h65l51 -257l102 257h52l102 -257l51 257h65z" />
    <glyph glyph-name="x" unicode="x" horiz-adv-x="349" 
d="M360 0h-77l-109 131l-108 -131h-77l148 174l-139 166h76l101 -120l100 120h76l-139 -166z" />
    <glyph glyph-name="y" unicode="y" horiz-adv-x="361" 
d="M208 7c-42 -88.667 -100.667 -141.332 -176 -157.999l-16 52c59.333 13.333 103 54.666 131 123.999l-151 315h69l118 -252l112 252h69z" />
    <glyph glyph-name="z" unicode="z" horiz-adv-x="358" 
d="M330 0h-310v38l226 249h-216l12 53h290v-41l-225 -246h232z" />
    <glyph glyph-name="braceleft" unicode="{" horiz-adv-x="255" 
d="M221 -88l-23 0.000976562c-80 0 -120 34 -120 102c0 13.333 2.33301 34.833 7 64.5s7 50.5 7 62.5c0 24 -20.667 36.667 -62 38v52c41.333 1.33301 62 13.666 62 36.999c0 14 -2.33301 35.833 -7 65.5s-7 50.5 -7 62.5c0 68 40 102 120 102h23v-52h-26
c-36.667 0 -56 -17.333 -58 -52c9.33301 -56.667 14 -97.667 14 -123c0 -14.667 -4.16699 -28.5 -12.5 -41.5s-18.166 -21.167 -29.499 -24.5c28 -11.333 42 -33.666 42 -66.999c0 -24.667 -4.66699 -65.334 -14 -122.001c1.33301 -35.333 20.666 -53 57.999 -53h26v-51z
" />
    <glyph glyph-name="bar" unicode="|" horiz-adv-x="177" 
d="M117 -166h-57v692h57v-692z" />
    <glyph glyph-name="braceright" unicode="}" horiz-adv-x="255" 
d="M228 179c-41.333 -1.33301 -62.001 -14 -62.001 -38c0 -12 2.33301 -32.833 7 -62.5s7 -51.167 7 -64.5c0 -68 -40 -102 -120 -102h-23v51h26c38.667 0 58 16.333 58 49c0 15.333 -2.33301 36.833 -7 64.5s-7 48.167 -7 61.5c0 33.333 14 55.666 42 66.999
c-11.333 3.33301 -21.166 11.5 -29.499 24.5s-12.5 26.833 -12.5 41.5s2.33301 36 7 64s7 49 7 63c0 32 -19.333 48 -58 48h-26v52h23c80 0 120 -34 120 -102c0 -12 -2.33301 -32.833 -7 -62.5s-7 -51.5 -7 -65.5c0 -23.333 20.667 -35.666 62 -36.999v-52z" />
    <glyph glyph-name="asciitilde" unicode="~" horiz-adv-x="422" 
d="M408 243c0 -30.667 -8.33398 -54.832 -25.001 -72.499s-38.334 -26.5 -65.001 -26.5c-16 0 -51.167 10.333 -105.5 31s-87.166 31 -98.499 31c-23.333 0 -35.666 -20.667 -36.999 -62h-55v19c0 29.333 8.83301 52.666 26.5 69.999s39.5 26 65.5 26
c18 0 53.667 -9.83301 107 -29.5s86.333 -29.5 99 -29.5c20.667 0 32 19.667 34 59h54v-16z" />
    <glyph glyph-name="Zcaron" horiz-adv-x="451" 
d="M426 0h-399v40l309 382h-293l11 54h369v-41l-309 -381h324zM242 521h-35l-77 115h54l41 -71l40 71h55z" />
    <glyph glyph-name="Zcaron" unicode="&#x17d;" horiz-adv-x="451" 
d="M426 0h-399v40l309 382h-293l11 54h369v-41l-309 -381h324zM242 521h-35l-77 115h54l41 -71l40 71h55z" />
    <glyph glyph-name="zcaron" horiz-adv-x="358" 
d="M330 0h-310v38l226 249h-216l12 53h290v-41l-225 -246h232zM196 385h-35l-77 115h54l41 -71l40 71h55z" />
    <glyph glyph-name="zcaron" unicode="&#x17e;" horiz-adv-x="358" 
d="M330 0h-310v38l226 249h-216l12 53h290v-41l-225 -246h232zM196 385h-35l-77 115h54l41 -71l40 71h55z" />
    <glyph glyph-name="nonbreakingspace" unicode="&#xa0;" horiz-adv-x="220" 
 />
    <glyph glyph-name="exclamdown" unicode="&#xa1;" horiz-adv-x="168" 
d="M120 -141h-72l7 337h56zM132 296c0 -13.333 -4.66699 -24.666 -14 -33.999s-20.666 -14 -33.999 -14s-24.666 4.66699 -33.999 14s-14 20.666 -14 33.999s4.66699 24.666 14 33.999s20.666 14 33.999 14s24.666 -4.66699 33.999 -14s14 -20.666 14 -33.999z" />
    <glyph glyph-name="cent" unicode="&#xa2;" horiz-adv-x="480" 
d="M418 52c-35.333 -19.333 -79.666 -29.666 -132.999 -30.999v-77h-55v80c-52 9.33301 -93.167 32.166 -123.5 68.499s-45.5 81.833 -45.5 136.5s15.167 100.167 45.5 136.5s71.5 59.166 123.5 68.499v80h55v-77c53.333 -1.33301 97.666 -11.666 132.999 -30.999l-21 -48
c-16.667 7.33301 -34 13 -52 17s-36.667 6 -56 6c-52.667 0 -93.834 -13.333 -123.501 -40s-44.5 -64 -44.5 -112s14.833 -85.333 44.5 -112s70.834 -40 123.501 -40c19.333 0 38 2 56 6s35.333 9.66699 52 17z" />
    <glyph glyph-name="sterling" unicode="&#xa3;" horiz-adv-x="480" 
d="M391 0h-302v37c54.667 34 82 75.333 82 124c0 5.33301 -0.333008 12.333 -1 21s-1.66699 17.667 -3 27h-77v46h71c-1.33301 14 -2.5 26.833 -3.5 38.5s-1.5 23.167 -1.5 34.5c0 93.333 43.667 140 131 140c26.667 0 57 -7.66699 91 -23l-18 -42
c-29.333 12 -54.333 18 -75 18c-53.333 0 -80 -31 -80 -93c0 -25.333 2.33301 -49.666 7 -72.999h111v-46h-103c0.666992 -5.33301 1.16699 -11.833 1.5 -19.5s0.5 -14.834 0.5 -21.501c0 -48.667 -14 -89 -42 -121h211v-47z" />
    <glyph glyph-name="currency" unicode="&#xa4;" horiz-adv-x="480" 
d="M427 226c0 -39.333 -11.333 -74.666 -34 -105.999l37 -39l-43 -46l-39 41c-29.333 -23.333 -65.666 -35 -108.999 -35c-42 0 -77.667 11.667 -107 35l-39 -41l-43 46l37 39c-22.667 31.333 -34 66.666 -34 105.999s11.333 74.666 34 105.999l-37 39l43 46l39 -41
c29.333 23.333 65 35 107 35c43.333 0 79.666 -11.667 108.999 -35l39 41l43 -46l-37 -39c22.667 -31.333 34 -66.666 34 -105.999zM365 226c0 34 -12.333 63.333 -37 88s-54 37 -88 37c-35.333 0 -65 -12.333 -89 -37s-36 -54 -36 -88c0 -35.333 12 -65 36 -89
s53.667 -36 89 -36c34 0 63.333 12 88 36s37 53.667 37 89z" />
    <glyph glyph-name="yen" unicode="&#xa5;" horiz-adv-x="480" 
d="M384 91h-115v-73h-58v73h-115v50h115v32h-115v50h105l-145 238h70l113 -190l114 190h71l-146 -237h106v-51h-115v-32h115v-50z" />
    <glyph glyph-name="brokenbar" unicode="&#xa6;" horiz-adv-x="161" 
d="M104 220h-48v256h48v-256zM104 -119h-48v257h48v-257z" />
    <glyph glyph-name="section" unicode="&#xa7;" horiz-adv-x="380" 
d="M307 71c0 -34 -12.1689 -60.666 -36.502 -79.999s-55.166 -29 -92.499 -29c-42 0 -78.667 12.667 -110 38l23 42c13.333 -12.667 27.333 -21.667 42 -27s30.334 -8 47.001 -8c24 0 43.167 5.5 57.5 16.5s21.5 25.167 21.5 42.5c0 23.333 -16 43 -48 59l-52 20.5
c-18 7 -35.333 14.167 -52 21.5c-35.333 17.333 -53 44.666 -53 81.999c0 28.667 13 54.667 39 78c-12 15.333 -18 32.666 -18 51.999c0 30 11.333 54.333 34 73s52.667 28 90 28c17.333 0 34.833 -2.66699 52.5 -8s35.167 -12.666 52.5 -21.999l-25 -43
c-26.667 19.333 -55 29 -85 29c-19.333 0 -35.666 -4.83301 -48.999 -14.5s-20 -21.834 -20 -36.501c0 -7.33301 2.16699 -14 6.5 -20s10.166 -11.667 17.499 -17c5.33301 -3.33301 14 -7.5 26 -12.5s26 -10.167 42 -15.5c34 -12 60.5 -27.167 79.5 -45.5
s28.5 -39.166 28.5 -62.499c0 -15.333 -3.33301 -29.833 -10 -43.5s-15.667 -26.834 -27 -39.501c12.667 -15.333 19 -34.666 19 -57.999zM273.998 207.001c0 11.333 -6.5 22.835 -19.5 34.502s-29.5 21.167 -49.5 28.5c-17.333 6 -32.5 11.667 -45.5 17
s-23.833 10 -32.5 14c-16.667 -14.667 -25 -31.334 -25 -50.001c0 -8 2.66699 -15.167 8 -21.5s12.666 -12.833 21.999 -19.5c6.66699 -3.33301 15.5 -7.5 26.5 -12.5s25.167 -10.5 42.5 -16.5c12.667 -4.66699 23.334 -8.83398 32.001 -12.501s16 -7.5 22 -11.5
c7.33301 8.66699 12.333 17 15 25s4 16.333 4 25z" />
    <glyph glyph-name="dieresis" unicode="&#xa8;" horiz-adv-x="341" 
d="M140 425c0 -12.667 -4.33301 -23.167 -13 -31.5s-18.667 -12.5 -30 -12.5c-12 0 -22.333 4.16699 -31 12.5s-13 18.833 -13 31.5c0 12 4.33301 22.333 13 31s19 13 31 13c11.333 0 21.333 -4.33301 30 -13s13 -19 13 -31zM288 425c0 -12.667 -4.33301 -23.167 -13 -31.5
s-18.667 -12.5 -30 -12.5s-21.5 4.16699 -30.5 12.5s-13.5 18.833 -13.5 31.5c0 12 4.5 22.333 13.5 31s19.167 13 30.5 13s21.333 -4.33301 30 -13s13 -19 13 -31z" />
    <glyph glyph-name="copyright" unicode="&#xa9;" horiz-adv-x="540" 
d="M371 117c-25.333 -19.333 -59.666 -29 -102.999 -29c-44.667 0 -80 14 -106 42s-39 62.333 -39 103c0 46.667 13.667 83.5 41 110.5s63.666 40.5 108.999 40.5c40.667 0 71.667 -8 93 -24l-12 -36c-25.333 14.667 -52.333 22 -81 22c-69.333 0 -104 -36 -104 -108
c0 -72.667 35 -109 105 -109c32.667 0 60.667 8.33301 84 25zM513 240c0 -66.667 -23.833 -123.834 -71.5 -171.501s-104.834 -71.5 -171.501 -71.5s-123.834 23.833 -171.501 71.5s-71.5 104.834 -71.5 171.501s23.833 123.834 71.5 171.501s104.834 71.5 171.501 71.5
s123.834 -23.833 171.501 -71.5s71.5 -104.834 71.5 -171.501zM471 240c0 55.333 -19.667 102.666 -59 141.999s-86.666 59 -141.999 59s-102.666 -19.667 -141.999 -59s-59 -86.666 -59 -141.999s19.667 -102.666 59 -141.999s86.666 -59 141.999 -59
s102.666 19.667 141.999 59s59 86.666 59 141.999z" />
    <glyph glyph-name="ordfeminine" unicode="&#xaa;" horiz-adv-x="252" 
d="M225 248l-43.001 0.00292969c-1.33301 3.33301 -2.33301 7.16602 -3 11.499s-1.66699 9.16602 -3 14.499c-18.667 -19.333 -42 -29 -70 -29c-53.333 0 -80 24 -80 72c0 53.333 49 81 147 83c-1.33301 16.667 -7.16602 28.5 -17.499 35.5s-22.166 10.5 -35.499 10.5
c-11.333 0 -22.833 -1.33301 -34.5 -4s-23.167 -8 -34.5 -16l-14 34c14 9.33301 28.667 16 44 20s30.666 6 45.999 6c60 0 90 -36.667 90 -110v-84c0 -3.33301 0.5 -8.83301 1.5 -16.5s3.16699 -16.834 6.5 -27.501zM172.999 324.003v39c-36 0 -62.167 -3.83301 -78.5 -11.5
s-24.5 -19.167 -24.5 -34.5c0 -23.333 14 -35 42 -35c6 0 12.5 1 19.5 3s13.667 4.83301 20 8.5s11.5 8 15.5 13s6 10.833 6 17.5z" />
    <glyph glyph-name="guillemotleft" unicode="&#xab;" horiz-adv-x="356" 
d="M326 47h-60l-114 132l114 135h59l-113 -134zM204 47h-61l-113 132l111 136h62l-114 -136z" />
    <glyph glyph-name="logicalnot" unicode="&#xac;" horiz-adv-x="448" 
d="M403 88h-48v146h-321v45h369v-191z" />
    <glyph glyph-name="registered" unicode="&#xae;" horiz-adv-x="540" 
d="M379 89l-39 0.000976562c-12 87.333 -38 131 -78 131h-50v-131h-41v295c30.667 5.33301 58 8 82 8c35.333 0 63.5 -7.5 84.5 -22.5s31.5 -35.5 31.5 -61.5c0 -34.667 -16.333 -59.334 -49 -74.001c16 -11.333 28.167 -27 36.5 -47s15.833 -52.667 22.5 -98zM332 305.001
c0 34.667 -26.332 52 -78.999 52c-16.667 0 -30.334 -0.666992 -41.001 -2v-102h47c48.667 0 73 17.333 73 52zM513.001 240.001c0 -66.667 -23.833 -123.834 -71.5 -171.501s-104.834 -71.5 -171.501 -71.5s-123.834 23.833 -171.501 71.5s-71.5 104.834 -71.5 171.501
s23.833 123.834 71.5 171.501s104.834 71.5 171.501 71.5s123.834 -23.833 171.501 -71.5s71.5 -104.834 71.5 -171.501zM471.001 240.001c0 55.333 -19.667 102.666 -59 141.999s-86.666 59 -141.999 59s-102.666 -19.667 -141.999 -59s-59 -86.666 -59 -141.999
s19.667 -102.666 59 -141.999s86.666 -59 141.999 -59s102.666 19.667 141.999 59s59 86.666 59 141.999z" />
    <glyph glyph-name="macron" unicode="&#xaf;" horiz-adv-x="376" 
d="M376 528h-376v53h376v-53z" />
    <glyph glyph-name="degree" unicode="&#xb0;" horiz-adv-x="277" 
d="M227 397c0 -24.667 -8.66699 -45.667 -26 -63s-38.333 -26 -63 -26s-45.667 8.66699 -63 26s-26 38.333 -26 63s8.66699 45.667 26 63s38.333 26 63 26s45.667 -8.66699 63 -26s26 -38.333 26 -63zM195 397c0 15.333 -5.66699 28.666 -17 39.999s-24.666 17 -39.999 17
s-28.666 -5.66699 -39.999 -17s-17 -24.666 -17 -39.999s5.66699 -28.666 17 -39.999s24.666 -17 39.999 -17s28.666 5.66699 39.999 17s17 24.666 17 39.999z" />
    <glyph glyph-name="plusminus" unicode="&#xb1;" horiz-adv-x="440" 
d="M405 0h-369v55h369v-55zM400 217h-148v-139h-63v139h-148v55h148v151h63v-151h148v-55z" />
    <glyph glyph-name="twosuperior" unicode="&#xb2;" horiz-adv-x="260" 
d="M217 190l-189.999 0.00195312c0 20.667 7.5 40.5 22.5 59.5s31.333 37.167 49 54.5s34 34.166 49 50.499s22.5 32.166 22.5 47.499c0 11.333 -3.16699 20 -9.5 26s-14.5 9 -24.5 9c-12.667 0 -24 -4.66699 -34 -14s-15.667 -23 -17 -41l-42 8
c3.33301 30 13 52.833 29 68.5s36.333 23.5 61 23.5c25.333 0 45.833 -7.16699 61.5 -21.5s23.5 -33.833 23.5 -58.5c0 -14 -4.33301 -29.333 -13 -46s-22.334 -34.667 -41.001 -54l-65 -67h124z" />
    <glyph glyph-name="threesuperior" unicode="&#xb3;" horiz-adv-x="260" 
d="M228 294c0 -32 -10.4971 -57.666 -31.4971 -76.999s-49.5 -29.333 -85.5 -30c-27.333 0 -52.333 8.33301 -75 25l20 42c9.33301 -8 18.666 -13.333 27.999 -16s18.666 -4 27.999 -4c21.333 0 38.166 5.5 50.499 16.5s18.5 25.167 18.5 42.5c0 11.333 -3.5 20 -10.5 26
s-15.167 9 -24.5 9c-8 0 -16 -1.5 -24 -4.5s-14.667 -6.5 -20 -10.5l-16 30c26 12 45.5 24.5 58.5 37.5s19.5 24.833 19.5 35.5c0 14.667 -9.33301 22 -28 22c-11.333 0 -22.333 -3.83301 -33 -11.5s-18.667 -19.167 -24 -34.5l-37 19c20.667 48 53 72 97 72
c46 0 69 -19.667 69 -59c0 -22.667 -10.667 -43.334 -32 -62.001c34.667 -10 52 -32.667 52 -68z" />
    <glyph glyph-name="acute" unicode="&#xb4;" horiz-adv-x="259" 
d="M100 366h-47l75 115h78z" />
    <glyph glyph-name="mu" unicode="&#xb5;" horiz-adv-x="414" 
d="M386 4l-61.001 -11.998c-3.33301 7.33301 -6.16602 14.833 -8.49902 22.5s-4.5 16.167 -6.5 25.5c-18.667 -14.667 -37.834 -26.5 -57.501 -35.5s-41.167 -13.5 -64.5 -13.5c-15.333 0 -29.833 2.66699 -43.5 8s-25.167 13.666 -34.5 24.999v-165h-63v483h63v-182
c0 -75.333 28.667 -113 86 -113c24.667 0 48.5 8.5 71.5 25.5s34.5 39.167 34.5 66.5v203h63v-251c0 -12 1.83301 -25.333 5.5 -40s8.83398 -30.334 15.501 -47.001z" />
    <glyph glyph-name="paragraph" unicode="&#xb6;" horiz-adv-x="380" 
d="M324 -63h-34v506h-48v-506h-35v243h-4c-40 0 -75.833 12.5 -107.5 37.5s-47.5 59.5 -47.5 103.5c0 102.667 66 154 198 154c35.333 0 61.333 -1.66699 78 -5v-533z" />
    <glyph glyph-name="periodcentered" unicode="&#xb7;" horiz-adv-x="172" 
d="M134 182c0 -13.333 -4.66699 -24.666 -14 -33.999s-20.666 -14 -33.999 -14s-24.666 4.66699 -33.999 14s-14 20.666 -14 33.999s4.66699 24.666 14 33.999s20.666 14 33.999 14s24.666 -4.66699 33.999 -14s14 -20.666 14 -33.999z" />
    <glyph glyph-name="cedilla" unicode="&#xb8;" horiz-adv-x="249" 
d="M196 -90c0 -21.333 -7.00098 -38.168 -21.001 -50.501s-33.667 -18.5 -59 -18.5c-9.33301 0 -19.666 1.5 -30.999 4.5s-22 7.5 -32 13.5l14 32c9.33301 -4.66699 18.833 -8.33398 28.5 -11.001s17.167 -4 22.5 -4c21.333 0 32 10 32 30c0 18.667 -21.333 31.667 -64 39
l43 66h43l-28 -39c18 -5.33301 31.167 -13.166 39.5 -23.499s12.5 -23.166 12.5 -38.499z" />
    <glyph glyph-name="onesuperior" unicode="&#xb9;" horiz-adv-x="260" 
d="M210 195h-134v39h43v180l-40 -38l-25 34l83 74c10 0 17.667 -3.16699 23 -9.5s8 -14.5 8 -24.5v-216h42v-39z" />
    <glyph glyph-name="ordmasculine" unicode="&#xba;" horiz-adv-x="294" 
d="M274 359c0 -36 -12.5 -66.167 -37.5 -90.5s-55.167 -36.5 -90.5 -36.5c-36 0 -66.167 12.167 -90.5 36.5s-36.5 54.5 -36.5 90.5c0 35.333 12.167 65.5 36.5 90.5s54.5 37.5 90.5 37.5c35.333 0 65.5 -12.5 90.5 -37.5s37.5 -55.167 37.5 -90.5zM230 359
c0 22.667 -8.33301 42.334 -25 59.001s-36.334 25 -59.001 25s-42.167 -8.33301 -58.5 -25s-24.5 -36.334 -24.5 -59.001s8.16699 -42.167 24.5 -58.5s35.833 -24.5 58.5 -24.5s42.334 8.16699 59.001 24.5s25 35.833 25 58.5z" />
    <glyph glyph-name="guillemotright" unicode="&#xbb;" horiz-adv-x="356" 
d="M90 47h-60l114 133l-113 134h59l114 -135zM213 47h-61l115 132l-114 136h62l111 -136z" />
    <glyph glyph-name="onequarter" unicode="&#xbc;" horiz-adv-x="542" 
d="M180 176h-134v39h43v174l-38 -33l-28 36l84 74c20.667 -1.33301 31 -13 31 -35v-216h42v-39zM158 -9h-50l287 483h50zM415 108v117.999c-15.333 -13.333 -28.5 -31.166 -39.5 -53.499s-17.833 -43.833 -20.5 -64.5h60zM464 -0.000976562l-49 -0.000976562v60h-112
c0 21.333 3.33301 45.333 10 72s16.667 51.834 30 75.501s30.5 43.667 51.5 60s44.167 24.833 69.5 25.5v-185h42l-2 -48h-40v-60z" />
    <glyph glyph-name="onehalf" unicode="&#xbd;" horiz-adv-x="542" 
d="M520 0l-190 0.00488281c2 25.333 10.5 47.666 25.5 66.999s30.833 36.666 47.5 51.999l24.5 23.5c8.33301 7.66699 15.833 15.5 22.5 23.5s12.167 15.833 16.5 23.5s6.5 15.167 6.5 22.5c0 9.33301 -2.83301 17.333 -8.5 24s-14.167 10 -25.5 10
c-27.333 0 -43.333 -18 -48 -54l-45 8c2.66699 30 12.167 52.833 28.5 68.5s36.833 23.5 61.5 23.5c25.333 0 46 -7 62 -21s24 -33.667 24 -59c0 -16.667 -4.83301 -32.334 -14.5 -47.001s-21 -28.834 -34 -42.501s-26.167 -26.834 -39.5 -39.501s-24 -25 -32 -37h124z
M158 -8.99512h-50l287 483h50zM180 176.005h-134v39h43v174l-38 -33l-28 36l84 74c20.667 -1.33301 31 -13 31 -35v-216h42v-39z" />
    <glyph glyph-name="threequarters" unicode="&#xbe;" horiz-adv-x="542" 
d="M158 -9h-50l287 483h50zM223 285c0 -17.333 -3.32812 -32.6621 -9.99512 -45.9951s-15.334 -24.5 -26.001 -33.5s-23.167 -15.833 -37.5 -20.5s-28.833 -7 -43.5 -7c-27.333 0 -52.333 8.33301 -75 25l20 43c9.33301 -7.33301 18.666 -12.833 27.999 -16.5
s18.666 -5.5 27.999 -5.5c21.333 0 38.166 5.66699 50.499 17s18.5 25.666 18.5 42.999c0 23.333 -11 35 -33 35c-16.667 0 -32 -6 -46 -18l-16 30c29.333 15.333 49.166 29 59.499 41s15.5 24.667 15.5 38c0 5.33301 -2 9.83301 -6 13.5s-10.333 5.5 -19 5.5
c-26.667 0 -45.667 -16.333 -57 -49l-37 19c20 48 52.333 72 97 72c23.333 0 40.5 -5.33301 51.5 -16s16.5 -23.334 16.5 -38.001c0 -22.667 -10.333 -43.334 -31 -62.001c18 -2.66699 31.167 -10.334 39.5 -23.001s12.5 -28.334 12.5 -47.001zM415.005 108.004v117.999
c-15.333 -13.333 -28.5 -31.166 -39.5 -53.499s-17.833 -43.833 -20.5 -64.5h60zM464.005 0.00292969l-49 -0.000976562v60h-112c0 21.333 3.33301 45.333 10 72s16.667 51.834 30 75.501s30.5 43.667 51.5 60s44.167 24.833 69.5 25.5v-185h42l-2 -48h-40v-60z" />
    <glyph glyph-name="questiondown" unicode="&#xbf;" horiz-adv-x="289" 
d="M265 -114c-39.333 -24.667 -77.667 -36.998 -115 -36.998c-38 0 -68.5 10.167 -91.5 30.5s-34.5 47.5 -34.5 81.5c0 35.333 22 75.666 66 120.999c15.333 15.333 26.666 30.833 33.999 46.5s11.333 30.5 12 44.5c0 11.333 -2.33301 25.333 -7 42h57
c3.33301 -9.33301 5.83301 -17.833 7.5 -25.5s2.5 -14.167 2.5 -19.5c0 -36.667 -19.333 -75.334 -58 -116.001c-34 -36 -51 -66.333 -51 -91c0 -38 23.333 -57 70 -57c28.667 0 56.334 9.66699 83.001 29zM200.999 293.002c0 -13.333 -4.66699 -24.666 -14 -33.999
s-20.333 -14 -33 -14s-23.667 4.66699 -33 14s-14 20.666 -14 33.999s4.66699 24.666 14 33.999s20.333 14 33 14s23.667 -4.66699 33 -14s14 -20.666 14 -33.999z" />
    <glyph glyph-name="Acircumflex" unicode="&#xc2;" horiz-adv-x="451" 
d="M452 0h-69l-63 159h-191l-62 -159h-68l200 483h54zM296 213l-70 198l-74 -198h144zM320 521h-54l-41 71l-40 -71h-55l78 115h35z" />
    <glyph glyph-name="Adieresis" unicode="&#xc4;" horiz-adv-x="451" 
d="M452 0h-69l-63 159h-191l-62 -159h-68l200 483h54zM296 213l-70 198l-74 -198h144zM195 561c0 -12.667 -4.33301 -23.167 -13 -31.5s-18.667 -12.5 -30 -12.5c-12 0 -22.333 4.16699 -31 12.5s-13 18.833 -13 31.5c0 12 4.33301 22.333 13 31s19 13 31 13
c11.333 0 21.333 -4.33301 30 -13s13 -19 13 -31zM343 561c0 -12.667 -4.33301 -23.167 -13 -31.5s-18.667 -12.5 -30 -12.5s-21.5 4.16699 -30.5 12.5s-13.5 18.833 -13.5 31.5c0 12 4.5 22.333 13.5 31s19.167 13 30.5 13s21.333 -4.33301 30 -13s13 -19 13 -31z" />
    <glyph glyph-name="Aring" unicode="&#xc5;" horiz-adv-x="451" 
d="M452 0h-69l-63 159h-191l-62 -159h-68l200 483h54zM296 213l-70 198l-74 -198h144zM305 600c0 -22 -7.83301 -40.833 -23.5 -56.5s-34.5 -23.5 -56.5 -23.5s-40.833 7.83301 -56.5 23.5s-23.5 34.5 -23.5 56.5s7.83301 40.833 23.5 56.5s34.5 23.5 56.5 23.5
s40.833 -7.83301 56.5 -23.5s23.5 -34.5 23.5 -56.5zM263 600c0 10.667 -3.66699 19.667 -11 27s-16.333 11 -27 11s-19.834 -3.66699 -27.501 -11s-11.5 -16.333 -11.5 -27s3.83301 -19.834 11.5 -27.501s16.834 -11.5 27.501 -11.5s19.667 3.83301 27 11.5
s11 16.834 11 27.501z" />
    <glyph glyph-name="AE" unicode="&#xc6;" horiz-adv-x="583" 
d="M555 0h-229l-27 190h-140l-101 -190h-68l259 483h294v-55h-218l19 -147h189v-55h-180l26 -171h176v-55zM291 244l-19 161l-86 -161h105z" />
    <glyph glyph-name="Ccedilla" unicode="&#xc7;" horiz-adv-x="432" 
d="M410 25c-48.667 -21.333 -106.668 -31.999 -174.001 -31.999c-63.333 0 -114.166 22.5 -152.499 67.5s-57.5 103.833 -57.5 176.5c0 72 18.667 130 56 174c41.333 48 99 72 173 72c56.667 0 108.334 -9.66699 155.001 -29l-20 -50c-40 16.667 -84.333 25 -133 25
c-61.333 0 -106.333 -22.667 -135 -68c-21.333 -33.333 -32 -75.333 -32 -126c0 -46.667 11.667 -87.334 35 -122.001c29.333 -44 70.666 -66 123.999 -66c55.333 0 103.333 10 144 30zM286.999 -89.999c0 -21.333 -7.00098 -38.168 -21.001 -50.501
s-33.667 -18.5 -59 -18.5c-9.33301 0 -19.666 1.5 -30.999 4.5s-22 7.5 -32 13.5l14 32c9.33301 -4.66699 18.833 -8.33398 28.5 -11.001s17.167 -4 22.5 -4c21.333 0 32 10 32 30c0 18.667 -21.333 31.667 -64 39l43 66h43l-28 -39
c18 -5.33301 31.167 -13.166 39.5 -23.499s12.5 -23.166 12.5 -38.499z" />
    <glyph glyph-name="Ecircumflex" unicode="&#xca;" horiz-adv-x="358" 
d="M333 0h-283v476h283v-54h-220v-144h196v-54h-196v-170h220v-54zM274 521h-54l-41 71l-40 -71h-55l78 115h35z" />
    <glyph glyph-name="Edieresis" unicode="&#xcb;" horiz-adv-x="358" 
d="M333 0h-283v476h283v-54h-220v-144h196v-54h-196v-170h220v-54zM148 561c0 -12.667 -4.33301 -23.167 -13 -31.5s-18.667 -12.5 -30 -12.5c-12 0 -22.333 4.16699 -31 12.5s-13 18.833 -13 31.5c0 12 4.33301 22.333 13 31s19 13 31 13c11.333 0 21.333 -4.33301 30 -13
s13 -19 13 -31zM296 561c0 -12.667 -4.33301 -23.167 -13 -31.5s-18.667 -12.5 -30 -12.5s-21.5 4.16699 -30.5 12.5s-13.5 18.833 -13.5 31.5c0 12 4.5 22.333 13.5 31s19.167 13 30.5 13s21.333 -4.33301 30 -13s13 -19 13 -31z" />
    <glyph glyph-name="Icircumflex" unicode="&#xce;" horiz-adv-x="163" 
d="M113 0h-63v476h63v-476zM178 521h-54l-41 71l-40 -71h-55l78 115h35z" />
    <glyph glyph-name="Idieresis" unicode="&#xcf;" horiz-adv-x="163" 
d="M113 0h-63v476h63v-476zM52 561c0 -12.667 -4.33301 -23.167 -13 -31.5s-18.667 -12.5 -30 -12.5c-12 0 -22.333 4.16699 -31 12.5s-13 18.833 -13 31.5c0 12 4.33301 22.333 13 31s19 13 31 13c11.333 0 21.333 -4.33301 30 -13s13 -19 13 -31zM200 561
c0 -12.667 -4.33301 -23.167 -13 -31.5s-18.667 -12.5 -30 -12.5s-21.5 4.16699 -30.5 12.5s-13.5 18.833 -13.5 31.5c0 12 4.5 22.333 13.5 31s19.167 13 30.5 13s21.333 -4.33301 30 -13s13 -19 13 -31z" />
    <glyph glyph-name="Eth" unicode="&#xd0;" horiz-adv-x="459" 
d="M433 248c0 -72 -17.3311 -129.668 -51.998 -173.001c-42.667 -52.667 -108.334 -79 -197.001 -79c-27.333 0 -72 3.33301 -134 10v200h-41v54h41v208c76 8.66699 127.333 13 154 13c81.333 0 141.666 -24.333 180.999 -73c32 -39.333 48 -92.666 48 -159.999z
M369.002 247.999c0 119.333 -56 179 -168 179c-18.667 0 -48 -2 -88 -6v-161h160v-54h-160v-153c22 -2 49.667 -3 83 -3c64.667 0 111.667 23 141 69c21.333 34 32 77 32 129z" />
    <glyph glyph-name="Ntilde" unicode="&#xd1;" horiz-adv-x="472" 
d="M422 0h-60l-249 386v-386h-63v476h63l246 -376v376h63v-476zM336 592c-0.666992 -23.333 -5.83398 -41.8311 -15.501 -55.498s-24.167 -20.5 -43.5 -20.5c-5.33301 0 -11.833 1.5 -19.5 4.5s-15.667 6.33301 -24 10l-23.5 10c-7.33301 3 -13.333 4.5 -18 4.5
c-5.33301 0 -8.66602 -2.5 -9.99902 -7.5s-2 -10.5 -2 -16.5h-44c0 20 4.83301 36.833 14.5 50.5s23.5 20.5 41.5 20.5c6 0 12.833 -1.33301 20.5 -4s15.167 -5.83398 22.5 -9.50098s14.5 -6.83398 21.5 -9.50098s12.833 -4 17.5 -4c12.667 0 19 9 19 27h43z" />
    <glyph glyph-name="Ocircumflex" unicode="&#xd4;" horiz-adv-x="518" 
d="M430 238c0 54.667 -15.667 100.5 -47 137.5s-72.666 55.5 -123.999 55.5s-92.666 -18.5 -123.999 -55.5s-47 -82.833 -47 -137.5s15.667 -100.5 47 -137.5s72.666 -55.5 123.999 -55.5s92.666 18.5 123.999 55.5s47 82.833 47 137.5zM492 237
c0 -70 -21.667 -128.667 -65 -176s-99.333 -71 -168 -71s-124.667 23.667 -168 71s-65 106 -65 176s21.667 128.833 65 176.5s99.333 71.5 168 71.5s124.667 -23.833 168 -71.5s65 -106.5 65 -176.5zM354 521h-54l-41 71l-40 -71h-55l78 115h35z" />
    <glyph glyph-name="Odieresis" unicode="&#xd6;" horiz-adv-x="518" 
d="M430 238c0 54.667 -15.667 100.5 -47 137.5s-72.666 55.5 -123.999 55.5s-92.666 -18.5 -123.999 -55.5s-47 -82.833 -47 -137.5s15.667 -100.5 47 -137.5s72.666 -55.5 123.999 -55.5s92.666 18.5 123.999 55.5s47 82.833 47 137.5zM492 237
c0 -70 -21.667 -128.667 -65 -176s-99.333 -71 -168 -71s-124.667 23.667 -168 71s-65 106 -65 176s21.667 128.833 65 176.5s99.333 71.5 168 71.5s124.667 -23.833 168 -71.5s65 -106.5 65 -176.5zM228 561c0 -12.667 -4.33301 -23.167 -13 -31.5s-18.667 -12.5 -30 -12.5
c-12 0 -22.333 4.16699 -31 12.5s-13 18.833 -13 31.5c0 12 4.33301 22.333 13 31s19 13 31 13c11.333 0 21.333 -4.33301 30 -13s13 -19 13 -31zM376 561c0 -12.667 -4.33301 -23.167 -13 -31.5s-18.667 -12.5 -30 -12.5s-21.5 4.16699 -30.5 12.5s-13.5 18.833 -13.5 31.5
c0 12 4.5 22.333 13.5 31s19.167 13 30.5 13s21.333 -4.33301 30 -13s13 -19 13 -31z" />
    <glyph glyph-name="multiply" unicode="&#xd7;" horiz-adv-x="417" 
d="M390 34l-40 -39l-142 148l-71 -74l-70 -74l-40 39l142 148l-71 75.5l-71 75.5l40 39l142 -148l71 74.5l70 73.5l40 -39l-143 -150z" />
    <glyph glyph-name="Oslash" unicode="&#xd8;" horiz-adv-x="518" 
d="M492 237c0 -70 -21.668 -128.667 -65.001 -176s-99.333 -71 -168 -71c-31.333 0 -60 4.66699 -86 14l-16 -32h-64l30 59c-11.333 8.66699 -22 18.667 -32 30c-43.333 47.333 -65 106 -65 176s21.667 128.833 65 176.5s99.333 71.5 168 71.5
c32.667 0 62.334 -5.33301 89.001 -16l12 23h64l-27 -52c10.667 -8 20.667 -17 30 -27c43.333 -47.333 65 -106 65 -176zM322.999 419c-19.333 8 -40.668 12 -64.001 12c-51.333 0 -92.666 -18.5 -123.999 -55.5s-47 -82.833 -47 -137.5s15.667 -100.667 47 -138
c4.66699 -6 9.66699 -11.333 15 -16zM429.997 238c0 54.667 -15.666 100.333 -46.999 137c-4 4.66699 -8 9 -12 13l-172 -333c18 -6.66699 38 -10 60 -10c51.333 0 92.666 18.5 123.999 55.5s47 82.833 47 137.5z" />
    <glyph glyph-name="Ucircumflex" unicode="&#xdb;" horiz-adv-x="482" 
d="M432 203c0 -141.333 -63.667 -212 -191 -212s-191 70.667 -191 212v273h64v-273c0 -105.333 42.333 -158 127 -158s127 52.667 127 158v273h64v-273zM336 521h-54l-41 71l-40 -71h-55l78 115h35z" />
    <glyph glyph-name="Udieresis" unicode="&#xdc;" horiz-adv-x="482" 
d="M432 203c0 -141.333 -63.667 -212 -191 -212s-191 70.667 -191 212v273h64v-273c0 -105.333 42.333 -158 127 -158s127 52.667 127 158v273h64v-273zM210 561c0 -12.667 -4.33301 -23.167 -13 -31.5s-18.667 -12.5 -30 -12.5c-12 0 -22.333 4.16699 -31 12.5
s-13 18.833 -13 31.5c0 12 4.33301 22.333 13 31s19 13 31 13c11.333 0 21.333 -4.33301 30 -13s13 -19 13 -31zM358 561c0 -12.667 -4.33301 -23.167 -13 -31.5s-18.667 -12.5 -30 -12.5s-21.5 4.16699 -30.5 12.5s-13.5 18.833 -13.5 31.5c0 12 4.5 22.333 13.5 31
s19.167 13 30.5 13s21.333 -4.33301 30 -13s13 -19 13 -31z" />
    <glyph glyph-name="Thorn" unicode="&#xde;" horiz-adv-x="394" 
d="M357 249c0 -51.333 -17 -90.5 -51 -117.5s-81.333 -40.5 -142 -40.5c-21.333 0 -38.666 1.33301 -51.999 4v-95h-59v476h59v-73c13.333 2.66699 30.666 4 51.999 4c60.667 0 108 -13.5 142 -40.5s51 -66.167 51 -117.5zM299 249c0 70.667 -44.333 106 -133 106
c-20.667 0 -38.667 -2.66699 -54 -8v-196c15.333 -5.33301 33.333 -8 54 -8c88.667 0 133 35.333 133 106z" />
    <glyph glyph-name="germandbls" unicode="&#xdf;" horiz-adv-x="425" 
d="M376 109c0 -36.667 -11.5 -65.5 -34.5 -86.5s-53.833 -31.5 -92.5 -31.5c-17.333 0 -33.833 2.16699 -49.5 6.5s-31.167 10.5 -46.5 18.5l20 54c30 -16 55.667 -24 77 -24s38 5.5 50 16.5s18 24.5 18 40.5c0 14.667 -5 27.667 -15 39s-21.167 22.5 -33.5 33.5
s-23.5 22.5 -33.5 34.5s-15 26 -15 42c0 8.66699 3.33301 18.167 10 28.5s14.167 20.666 22.5 30.999s15.833 20.333 22.5 30s10 18.5 10 26.5c0 44.667 -24 67 -72 67c-56 0 -84 -51.333 -84 -154v-321c0 -17.333 -2.16699 -34.666 -6.5 -51.999
s-11.166 -34.333 -20.499 -51l-57 15c8.66699 16.667 14.834 32.167 18.501 46.5s5.5 28.166 5.5 41.499v337c0 130 50.333 195 151 195c36 0 65.5 -10.833 88.5 -32.5s34.5 -51.5 34.5 -89.5c0 -15.333 -3.33301 -29.166 -10 -41.499s-13.834 -23.5 -21.501 -33.5
s-14.834 -18.667 -21.501 -26s-10 -14 -10 -20c0 -6.66699 5 -14.5 15 -23.5s20.833 -19.5 32.5 -31.5s22.5 -25 32.5 -39s15 -29.333 15 -46z" />
    <glyph glyph-name="acircumflex" unicode="&#xe2;" horiz-adv-x="367" 
d="M330 3l-58.999 -12l-10 44c-34 -29.333 -72.333 -44 -115 -44c-34 0 -62.333 9.16699 -85 27.5s-34.334 43.166 -35.001 74.499c0 84.667 75.667 128 227 130c-6.66699 50 -34 75 -82 75c-36 0 -75.667 -8.33301 -119 -25l-7 57c45.333 13.333 88.333 20 129 20
c94.667 0 142 -48.667 142 -146v-113c0 -25.333 4.66699 -54.666 14 -87.999zM253.001 108v60c-108.667 -2 -163 -25 -163 -69c0 -35.333 19.667 -53 59 -53c22 0 44 5.33301 66 16c25.333 12.667 38 28 38 46zM266.001 385h-54l-41 71l-40 -71h-55l78 115h35z" />
    <glyph glyph-name="adieresis" unicode="&#xe4;" horiz-adv-x="367" 
d="M330 3l-58.999 -12l-10 44c-34 -29.333 -72.333 -44 -115 -44c-34 0 -62.333 9.16699 -85 27.5s-34.334 43.166 -35.001 74.499c0 84.667 75.667 128 227 130c-6.66699 50 -34 75 -82 75c-36 0 -75.667 -8.33301 -119 -25l-7 57c45.333 13.333 88.333 20 129 20
c94.667 0 142 -48.667 142 -146v-113c0 -25.333 4.66699 -54.666 14 -87.999zM253.001 108v60c-108.667 -2 -163 -25 -163 -69c0 -35.333 19.667 -53 59 -53c22 0 44 5.33301 66 16c25.333 12.667 38 28 38 46zM153.001 425c0 -12.667 -4.33301 -23.167 -13 -31.5
s-18.667 -12.5 -30 -12.5c-12 0 -22.333 4.16699 -31 12.5s-13 18.833 -13 31.5c0 12 4.33301 22.333 13 31s19 13 31 13c11.333 0 21.333 -4.33301 30 -13s13 -19 13 -31zM301.001 425c0 -12.667 -4.33301 -23.167 -13 -31.5s-18.667 -12.5 -30 -12.5
s-21.5 4.16699 -30.5 12.5s-13.5 18.833 -13.5 31.5c0 12 4.5 22.333 13.5 31s19.167 13 30.5 13s21.333 -4.33301 30 -13s13 -19 13 -31z" />
    <glyph glyph-name="aring" unicode="&#xe5;" horiz-adv-x="367" 
d="M330 3l-58.999 -12l-10 44c-34 -29.333 -72.333 -44 -115 -44c-34 0 -62.333 9.16699 -85 27.5s-34.334 43.166 -35.001 74.499c0 84.667 75.667 128 227 130c-6.66699 50 -34 75 -82 75c-36 0 -75.667 -8.33301 -119 -25l-7 57c45.333 13.333 88.333 20 129 20
c94.667 0 142 -48.667 142 -146v-113c0 -25.333 4.66699 -54.666 14 -87.999zM253.001 108v60c-108.667 -2 -163 -25 -163 -69c0 -35.333 19.667 -53 59 -53c22 0 44 5.33301 66 16c25.333 12.667 38 28 38 46zM263.001 464c0 -22 -7.83301 -40.833 -23.5 -56.5
s-34.5 -23.5 -56.5 -23.5s-40.833 7.83301 -56.5 23.5s-23.5 34.5 -23.5 56.5s7.83301 40.833 23.5 56.5s34.5 23.5 56.5 23.5s40.833 -7.83301 56.5 -23.5s23.5 -34.5 23.5 -56.5zM221.001 464c0 10.667 -3.66699 19.667 -11 27s-16.333 11 -27 11
s-19.834 -3.66699 -27.501 -11s-11.5 -16.333 -11.5 -27s3.83301 -19.834 11.5 -27.501s16.834 -11.5 27.501 -11.5s19.667 3.83301 27 11.5s11 16.834 11 27.501z" />
    <glyph glyph-name="ae" unicode="&#xe6;" horiz-adv-x="621" 
d="M580 18c-45.333 -18 -92 -27.002 -140 -27.002c-65.333 0 -115.333 23.333 -150 70c-24.667 -46.667 -72.334 -70 -143.001 -70c-16.667 0 -32.334 2.33301 -47.001 7s-27.5 11.334 -38.5 20.001s-19.667 19.334 -26 32.001s-9.5 27 -9.5 43c0 86.667 76 130.667 228 132
c-1.33301 22.667 -9 41.167 -23 55.5s-33.667 21.5 -59 21.5c-21.333 0 -60.666 -8.66699 -117.999 -26l-8 57c46.667 14 90 21 130 21c30 0 54.833 -4.5 74.5 -13.5s35.167 -24.833 46.5 -47.5c32 40.667 78.333 61 139 61c102.667 0 155.667 -64.667 159 -194h-279
c3.33301 -36.667 16.5 -64.667 39.5 -84s52.5 -29 88.5 -29c38.667 0 82.334 8.66699 131.001 26zM254 169.998c-56.667 -0.666992 -97.833 -6.83301 -123.5 -18.5s-38.5 -29.167 -38.5 -52.5c0 -17.333 5.5 -30.5 16.5 -39.5s24.5 -13.5 40.5 -13.5c32 0 57.5 9 76.5 27
s28.5 43 28.5 75v22zM533.001 212.999c-4.66699 24.667 -15.667 45.667 -33 63s-40 26 -68 26c-29.333 0 -53.5 -7.83301 -72.5 -23.5s-31.5 -37.5 -37.5 -65.5h211z" />
    <glyph glyph-name="ccedilla" unicode="&#xe7;" horiz-adv-x="347" 
d="M322 21c-32 -20 -71 -30 -117 -30c-54 0 -97.333 16.833 -130 50.5s-49 77.167 -49 130.5c0 54 16.333 97.667 49 131s76 50 130 50c45.333 0 84.333 -10 117 -30l-22 -52c-31.333 19.333 -63.666 29 -96.999 29c-34 0 -61.333 -11.833 -82 -35.5s-31 -54.5 -31 -92.5
c0 -38.667 10.333 -69.667 31 -93s48 -35 82 -35c33.333 0 65.666 9.66699 96.999 29zM245 -90c0 -21.333 -7.00098 -38.168 -21.001 -50.501s-33.667 -18.5 -59 -18.5c-9.33301 0 -19.666 1.5 -30.999 4.5s-22 7.5 -32 13.5l14 32
c9.33301 -4.66699 18.833 -8.33398 28.5 -11.001s17.167 -4 22.5 -4c21.333 0 32 10 32 30c0 18.667 -21.333 31.667 -64 39l43 66h43l-28 -39c18 -5.33301 31.167 -13.166 39.5 -23.499s12.5 -23.166 12.5 -38.499z" />
    <glyph glyph-name="ecircumflex" unicode="&#xea;" horiz-adv-x="391" 
d="M351 18c-48.667 -18 -95 -26.999 -139 -26.999c-54 0 -98.5 16.167 -133.5 48.5s-52.5 74.166 -52.5 125.499c0 56.667 17.333 102.667 52 138c34 33.333 77.333 50 130 50c102.667 0 155 -64.333 157 -193h-277c2.66699 -36 15.5 -63.833 38.5 -83.5
s52.833 -29.5 89.5 -29.5c37.333 0 80 8.66699 128 26zM303 213.001c-3.33301 26 -14 47.167 -32 63.5s-41 24.5 -69 24.5c-26.667 0 -50.5 -8.16699 -71.5 -24.5s-33.833 -37.5 -38.5 -63.5h211zM290 385.001h-54l-41 71l-40 -71h-55l78 115h35z" />
    <glyph glyph-name="edieresis" unicode="&#xeb;" horiz-adv-x="391" 
d="M351 18c-48.667 -18 -95 -26.999 -139 -26.999c-54 0 -98.5 16.167 -133.5 48.5s-52.5 74.166 -52.5 125.499c0 56.667 17.333 102.667 52 138c34 33.333 77.333 50 130 50c102.667 0 155 -64.333 157 -193h-277c2.66699 -36 15.5 -63.833 38.5 -83.5
s52.833 -29.5 89.5 -29.5c37.333 0 80 8.66699 128 26zM303 213.001c-3.33301 26 -14 47.167 -32 63.5s-41 24.5 -69 24.5c-26.667 0 -50.5 -8.16699 -71.5 -24.5s-33.833 -37.5 -38.5 -63.5h211zM165 425.001c0 -12.667 -4.33301 -23.167 -13 -31.5
s-18.667 -12.5 -30 -12.5c-12 0 -22.333 4.16699 -31 12.5s-13 18.833 -13 31.5c0 12 4.33301 22.333 13 31s19 13 31 13c11.333 0 21.333 -4.33301 30 -13s13 -19 13 -31zM313 425.001c0 -12.667 -4.33301 -23.167 -13 -31.5s-18.667 -12.5 -30 -12.5
s-21.5 4.16699 -30.5 12.5s-13.5 18.833 -13.5 31.5c0 12 4.5 22.333 13.5 31s19.167 13 30.5 13s21.333 -4.33301 30 -13s13 -19 13 -31z" />
    <glyph glyph-name="icircumflex" unicode="&#xee;" horiz-adv-x="163" 
d="M113 0h-63v340h63v-340zM178 385h-54l-41 71l-40 -71h-55l78 115h35z" />
    <glyph glyph-name="idieresis" unicode="&#xef;" horiz-adv-x="163" 
d="M113 0h-63v340h63v-340zM52 425c0 -12.667 -4.33301 -23.167 -13 -31.5s-18.667 -12.5 -30 -12.5c-12 0 -22.333 4.16699 -31 12.5s-13 18.833 -13 31.5c0 12 4.33301 22.333 13 31s19 13 31 13c11.333 0 21.333 -4.33301 30 -13s13 -19 13 -31zM200 425
c0 -12.667 -4.33301 -23.167 -13 -31.5s-18.667 -12.5 -30 -12.5s-21.5 4.16699 -30.5 12.5s-13.5 18.833 -13.5 31.5c0 12 4.5 22.333 13.5 31s19.167 13 30.5 13s21.333 -4.33301 30 -13s13 -19 13 -31z" />
    <glyph glyph-name="eth" unicode="&#xf0;" horiz-adv-x="378" 
d="M341 163c0 -54 -15.167 -97.334 -45.5 -130.001s-68.833 -49 -115.5 -49c-42 0 -76.5 15.167 -103.5 45.5s-40.5 67.833 -40.5 112.5c0 44 13.667 81 41 111s61 45 101 45s69.667 -10.667 89 -32c-16 33.333 -44.333 66 -85 98c-0.666992 0.666992 -1.33398 1 -2.00098 1
l-101 -52l-27 44l80 41c-24 13.333 -47.667 23.333 -71 30l6 50c46.667 -9.33301 88.334 -25.666 125.001 -48.999l91 47l22 -46l-68 -35c69.333 -66.667 104 -144 104 -232zM273 141.999c0 28.667 -8.83301 52.835 -26.5 72.502s-39.167 29.5 -64.5 29.5
c-24 0 -44.667 -10.333 -62 -31s-26 -44.334 -26 -71.001s8.66699 -50.334 26 -71.001s38 -31 62 -31c25.333 0 46.833 10 64.5 30s26.5 44 26.5 72z" />
    <glyph glyph-name="ntilde" unicode="&#xf1;" horiz-adv-x="423" 
d="M373 0l-63.001 0.000976562v193c0 69.333 -31.667 104 -95 104c-23.333 0 -46.166 -10.5 -68.499 -31.5s-33.5 -41.833 -33.5 -62.5v-203h-63v250c0 41.333 -2.66699 71.666 -8 90.999h59c4.66699 -11.333 7 -25 7 -41c32 33.333 70.667 50 116 50s81.5 -14 108.5 -42
s40.5 -66.333 40.5 -115v-193zM310.999 456.001c-0.666992 -23.333 -5.83398 -41.8311 -15.501 -55.498s-24.167 -20.5 -43.5 -20.5c-5.33301 0 -11.833 1.5 -19.5 4.5s-15.667 6.33301 -24 10l-23.5 10c-7.33301 3 -13.333 4.5 -18 4.5
c-5.33301 0 -8.66602 -2.5 -9.99902 -7.5s-2 -10.5 -2 -16.5h-44c0 20 4.83301 36.833 14.5 50.5s23.5 20.5 41.5 20.5c6 0 12.833 -1.33301 20.5 -4s15.167 -5.83398 22.5 -9.50098s14.5 -6.83398 21.5 -9.50098s12.833 -4 17.5 -4c12.667 0 19 9 19 27h43z" />
    <glyph glyph-name="ocircumflex" unicode="&#xf4;" horiz-adv-x="412" 
d="M386 172c0 -50.667 -17 -93.334 -51 -128.001s-77 -52 -129 -52s-95 17.333 -129 52s-51 77.334 -51 128.001s17 93.5 51 128.5s77 52.5 129 52.5s95 -17.5 129 -52.5s51 -77.833 51 -128.5zM324 172c0 36 -11 66.167 -33 90.5s-50.333 36.5 -85 36.5
s-63 -12.167 -85 -36.5s-33 -54.5 -33 -90.5s11 -66.167 33 -90.5s50.333 -36.5 85 -36.5s63 12.167 85 36.5s33 54.5 33 90.5zM301 385h-54l-41 71l-40 -71h-55l78 115h35z" />
    <glyph glyph-name="odieresis" unicode="&#xf6;" horiz-adv-x="412" 
d="M386 172c0 -50.667 -17 -93.334 -51 -128.001s-77 -52 -129 -52s-95 17.333 -129 52s-51 77.334 -51 128.001s17 93.5 51 128.5s77 52.5 129 52.5s95 -17.5 129 -52.5s51 -77.833 51 -128.5zM324 172c0 36 -11 66.167 -33 90.5s-50.333 36.5 -85 36.5
s-63 -12.167 -85 -36.5s-33 -54.5 -33 -90.5s11 -66.167 33 -90.5s50.333 -36.5 85 -36.5s63 12.167 85 36.5s33 54.5 33 90.5zM175 425c0 -12.667 -4.33301 -23.167 -13 -31.5s-18.667 -12.5 -30 -12.5c-12 0 -22.333 4.16699 -31 12.5s-13 18.833 -13 31.5
c0 12 4.33301 22.333 13 31s19 13 31 13c11.333 0 21.333 -4.33301 30 -13s13 -19 13 -31zM323 425c0 -12.667 -4.33301 -23.167 -13 -31.5s-18.667 -12.5 -30 -12.5s-21.5 4.16699 -30.5 12.5s-13.5 18.833 -13.5 31.5c0 12 4.5 22.333 13.5 31s19.167 13 30.5 13
s21.333 -4.33301 30 -13s13 -19 13 -31z" />
    <glyph glyph-name="divide" unicode="&#xf7;" horiz-adv-x="417" 
d="M391 157h-365v54h365v-54zM257 56c0 -13.333 -4.66699 -24.666 -14 -33.999s-20.333 -14 -33 -14s-23.667 4.66699 -33 14s-14 20.666 -14 33.999s4.66699 24.666 14 33.999s20.333 14 33 14s23.667 -4.66699 33 -14s14 -20.666 14 -33.999zM257 313
c0 -13.333 -4.66699 -24.666 -14 -33.999s-20.333 -14 -33 -14s-23.667 4.66699 -33 14s-14 20.666 -14 33.999s4.66699 24.666 14 33.999s20.333 14 33 14s23.667 -4.66699 33 -14s14 -20.666 14 -33.999z" />
    <glyph glyph-name="oslash" unicode="&#xf8;" horiz-adv-x="412" 
d="M386 172c0 -50.667 -17.001 -93.333 -51.001 -128s-77 -52 -129 -52c-22 0 -42.333 3 -61 9l-15 -29h-64l29 56c-6.66699 4.66699 -12.667 10 -18 16c-34 34.667 -51 77.334 -51 128.001s17 93.5 51 128.5s77 52.5 129 52.5c18.667 0 36.334 -2.33301 53.001 -7l17 32h64
l-29 -57c8 -6 16 -13 24 -21c34 -34.667 51 -77.334 51 -128.001zM323.999 172.001c0 36 -11 66 -33 90l-7 7l-114 -219c11.333 -3.33301 23.333 -5 36 -5c34.667 0 63 12.167 85 36.5s33 54.5 33 90.5zM232.999 296.001c-8.66699 2 -17.667 3 -27 3
c-34.667 0 -63 -12.167 -85 -36.5s-33 -54.5 -33 -90.5s11 -66.333 33 -91l1 -1z" />
    <glyph glyph-name="ucircumflex" unicode="&#xfb;" horiz-adv-x="418" 
d="M389 4l-61 -12c-6.66699 16 -12.667 35.333 -18 58c-40 -39.333 -79.667 -59 -119 -59c-94 0 -141 54.333 -141 163v186h63v-180c0 -75.333 28.667 -113 86 -113c24 0 47.667 9.16699 71 27.5s35 39.833 35 64.5v201h63v-249c0 -22.667 7 -51.667 21 -87zM304 385h-54
l-41 71l-40 -71h-55l78 115h35z" />
    <glyph glyph-name="udieresis" unicode="&#xfc;" horiz-adv-x="418" 
d="M389 4l-61 -12c-6.66699 16 -12.667 35.333 -18 58c-40 -39.333 -79.667 -59 -119 -59c-94 0 -141 54.333 -141 163v186h63v-180c0 -75.333 28.667 -113 86 -113c24 0 47.667 9.16699 71 27.5s35 39.833 35 64.5v201h63v-249c0 -22.667 7 -51.667 21 -87zM178 425
c0 -12.667 -4.33301 -23.167 -13 -31.5s-18.667 -12.5 -30 -12.5c-12 0 -22.333 4.16699 -31 12.5s-13 18.833 -13 31.5c0 12 4.33301 22.333 13 31s19 13 31 13c11.333 0 21.333 -4.33301 30 -13s13 -19 13 -31zM326 425c0 -12.667 -4.33301 -23.167 -13 -31.5
s-18.667 -12.5 -30 -12.5s-21.5 4.16699 -30.5 12.5s-13.5 18.833 -13.5 31.5c0 12 4.5 22.333 13.5 31s19.167 13 30.5 13s21.333 -4.33301 30 -13s13 -19 13 -31z" />
    <glyph glyph-name="thorn" unicode="&#xfe;" horiz-adv-x="438" 
d="M402 179c0 -56 -16.499 -101.333 -49.499 -136s-75.5 -52 -127.5 -52c-44.667 0 -81.667 13.667 -111 41v-166h-59v610h59v-169c33.333 31.333 73.666 47 120.999 47c48.667 0 88.667 -16.5 120 -49.5s47 -74.833 47 -125.5zM344.001 178c0 36 -10.667 65.667 -32 89
s-49 35 -83 35c-31.333 0 -58.333 -9.83301 -81 -29.5s-34 -45.167 -34 -76.5v-57c0 -25.333 11.5 -47.166 34.5 -65.499s49.5 -27.5 79.5 -27.5c34.667 0 62.667 11.667 84 35s32 55.666 32 96.999z" />
    <glyph glyph-name="ydieresis" unicode="&#xff;" horiz-adv-x="361" 
d="M208 7c-42 -88.667 -100.667 -141.332 -176 -157.999l-16 52c59.333 13.333 103 54.666 131 123.999l-151 315h69l118 -252l112 252h69zM150 425.002c0 -12.667 -4.33301 -23.167 -13 -31.5s-18.667 -12.5 -30 -12.5c-12 0 -22.333 4.16699 -31 12.5s-13 18.833 -13 31.5
c0 12 4.33301 22.333 13 31s19 13 31 13c11.333 0 21.333 -4.33301 30 -13s13 -19 13 -31zM298 425.002c0 -12.667 -4.33301 -23.167 -13 -31.5s-18.667 -12.5 -30 -12.5s-21.5 4.16699 -30.5 12.5s-13.5 18.833 -13.5 31.5c0 12 4.5 22.333 13.5 31s19.167 13 30.5 13
s21.333 -4.33301 30 -13s13 -19 13 -31z" />
    <glyph glyph-name="Abreve" unicode="&#x102;" horiz-adv-x="451" 
d="M452 0h-69l-63 159h-191l-62 -159h-68l200 483h54zM296 213l-70 198l-74 -198h144zM343 627c-6.66699 -38 -20 -66.167 -40 -84.5s-46 -27.5 -78 -27.5s-58 9.16699 -78 27.5s-33.333 46.5 -40 84.5h54c3.33301 -16.667 10.166 -31.5 20.499 -44.5
s24.833 -19.5 43.5 -19.5s33.334 6.5 44.001 19.5s17.667 27.833 21 44.5h53z" />
    <glyph glyph-name="abreve" unicode="&#x103;" horiz-adv-x="367" 
d="M330 3l-58.999 -12l-10 44c-34 -29.333 -72.333 -44 -115 -44c-34 0 -62.333 9.16699 -85 27.5s-34.334 43.166 -35.001 74.499c0 84.667 75.667 128 227 130c-6.66699 50 -34 75 -82 75c-36 0 -75.667 -8.33301 -119 -25l-7 57c45.333 13.333 88.333 20 129 20
c94.667 0 142 -48.667 142 -146v-113c0 -25.333 4.66699 -54.666 14 -87.999zM253.001 108v60c-108.667 -2 -163 -25 -163 -69c0 -35.333 19.667 -53 59 -53c22 0 44 5.33301 66 16c25.333 12.667 38 28 38 46zM301.001 491c-6.66699 -38 -20 -66.167 -40 -84.5
s-46 -27.5 -78 -27.5s-58 9.16699 -78 27.5s-33.333 46.5 -40 84.5h54c3.33301 -16.667 10.166 -31.5 20.499 -44.5s24.833 -19.5 43.5 -19.5s33.334 6.5 44.001 19.5s17.667 27.833 21 44.5h53z" />
    <glyph glyph-name="Cacute" unicode="&#x106;" horiz-adv-x="432" 
d="M410 25c-48.667 -21.333 -106.668 -31.999 -174.001 -31.999c-63.333 0 -114.166 22.5 -152.499 67.5s-57.5 103.833 -57.5 176.5c0 72 18.667 130 56 174c41.333 48 99 72 173 72c56.667 0 108.334 -9.66699 155.001 -29l-20 -50c-40 16.667 -84.333 25 -133 25
c-61.333 0 -106.333 -22.667 -135 -68c-21.333 -33.333 -32 -75.333 -32 -126c0 -46.667 11.667 -87.334 35 -122.001c29.333 -44 70.666 -66 123.999 -66c55.333 0 103.333 10 144 30zM224.999 636.001l57 -18l-84 -97h-48z" />
    <glyph glyph-name="cacute" unicode="&#x107;" horiz-adv-x="347" 
d="M322 21c-32 -20 -71 -30 -117 -30c-54 0 -97.333 16.833 -130 50.5s-49 77.167 -49 130.5c0 54 16.333 97.667 49 131s76 50 130 50c45.333 0 84.333 -10 117 -30l-22 -52c-31.333 19.333 -63.666 29 -96.999 29c-34 0 -61.333 -11.833 -82 -35.5s-31 -54.5 -31 -92.5
c0 -38.667 10.333 -69.667 31 -93s48 -35 82 -35c33.333 0 65.666 9.66699 96.999 29zM182 500l57 -18l-84 -97h-48z" />
    <glyph glyph-name="Ccaron" unicode="&#x10c;" horiz-adv-x="432" 
d="M410 25c-48.667 -21.333 -106.668 -31.999 -174.001 -31.999c-63.333 0 -114.166 22.5 -152.499 67.5s-57.5 103.833 -57.5 176.5c0 72 18.667 130 56 174c41.333 48 99 72 173 72c56.667 0 108.334 -9.66699 155.001 -29l-20 -50c-40 16.667 -84.333 25 -133 25
c-61.333 0 -106.333 -22.667 -135 -68c-21.333 -33.333 -32 -75.333 -32 -126c0 -46.667 11.667 -87.334 35 -122.001c29.333 -44 70.666 -66 123.999 -66c55.333 0 103.333 10 144 30zM232.999 521.001h-35l-77 115h54l41 -71l40 71h55z" />
    <glyph glyph-name="ccaron" unicode="&#x10d;" horiz-adv-x="347" 
d="M322 21c-32 -20 -71 -30 -117 -30c-54 0 -97.333 16.833 -130 50.5s-49 77.167 -49 130.5c0 54 16.333 97.667 49 131s76 50 130 50c45.333 0 84.333 -10 117 -30l-22 -52c-31.333 19.333 -63.666 29 -96.999 29c-34 0 -61.333 -11.833 -82 -35.5s-31 -54.5 -31 -92.5
c0 -38.667 10.333 -69.667 31 -93s48 -35 82 -35c33.333 0 65.666 9.66699 96.999 29zM190 385h-35l-77 115h54l41 -71l40 71h55z" />
    <glyph glyph-name="Dcroat" unicode="&#x110;" horiz-adv-x="459" 
d="M433 248c0 -72 -17.3311 -129.668 -51.998 -173.001c-42.667 -52.667 -108.334 -79 -197.001 -79c-27.333 0 -72 3.33301 -134 10v200h-41v54h41v208c76 8.66699 127.333 13 154 13c81.333 0 141.666 -24.333 180.999 -73c32 -39.333 48 -92.666 48 -159.999z
M369.002 247.999c0 119.333 -56 179 -168 179c-18.667 0 -48 -2 -88 -6v-161h160v-54h-160v-153c22 -2 49.667 -3 83 -3c64.667 0 111.667 23 141 69c21.333 34 32 77 32 129z" />
    <glyph glyph-name="dcroat" unicode="&#x111;" horiz-adv-x="435" 
d="M385 0l-60.001 0.000976562c-2 7.33301 -3 19.666 -3 36.999c-31.333 -30.667 -71.666 -46 -120.999 -46s-90.833 17.5 -124.5 52.5s-50.5 79.5 -50.5 133.5c0 50 16.167 91.833 48.5 125.5s72.833 50.5 121.5 50.5c50 0 90.667 -15.667 122 -47v104h-98v44h98v50h63v-50
h58v-44h-58v-319c0 -28 1.33301 -58.333 4 -91zM317.999 129.001l0.000976562 78c0 25.333 -12.333 47.333 -37 66s-51 28 -79 28c-34.667 0 -62.334 -11.667 -83.001 -35s-31 -53 -31 -89c0 -40.667 10.333 -72.667 31 -96s49.667 -35 87 -35c33.333 0 60.333 7.5 81 22.5
s31 35.167 31 60.5z" />
    <glyph glyph-name="Gbreve" unicode="&#x11e;" horiz-adv-x="454" 
d="M414 11l-32 8.00098c-38.667 -17.333 -87.334 -26 -146.001 -26c-63.333 0 -114.166 22.5 -152.499 67.5s-57.5 103.833 -57.5 176.5c0 72 18.667 130 56 174c41.333 48 99 72 173 72c56.667 0 108.334 -9.66699 155.001 -29l-20 -50c-40 16.667 -84.333 25 -133 25
c-61.333 0 -106.333 -22.667 -135 -68c-21.333 -33.333 -32 -75.333 -32 -126c0 -46.667 11.667 -87.334 35 -122.001c29.333 -44 70.666 -66 123.999 -66c39.333 0 73.333 5.33301 102 16v135h-120v53h183v-240zM345 627.001c-6.66699 -38 -20 -66.167 -40 -84.5
s-46 -27.5 -78 -27.5s-58 9.16699 -78 27.5s-33.333 46.5 -40 84.5h54c3.33301 -16.667 10.166 -31.5 20.499 -44.5s24.833 -19.5 43.5 -19.5s33.334 6.5 44.001 19.5s17.667 27.833 21 44.5h53z" />
    <glyph glyph-name="gbreve" unicode="&#x11f;" horiz-adv-x="332" 
d="M292 -45c0 -31.333 -11.334 -56.6689 -34.001 -76.002s-55.667 -29 -99 -29c-36 0 -73 11.333 -111 34l22 50c35.333 -20.667 66.333 -31 93 -31c20.667 0 37.834 4.83301 51.501 14.5s20.5 21.167 20.5 34.5c0 20 -18.667 37.667 -56 53c-28 11.333 -55 24 -81 38
s-39 32.333 -39 55c0 10.667 3 24.334 9 41.001c-24 26 -36 53.667 -36 83c0 36.667 12.333 66.667 37 90s54.334 35 89.001 35h144v-43h-50c12 -4.66699 21.667 -15.667 29 -33c6 -14 9 -28 9 -42c0 -39.333 -10.833 -70.5 -32.5 -93.5s-52.834 -34.5 -93.501 -34.5
c-14.667 0 -29 2.33301 -43 7c-3.33301 -3.33301 -5 -7.66602 -5 -12.999c0 -10 24 -21.667 72 -35c69.333 -19.333 104 -54.333 104 -105zM236.999 223.997c0 20 -7.16699 37 -21.5 51s-31.5 21 -51.5 21s-37.167 -7 -51.5 -21s-21.5 -31 -21.5 -51
s7.16699 -36.833 21.5 -50.5s31.5 -20.5 51.5 -20.5c24 0 42.167 6.83301 54.5 20.5s18.5 30.5 18.5 50.5zM284.999 490.997c-6.66699 -38 -20 -66.167 -40 -84.5s-46 -27.5 -78 -27.5s-58 9.16699 -78 27.5s-33.333 46.5 -40 84.5h54
c3.33301 -16.667 10.166 -31.5 20.499 -44.5s24.833 -19.5 43.5 -19.5s33.334 6.5 44.001 19.5s17.667 27.833 21 44.5h53z" />
    <glyph glyph-name="Idotaccent" unicode="&#x130;" horiz-adv-x="163" 
d="M113 0h-63v476h63v-476zM126 545c0 -12.667 -4.33301 -23.167 -13 -31.5s-18.667 -12.5 -30 -12.5s-21.5 4.16699 -30.5 12.5s-13.5 18.833 -13.5 31.5c0 12 4.5 22.333 13.5 31s19.167 13 30.5 13s21.333 -4.33301 30 -13s13 -19 13 -31z" />
    <glyph glyph-name="dotlessi" unicode="&#x131;" horiz-adv-x="163" 
d="M113 0h-63v340h63v-340z" />
    <glyph glyph-name="Lslash" unicode="&#x141;" horiz-adv-x="359" 
d="M346 0h-296v149l-29 -7v62l29 7v265h63v-250l225 53v-62l-225 -53v-110h233v-54z" />
    <glyph glyph-name="lslash" unicode="&#x142;" horiz-adv-x="217" 
d="M207 49l-7 -57.001c-99.333 5.33301 -149 66.333 -149 183v61l-43 -12v54l43 12v214h63v-195l93 28v-54l-93 -28v-66c0 -51.333 8 -87.666 24 -108.999c14 -18 37 -28.333 69 -31z" />
    <glyph glyph-name="OE" unicode="&#x152;" horiz-adv-x="723" 
d="M698 0h-283v27c-40 -24.667 -85.333 -37 -136 -37c-74 0 -134.667 23.667 -182 71s-71 106.333 -71 177c0 70 23.667 128.833 71 176.5s108 71.5 182 71.5c50.667 0 96 -12.667 136 -38v28h283v-54h-220v-144h196v-54h-196v-170h220v-54zM415 104v265
c-34 41.333 -79.333 62 -136 62c-50.667 0 -95 -19.5 -133 -58.5s-57 -83.833 -57 -134.5c0 -52 18.833 -97.333 56.5 -136s82.167 -58 133.5 -58c56.667 0 102 20 136 60z" />
    <glyph glyph-name="oe" unicode="&#x153;" horiz-adv-x="689" 
d="M642 73l6.99805 -55.001c-48.667 -18 -95 -27 -139 -27c-67.333 0 -119.666 24.667 -156.999 74c-35.333 -48.667 -84.333 -73 -147 -73c-52 0 -95 17.333 -129 52s-51 77.334 -51 128.001s17 93.5 51 128.5s77 52.5 129 52.5c64.667 0 114 -25.667 148 -77
c40 51.333 90.667 77 152 77c102.667 0 155 -64.333 157 -193h-277c2.66699 -35.333 15.5 -63 38.5 -83s52.833 -30 89.5 -30s79.334 8.66699 128.001 26zM323.998 171.999c0 36 -11 66.167 -33 90.5s-50.333 36.5 -85 36.5s-63 -12.167 -85 -36.5s-33 -54.5 -33 -90.5
s11 -66.167 33 -90.5s50.333 -36.5 85 -36.5s63 12.167 85 36.5s33 54.5 33 90.5zM389.998 212.999h210.998c-3.33301 26.667 -14.166 48 -32.499 64s-41.166 24 -68.499 24c-26.667 0 -50.5 -8.16699 -71.5 -24.5s-33.833 -37.5 -38.5 -63.5z" />
    <glyph glyph-name="Scedilla" unicode="&#x15e;" horiz-adv-x="365" 
d="M339 130c0 -41.333 -16.501 -74.8311 -49.501 -100.498s-74.167 -38.5 -123.5 -38.5c-52.667 0 -101.667 14.333 -147 43l27 57c38 -28.667 79.333 -43 124 -43c32.667 0 58.334 7.16699 77.001 21.5s28 33.5 28 57.5c0 40 -32 70.333 -96 91c-94 30 -141 76 -141 138
c0 37.333 14.833 68.166 44.5 92.499s68.167 36.5 115.5 36.5s88.333 -10.667 123 -32l-27 -50c-33.333 16.667 -65.666 25 -96.999 25c-28.667 0 -51.834 -6.5 -69.501 -19.5s-26.5 -28.833 -26.5 -47.5c0 -36.667 32 -65.334 96 -86.001c52 -16.667 88.667 -36 110 -58
s32 -51 32 -87zM253.999 -89.998c0 -21.333 -7.00098 -38.168 -21.001 -50.501s-33.667 -18.5 -59 -18.5c-9.33301 0 -19.666 1.5 -30.999 4.5s-22 7.5 -32 13.5l14 32c9.33301 -4.66699 18.833 -8.33398 28.5 -11.001s17.167 -4 22.5 -4c21.333 0 32 10 32 30
c0 18.667 -21.333 31.667 -64 39l43 66h43l-28 -39c18 -5.33301 31.167 -13.166 39.5 -23.499s12.5 -23.166 12.5 -38.499z" />
    <glyph glyph-name="scedilla" unicode="&#x15f;" horiz-adv-x="296" 
d="M271 97c0 -31.333 -12.1689 -56.834 -36.502 -76.501s-57.166 -29.5 -98.499 -29.5c-34 0 -70.667 11 -110 33l25 50c27.333 -18.667 56.666 -28 87.999 -28c46.667 0 70 16 70 48c0 24.667 -22.667 44 -68 58c-66.667 20.667 -100 52.334 -100 95.001
c0 28.667 11.167 52.834 33.5 72.501s52.5 29.5 90.5 29.5c38.667 0 71.334 -9.66699 98.001 -29l-23 -46c-23.333 17.333 -49.666 26 -78.999 26c-17.333 0 -31.833 -4.5 -43.5 -13.5s-17.5 -20.5 -17.5 -34.5c0 -17.333 24.333 -34.333 73 -51
c65.333 -22.667 98 -57.334 98 -104.001zM218.998 -90.001c0 -21.333 -7.00098 -38.168 -21.001 -50.501s-33.667 -18.5 -59 -18.5c-9.33301 0 -19.666 1.5 -30.999 4.5s-22 7.5 -32 13.5l14 32c9.33301 -4.66699 18.833 -8.33398 28.5 -11.001s17.167 -4 22.5 -4
c21.333 0 32 10 32 30c0 18.667 -21.333 31.667 -64 39l43 66h43l-28 -39c18 -5.33301 31.167 -13.166 39.5 -23.499s12.5 -23.166 12.5 -38.499z" />
    <glyph glyph-name="Scaron" unicode="&#x160;" horiz-adv-x="365" 
d="M339 130c0 -41.333 -16.501 -74.8311 -49.501 -100.498s-74.167 -38.5 -123.5 -38.5c-52.667 0 -101.667 14.333 -147 43l27 57c38 -28.667 79.333 -43 124 -43c32.667 0 58.334 7.16699 77.001 21.5s28 33.5 28 57.5c0 40 -32 70.333 -96 91c-94 30 -141 76 -141 138
c0 37.333 14.833 68.166 44.5 92.499s68.167 36.5 115.5 36.5s88.333 -10.667 123 -32l-27 -50c-33.333 16.667 -65.666 25 -96.999 25c-28.667 0 -51.834 -6.5 -69.501 -19.5s-26.5 -28.833 -26.5 -47.5c0 -36.667 32 -65.334 96 -86.001c52 -16.667 88.667 -36 110 -58
s32 -51 32 -87zM198.999 521.002h-35l-77 115h54l41 -71l40 71h55z" />
    <glyph glyph-name="scaron" unicode="&#x161;" horiz-adv-x="296" 
d="M271 97c0 -31.333 -12.1689 -56.834 -36.502 -76.501s-57.166 -29.5 -98.499 -29.5c-34 0 -70.667 11 -110 33l25 50c27.333 -18.667 56.666 -28 87.999 -28c46.667 0 70 16 70 48c0 24.667 -22.667 44 -68 58c-66.667 20.667 -100 52.334 -100 95.001
c0 28.667 11.167 52.834 33.5 72.501s52.5 29.5 90.5 29.5c38.667 0 71.334 -9.66699 98.001 -29l-23 -46c-23.333 17.333 -49.666 26 -78.999 26c-17.333 0 -31.833 -4.5 -43.5 -13.5s-17.5 -20.5 -17.5 -34.5c0 -17.333 24.333 -34.333 73 -51
c65.333 -22.667 98 -57.334 98 -104.001zM165.998 384.999h-35l-77 115h54l41 -71l40 71h55z" />
    <glyph glyph-name="Ydieresis" unicode="&#x178;" horiz-adv-x="396" 
d="M230 0h-62v208l-174 268h73l132 -214l131 214h72l-172 -267v-209zM167 561c0 -12.667 -4.33301 -23.167 -13 -31.5s-18.667 -12.5 -30 -12.5c-12 0 -22.333 4.16699 -31 12.5s-13 18.833 -13 31.5c0 12 4.33301 22.333 13 31s19 13 31 13
c11.333 0 21.333 -4.33301 30 -13s13 -19 13 -31zM315 561c0 -12.667 -4.33301 -23.167 -13 -31.5s-18.667 -12.5 -30 -12.5s-21.5 4.16699 -30.5 12.5s-13.5 18.833 -13.5 31.5c0 12 4.5 22.333 13.5 31s19.167 13 30.5 13s21.333 -4.33301 30 -13s13 -19 13 -31z" />
    <glyph glyph-name="florin" unicode="&#x192;" horiz-adv-x="404" 
d="M327 254h-94.001l-35 -161c-23.333 -108 -76.666 -162 -159.999 -162c-26 0 -47.667 8.33301 -65 25l26 44c16 -9.33301 32.333 -14 49 -14c43.333 0 73.333 37.333 90 112l34 156h-54l10 52h56l3 16c13.333 52 33.333 92 60 120s60 42 100 42
c26 0 47.667 -8.33301 65 -25l-26 -44c-16 9.33301 -32.333 14 -49 14c-44 0 -74 -37.333 -90 -112l-3 -11h93z" />
    <glyph glyph-name="Ohorn" unicode="&#x1a0;" horiz-adv-x="518" 
d="M492 237c0 -70 -21.667 -128.667 -65 -176s-99.333 -71 -168 -71s-124.667 23.667 -168 71s-65 106 -65 176s21.667 128.833 65 176.5s99.333 71.5 168 71.5c48 0 90.667 -12.333 128 -37c17.333 22 26 48.333 26 79h54c0 -38.667 -14.333 -75.667 -43 -111
c45.333 -47.333 68 -107 68 -179zM430 238c0 54.667 -15.667 100.5 -47 137.5s-72.666 55.5 -123.999 55.5s-92.666 -18.5 -123.999 -55.5s-47 -82.833 -47 -137.5s15.667 -100.5 47 -137.5s72.666 -55.5 123.999 -55.5s92.666 18.5 123.999 55.5s47 82.833 47 137.5z" />
    <glyph glyph-name="ohorn" unicode="&#x1a1;" horiz-adv-x="412" 
d="M386 172c0 -50.667 -17 -93.334 -51 -128.001s-77 -52 -129 -52s-95 17.333 -129 52s-51 77.334 -51 128.001s17 93.5 51 128.5s77 52.5 129 52.5c46.667 0 86.667 -15 120 -45c13.333 22 20 45.667 20 71h54c0 -36.667 -14 -73 -42 -109c18.667 -29.333 28 -62 28 -98z
M324 172c0 36 -11 66.167 -33 90.5s-50.333 36.5 -85 36.5s-63 -12.167 -85 -36.5s-33 -54.5 -33 -90.5s11 -66.167 33 -90.5s50.333 -36.5 85 -36.5s63 12.167 85 36.5s33 54.5 33 90.5z" />
    <glyph glyph-name="Uhorn" unicode="&#x1af;" horiz-adv-x="482" 
d="M432 203c0 -141.333 -63.667 -212 -191 -212s-191 70.667 -191 212v273h64v-273c0 -105.333 42.333 -158 127 -158s127 52.667 127 158v273h64v-40c14.667 8 26.5 20.833 35.5 38.5s13.5 35.167 13.5 52.5h54c-2 -31.333 -12.833 -61.5 -32.5 -90.5
s-43.167 -48.5 -70.5 -58.5v-175z" />
    <glyph glyph-name="uhorn" unicode="&#x1b0;" horiz-adv-x="414" 
d="M386 4l-61 -11.9971c-6 12.667 -11 28.667 -15 48c-42 -32.667 -82.667 -49 -122 -49c-94 0 -141 54.333 -141 163v186h63v-180c0 -75.333 28.667 -113 86 -113c24 0 47.667 9.16699 71 27.5s35 39.833 35 64.5v201h63v-61c13.333 7.33301 25.166 20.166 35.499 38.499
s15.5 36.166 15.5 53.499h54c0 -26 -9.66699 -54 -29 -84c-21.333 -32.667 -46.666 -54.334 -75.999 -65.001v-131c0 -22.667 7 -51.667 21 -87z" />
    <glyph glyph-name="circumflex" unicode="&#x2c6;" horiz-adv-x="218" 
d="M204 385h-54l-41 71l-40 -71h-55l78 115h35z" />
    <glyph glyph-name="caron" unicode="&#x2c7;" horiz-adv-x="308" 
d="M171 385h-35l-77 115h54l41 -71l40 71h55z" />
    <glyph glyph-name="breve" unicode="&#x2d8;" horiz-adv-x="342" 
d="M289 491c-6.66699 -38 -20 -66.167 -40 -84.5s-46 -27.5 -78 -27.5s-58 9.16699 -78 27.5s-33.333 46.5 -40 84.5h54c3.33301 -16.667 10.166 -31.5 20.499 -44.5s24.833 -19.5 43.5 -19.5s33.334 6.5 44.001 19.5s17.667 27.833 21 44.5h53z" />
    <glyph glyph-name="dotaccent" unicode="&#x2d9;" horiz-adv-x="193" 
d="M140 545c0 -12.667 -4.33301 -23.167 -13 -31.5s-18.667 -12.5 -30 -12.5s-21.5 4.16699 -30.5 12.5s-13.5 18.833 -13.5 31.5c0 12 4.5 22.333 13.5 31s19.167 13 30.5 13s21.333 -4.33301 30 -13s13 -19 13 -31z" />
    <glyph glyph-name="ring" unicode="&#x2da;" horiz-adv-x="266" 
d="M213 464c0 -22 -7.83301 -40.833 -23.5 -56.5s-34.5 -23.5 -56.5 -23.5s-40.833 7.83301 -56.5 23.5s-23.5 34.5 -23.5 56.5s7.83301 40.833 23.5 56.5s34.5 23.5 56.5 23.5s40.833 -7.83301 56.5 -23.5s23.5 -34.5 23.5 -56.5zM171 464c0 10.667 -3.66699 19.667 -11 27
s-16.333 11 -27 11s-19.834 -3.66699 -27.501 -11s-11.5 -16.333 -11.5 -27s3.83301 -19.834 11.5 -27.501s16.834 -11.5 27.501 -11.5s19.667 3.83301 27 11.5s11 16.834 11 27.501z" />
    <glyph glyph-name="ogonek" unicode="&#x2db;" horiz-adv-x="255" 
d="M202 -136c-27.333 -11.333 -51.667 -17 -73 -17c-26 0 -45.167 7.66699 -57.5 23s-18.5 33.333 -18.5 54c0 12.667 1.83301 27 5.5 43s8.16699 33.333 13.5 52h59c-14 -35.333 -21 -62.333 -21 -81c0 -21.333 9.33301 -33 28 -35c7.33301 0 16.833 1.83301 28.5 5.5
s23.5 8.16699 35.5 13.5v-58z" />
    <glyph glyph-name="tilde" unicode="&#x2dc;" horiz-adv-x="259" 
d="M228 443c-0.666992 -23.333 -5.83398 -41.8311 -15.501 -55.498s-24.167 -20.5 -43.5 -20.5c-5.33301 0 -11.833 1.5 -19.5 4.5s-15.667 6.33301 -24 10l-23.5 10c-7.33301 3 -13.333 4.5 -18 4.5c-5.33301 0 -8.66602 -2.5 -9.99902 -7.5s-2 -10.5 -2 -16.5h-44
c0 20 4.83301 36.833 14.5 50.5s23.5 20.5 41.5 20.5c6 0 12.833 -1.33301 20.5 -4s15.167 -5.83398 22.5 -9.50098s14.5 -6.83398 21.5 -9.50098s12.833 -4 17.5 -4c12.667 0 19 9 19 27h43z" />
    <glyph glyph-name="hungarumlaut" unicode="&#x2dd;" horiz-adv-x="359" 
d="M221 320h-42l63 171h64zM95 320h-42l63 171h63z" />
    <glyph glyph-name="gravecomb" unicode="&#x300;" 
d="M-53 385h-48l-84 97l57 18z" />
    <glyph glyph-name="acutecomb" unicode="&#x301;" 
d="M-132 500l57 -18l-84 -97h-48z" />
    <glyph glyph-name="tildecomb" unicode="&#x303;" 
d="M-30 456c-0.666992 -23.333 -5.83398 -41.8311 -15.501 -55.498s-24.167 -20.5 -43.5 -20.5c-5.33301 0 -11.833 1.5 -19.5 4.5s-15.667 6.33301 -24 10l-23.5 10c-7.33301 3 -13.333 4.5 -18 4.5c-5.33301 0 -8.66602 -2.5 -9.99902 -7.5s-2 -10.5 -2 -16.5h-44
c0 20 4.83301 36.833 14.5 50.5s23.5 20.5 41.5 20.5c6 0 12.833 -1.33301 20.5 -4s15.167 -5.83398 22.5 -9.50098s14.5 -6.83398 21.5 -9.50098s12.833 -4 17.5 -4c12.667 0 19 9 19 27h43z" />
    <glyph glyph-name="hookabovecomb" unicode="&#x309;" 
d="M-42 477c0 -11.333 -2.99805 -21.502 -8.99805 -30.502s-12.5 -17.5 -19.5 -25.5s-13.333 -15.833 -19 -23.5s-8.5 -15.834 -8.5 -24.501h-45c0 10.667 3 20.334 9 29.001s12.667 16.834 20 24.501s14 15.167 20 22.5s9 15 9 23c0 11.333 -2.5 18.833 -7.5 22.5
s-11.833 5.5 -20.5 5.5c-11.333 0 -21.333 -3.66699 -30 -11s-14.334 -13 -17.001 -17l-26 22c5.33301 10.667 14.333 20.834 27 30.501s29.667 14.5 51 14.5c19.333 0 35.166 -5 47.499 -15s18.5 -25.667 18.5 -47z" />
    <glyph glyph-name="dotbelowcomb" unicode="&#x323;" horiz-adv-x="200" 
d="M147 -96c0 -13.333 -4.66699 -24.666 -14 -33.999s-20.333 -14 -33 -14s-23.667 4.66699 -33 14s-14 20.666 -14 33.999s4.66699 24.666 14 33.999s20.333 14 33 14s23.667 -4.66699 33 -14s14 -20.666 14 -33.999z" />
    <glyph glyph-name="uni0E00" unicode="&#xe00;" 
 />
    <glyph glyph-name="uni0E01" unicode="&#xe01;" horiz-adv-x="391" 
d="M340 0h-61.999v265c0 27.333 -8.33301 49 -25 65s-38.667 24 -66 24c-40 0 -70.333 -17 -91 -51c31.333 -6 53.666 -21 66.999 -45c-34 -20 -51 -44 -51 -72v-186h-62v190c0 28 13.667 50 41 66c-16.667 11.333 -37 15.333 -61 12c1.33301 41.333 17.333 75.333 48 102
c28 24.667 63.667 37 107 37c48 0 85.833 -12.833 113.5 -38.5s41.5 -60.5 41.5 -104.5v-264z" />
    <glyph glyph-name="uni0E02" unicode="&#xe02;" horiz-adv-x="415" 
d="M364 94c0 -32.667 -10.1689 -57.832 -30.502 -75.499s-47.166 -26.5 -80.499 -26.5s-60.166 8.83301 -80.499 26.5s-30.5 42.834 -30.5 75.501v65c0 19.333 8.83301 45.166 26.5 77.499s26.5 57.833 26.5 76.5c0 15.333 -5.33301 28 -16 38s-23 15 -37 15
c-21.333 0 -35.666 -4.33301 -42.999 -13c20 -0.666992 36.167 -7 48.5 -19s18.5 -27.333 18.5 -46c0 -20 -7 -36.833 -21 -50.5s-30.667 -20.5 -50 -20.5c-22.667 0 -40.834 8.16699 -54.501 24.5s-20.5 36.166 -20.5 59.499c0 30.667 12.167 56 36.5 76s52.5 30 84.5 30
c33.333 0 60.5 -8 81.5 -24s31.5 -39.333 31.5 -70c0 -20 -8.33301 -48 -25 -84s-25 -61.333 -25 -76v-73c0 -11.333 5.16699 -20 15.5 -26s21.5 -9 33.5 -9c12.667 0 24 3.16699 34 9.5s15 14.833 15 25.5v319h62v-305zM125.998 286.002c0 8.66699 -3 16 -9 22
s-13.333 9 -22 9s-16 -3 -22 -9s-9 -13.333 -9 -22s3 -16 9 -22s13.333 -9 22 -9s16 3 22 9s9 13.333 9 22z" />
    <glyph glyph-name="uni0E03" unicode="&#xe03;" horiz-adv-x="431" 
d="M380 94c0 -32.667 -10.166 -57.835 -30.499 -75.502s-47.166 -26.5 -80.499 -26.5s-60.166 8.83301 -80.499 26.5s-30.5 42.834 -30.5 75.501v45c0 21.333 11.167 49.5 33.5 84.5s33.5 62.5 33.5 82.5c-3.33301 25.333 -14 43 -32 53l-37 -38l-44 40
c-6.66699 -4 -13.834 -11.167 -21.501 -21.5s-11.834 -19.5 -12.501 -27.5c10 2 17 3 21 3c20 0 37 -7 51 -21s21 -31 21 -51s-6.83301 -37 -20.5 -51s-30.834 -21 -51.501 -21c-23.333 0 -42.333 9.66699 -57 29s-22 40.333 -22 63c0 35.333 9.5 67.5 28.5 96.5
s43.5 44.833 73.5 47.5l33 -34l31 35c60 -13.333 90 -48.666 90 -105.999c0 -20.667 -9.33301 -47 -28 -79s-28 -57.333 -28 -76v-67c0 -11.333 5.16699 -20 15.5 -26s21.5 -9 33.5 -9c12.667 0 24 3.16699 34 9.5s15 14.833 15 25.5v319h62v-305zM130.001 242.999
c0 8.66699 -3 16 -9 22s-13.333 9 -22 9s-16 -3 -22 -9s-9 -13.333 -9 -22s3 -16 9 -22s13.333 -9 22 -9s16 3 22 9s9 13.333 9 22z" />
    <glyph glyph-name="uni0E04" unicode="&#xe04;" horiz-adv-x="403" 
d="M352 0l-62.001 -0.000976562v273c0 24 -10.333 44 -31 60c-19.333 14 -41.666 21 -66.999 21c-30 0 -54 -10.167 -72 -30.5s-27 -43.833 -27 -70.5c0 -7.33301 1.5 -19.5 4.5 -36.5s4.5 -31.833 4.5 -44.5v-28c0 0.666992 1.16699 7.83398 3.5 21.501
s3.83301 24.167 4.5 31.5c6.66699 28 17 51.333 31 70c17.333 24 37.333 36 60 36c18 0 33.667 -6.33301 47 -19s20 -28 20 -46c0 -17.333 -6.66699 -32.5 -20 -45.5s-29 -19.5 -47 -19.5c-16.667 0 -31.667 6 -45 18c-20 -60.667 -30 -124.334 -30 -191.001h-62v64
c0 31.333 -5.5 65.5 -16.5 102.5s-16.5 66.167 -16.5 87.5c0 46 16.667 83.333 50 112c31.333 27.333 70 41 116 41c42 0 77.333 -11 106 -33c32.667 -25.333 49 -59.666 49 -102.999v-271zM230.999 237.999c0 8.66699 -3 16 -9 22s-13.333 9 -22 9s-15.834 -3 -21.501 -9
s-8.5 -13.333 -8.5 -22s2.83301 -15.834 8.5 -21.501s12.834 -8.5 21.501 -8.5s16 2.83301 22 8.5s9 12.834 9 21.501z" />
    <glyph glyph-name="uni0E05" unicode="&#xe05;" horiz-adv-x="403" 
d="M352 0l-62.002 -0.00195312v273c0 40.667 -9 67.334 -27 80.001l-62 -39l-69 39c-26 -18 -39 -48.333 -39 -91c0 -12.667 1.83301 -30.5 5.5 -53.5s5.83398 -45.5 6.50098 -67.5v-9c0 1.33301 0.833008 6.5 2.5 15.5s3.16699 18.5 4.5 28.5
c4.66699 28 13.667 51.333 27 70c16.667 24 37.334 36 62.001 36c18 0 33.5 -6.33301 46.5 -19s19.5 -28 19.5 -46s-6.5 -33.333 -19.5 -46s-28.5 -19 -46.5 -19c-16.667 0 -31.667 5.66699 -45 17c-20 -59.333 -30 -115.666 -30 -168.999h-62v64
c0 32.667 -5.5 68.5 -16.5 107.5s-16.5 68.167 -16.5 87.5c0 35.333 8.83301 66.5 26.5 93.5s43.167 46.167 76.5 57.5l67 -39l71 39c53.333 -22 80 -62.333 80 -121v-289zM230.998 215.998c0 8.66699 -3 16 -9 22s-13.333 9 -22 9s-15.834 -3 -21.501 -9
s-8.5 -13.333 -8.5 -22s2.83301 -15.834 8.5 -21.501s12.834 -8.5 21.501 -8.5s16 2.83301 22 8.5s9 12.834 9 21.501z" />
    <glyph glyph-name="uni0E06" unicode="&#xe06;" horiz-adv-x="453" 
d="M402 0h-57.0029c-39.333 40.667 -76 66.667 -110 78v-10c0 -21.333 -8 -39.333 -24 -54s-35 -22 -57 -22s-40.833 7.83301 -56.5 23.5s-23.5 34.834 -23.5 57.501c0 22 7.83301 40.833 23.5 56.5s34.5 23.5 56.5 23.5c4.66699 0 8.66699 -0.333008 12 -1
c0 18.667 10.333 44 31 76c19.333 30 29 55 29 75c0 26 -10.667 45 -32 57l-35 -38l-43 39c-7.33301 -3.33301 -14.666 -10.333 -21.999 -21s-11.666 -20.334 -12.999 -29.001c5.33301 2 12.333 3 21 3c20 0 37.167 -7 51.5 -21s21.5 -30.667 21.5 -50
c0 -20 -7.16699 -37 -21.5 -51s-31.5 -21 -51.5 -21c-23.333 0 -42.166 8.66699 -56.499 26s-21.5 40.333 -21.5 69c0 34.667 9.66699 66.5 29 95.5s43 44.167 71 45.5l33 -34l32 35c60 -14.667 90 -48 90 -100c0 -23.333 -9.33301 -51.5 -28 -84.5s-28 -58.5 -28 -76.5v-15
c39.333 -14 78.333 -36 117 -66v333h62v-399zM186.997 72c0 9.33301 -3.16699 17.166 -9.5 23.499s-14.166 9.5 -23.499 9.5c-8.66699 0 -16.334 -3.16699 -23.001 -9.5s-10 -14.166 -10 -23.499c0 -8.66699 3.33301 -16.334 10 -23.001s14.334 -10 23.001 -10
c9.33301 0 17.166 3.33301 23.499 10s9.5 14.334 9.5 23.001zM133.997 243c0 8.66699 -3 16 -9 22s-13.333 9 -22 9s-16 -3 -22 -9s-9 -13.333 -9 -22s3 -16 9 -22s13.333 -9 22 -9s16 3 22 9s9 13.333 9 22z" />
    <glyph glyph-name="uni0E07" unicode="&#xe07;" horiz-adv-x="318" 
d="M267 0h-60.999l-187 211l37 43l149 -168v172c-2 -0.666992 -8.33301 -1 -19 -1c-20.667 0 -38.167 6.83301 -52.5 20.5s-21.5 31.167 -21.5 52.5s7.33301 39.5 22 54.5s32 22.5 52 22.5c23.333 0 42.666 -7.5 57.999 -22.5s23 -34.5 23 -58.5v-326zM220.001 332
c0 9.33301 -3.33301 17.333 -10 24s-14.667 10 -24 10s-17.333 -3.33301 -24 -10s-10 -14.667 -10 -24s3.33301 -17.333 10 -24s14.667 -10 24 -10s17.333 3.33301 24 10s10 14.667 10 24z" />
    <glyph glyph-name="uni0E08" unicode="&#xe08;" horiz-adv-x="390" 
d="M339 70c0 -24.667 -8.00293 -43.833 -24.0029 -57.5s-36.667 -20.5 -62 -20.5c-48.667 0 -77 21.667 -85 65l-15 79c-7.33301 -2.66699 -15.666 -4 -24.999 -4c-19.333 0 -36 7 -50 21s-21 30.667 -21 50s7 36 21 50s30.667 21 50 21c17.333 0 32.666 -5.5 45.999 -16.5
s21.666 -24.833 24.999 -41.5l28 -153c2 -12 10.333 -18 25 -18c16.667 0 25 6.66699 25 20v225c0 22 -10.333 38.667 -31 50c-17.333 9.33301 -38.666 14 -63.999 14c-57.333 0 -91.666 -16.333 -102.999 -49h-60c8.66699 67.333 61.334 101.333 158.001 102
c44.667 0 81.334 -8.33301 110.001 -25c34.667 -21.333 52 -53.333 52 -96v-216zM158.997 203.001c0 8.66699 -3 16 -9 22s-13.333 9 -22 9s-16 -3 -22 -9s-9 -13.333 -9 -22s3 -16 9 -22s13.333 -9 22 -9s16 3 22 9s9 13.333 9 22z" />
    <glyph glyph-name="uni0E09" unicode="&#xe09;" horiz-adv-x="405" 
d="M371 68c0 -21.333 -7.33203 -39.333 -21.999 -54s-32.667 -22 -54 -22c-19.333 0 -36.333 6.5 -51 19.5s-22.667 29.167 -24 48.5c-23.333 -8.66699 -46.666 -28.667 -69.999 -60h-57v78c0 18.667 3.33301 31.334 10 38.001c-6.66699 0 -11.334 0.333008 -14.001 1
c-36.667 8 -55 30.333 -55 67c0 19.333 6.83301 35.666 20.5 48.999s30.167 20 49.5 20s35.666 -6.66699 48.999 -20s20 -29.666 20 -48.999c0 -9.33301 -3 -21.833 -9 -37.5s-9 -28.5 -9 -38.5v-42c10.667 10.667 30.667 24.167 60 40.5s50 30.833 62 43.5
c10 13.333 15 29 15 47v92c0 22 -10.667 39 -32 51c-18 9.33301 -40 14 -66 14c-28 0 -51.667 -5.33301 -71 -16c-23.333 -12.667 -36 -31.334 -38 -56.001h-60c10 83.333 66 125 168 125c44 0 80.333 -8.66699 109 -26c34.667 -21.333 52 -53.333 52 -96v-95
c0 -25.333 -7.33301 -44 -22 -56c26 -14.667 39 -36.667 39 -66zM133.001 184c0 8.66699 -2.83301 15.834 -8.5 21.501s-12.834 8.5 -21.501 8.5s-15.834 -2.83301 -21.501 -8.5s-8.5 -12.834 -8.5 -21.501s2.83301 -15.834 8.5 -21.501s12.834 -8.5 21.501 -8.5
s15.834 2.83301 21.501 8.5s8.5 12.834 8.5 21.501zM327.001 67c0 8.66699 -3 16 -9 22s-13.333 9 -22 9s-16 -3 -22 -9s-9 -13.333 -9 -22s3 -16 9 -22s13.333 -9 22 -9s16 3 22 9s9 13.333 9 22z" />
    <glyph glyph-name="uni0E0A" unicode="&#xe0a;" horiz-adv-x="415" 
d="M364 94c0 -32.667 -10.168 -57.832 -30.501 -75.499s-47.166 -26.5 -80.499 -26.5s-60.166 8.83301 -80.499 26.5s-30.5 42.834 -30.5 75.501v65c0 19.333 8.83301 45.166 26.5 77.499s26.5 57.833 26.5 76.5c0 15.333 -5.33301 28 -16 38s-23 15 -37 15
c-21.333 0 -35.666 -4.33301 -42.999 -13c20 -0.666992 36.167 -7 48.5 -19s18.5 -27.333 18.5 -46c0 -20 -7 -36.833 -21 -50.5s-30.667 -20.5 -50 -20.5c-22.667 0 -40.834 8.16699 -54.501 24.5s-20.5 36.166 -20.5 59.499c0 30.667 12.167 56 36.5 76s52.5 30 84.5 30
c33.333 0 60.5 -8 81.5 -24s31.5 -39.333 31.5 -70c0 -20 -8.33301 -48 -25 -84s-25 -61.333 -25 -76v-73c0 -11.333 5.16699 -20 15.5 -26s21.5 -9 33.5 -9c12.667 0 24 3.16699 34 9.5s15 14.833 15 25.5v165c0 24.667 -9.66699 40 -29 46c2.66699 12 3 23.667 1 35
c34 12.667 51 44.667 51 96h62c-4.66699 -51.333 -22.334 -89 -53.001 -113c20 -16 30 -37 30 -63v-152zM125.999 286.002c0 8.66699 -3 16 -9 22s-13.333 9 -22 9s-16 -3 -22 -9s-9 -13.333 -9 -22s3 -16 9 -22s13.333 -9 22 -9s16 3 22 9s9 13.333 9 22z" />
    <glyph glyph-name="uni0E0B" unicode="&#xe0b;" horiz-adv-x="431" 
d="M380 94c0 -32.667 -10.165 -57.835 -30.498 -75.502s-47.166 -26.5 -80.499 -26.5s-60.166 8.83301 -80.499 26.5s-30.5 42.834 -30.5 75.501v45c0 21.333 11.167 49.5 33.5 84.5s33.5 62.5 33.5 82.5c-3.33301 25.333 -14 43 -32 53l-37 -38l-44 40
c-6.66699 -4 -13.834 -11.167 -21.501 -21.5s-11.834 -19.5 -12.501 -27.5c10 2 17 3 21 3c20 0 37 -7 51 -21s21 -31 21 -51s-6.83301 -37 -20.5 -51s-30.834 -21 -51.501 -21c-23.333 0 -42.333 9.66699 -57 29s-22 40.333 -22 63c0 35.333 9.5 67.5 28.5 96.5
s43.5 44.833 73.5 47.5l33 -34l31 35c60 -13.333 90 -48.666 90 -105.999c0 -20.667 -9.33301 -47 -28 -79s-28 -57.333 -28 -76v-67c0 -11.333 5.16699 -20 15.5 -26s21.5 -9 33.5 -9c12.667 0 24 3.16699 34 9.5s15 14.833 15 25.5v165c0 24.667 -9.66699 40 -29 46
c2.66699 12 3 23.667 1 35c34 12.667 51 44.667 51 96h62c-4.66699 -51.333 -22.334 -89 -53.001 -113c20 -16 30 -37 30 -63v-152zM130.002 242.999c0 8.66699 -3 16 -9 22s-13.333 9 -22 9s-16 -3 -22 -9s-9 -13.333 -9 -22s3 -16 9 -22s13.333 -9 22 -9s16 3 22 9
s9 13.333 9 22z" />
    <glyph glyph-name="uni0E0C" unicode="&#xe0c;" horiz-adv-x="565" 
d="M514 0h-55c-15.333 32.667 -42.666 58.667 -81.999 78c1.33301 -9.33301 2 -15 2 -17c0 -21.333 -7.5 -38.166 -22.5 -50.499s-32.167 -18.5 -51.5 -18.5c-20.667 0 -38.5 7.33301 -53.5 22s-22.5 32.667 -22.5 54c0 30.667 13.333 53.667 40 69v128
c0 26 -8.16699 47.167 -24.5 63.5s-36.5 24.5 -60.5 24.5c-40.667 0 -69.667 -16.667 -87 -50c30.667 -6 52.667 -21 66 -45c-34 -18.667 -51 -42.667 -51 -72v-43c21.333 0 39.333 -7.33301 54 -22s22 -32.667 22 -54c0 -20.667 -7.33301 -38.334 -22 -53.001
s-32.667 -22 -54 -22c-20.667 0 -38.334 7.33301 -53.001 22s-22 32.334 -22 53.001c0 17.333 4.33301 31.666 13 42.999v80c0 28 13.667 50 41 66c-16.667 11.333 -37 15.333 -61 12c1.33301 41.333 16.666 75.333 45.999 102c27.333 24.667 62.333 37 105 37
c44.667 0 80.834 -12.667 108.501 -38s41.5 -60.333 41.5 -105v-122c52.667 -16.667 93 -40 121 -70v327h62v-399zM145 67c0 9.33301 -3.33301 17.333 -10 24s-14.667 10 -24 10s-17.333 -3.33301 -24 -10s-10 -14.667 -10 -24s3.33301 -17.333 10 -24s14.667 -10 24 -10
s17.333 3.33301 24 10s10 14.667 10 24zM339 67c0 9.33301 -3.33301 17.333 -10 24s-14.667 10 -24 10s-17.333 -3.33301 -24 -10s-10 -14.667 -10 -24s3.33301 -17.333 10 -24s14.667 -10 24 -10s17.333 3.33301 24 10s10 14.667 10 24z" />
    <glyph glyph-name="uni0E0D" unicode="&#xe0d;" horiz-adv-x="565" 
d="M520 -40c0 -49.333 -10.998 -88.666 -32.998 -117.999c-24.667 -32.667 -62.334 -49 -113.001 -49c-32.667 0 -60.667 8.33301 -84 25c-26.667 19.333 -40 44.666 -40 75.999c0 20 6.83301 36.833 20.5 50.5s30.5 20.5 50.5 20.5c19.333 0 35.5 -7 48.5 -21
s19.5 -31 19.5 -51c0 -26 -10.333 -42.667 -31 -50c9.33301 -1.33301 15.666 -2 18.999 -2c56 0 85.667 39.667 89 119h54zM514.002 94c0 -33.333 -13 -59.333 -39 -78c-22.667 -16 -51 -24 -85 -24c-34.667 0 -62.667 8 -84 24c-24.667 18 -37 44 -37 78v171
c0 26 -8.16699 47.167 -24.5 63.5s-36.5 24.5 -60.5 24.5c-40.667 0 -69.667 -16.667 -87 -50c28.667 -5.33301 50.667 -20.333 66 -45c-34 -18.667 -51 -42.667 -51 -72v-47c4.66699 2.66699 11 4 19 4c20.667 0 38.167 -7.16699 52.5 -21.5s21.5 -32.166 21.5 -53.499
s-7.33301 -39.333 -22 -54s-32.667 -22 -54 -22c-22 0 -40.667 7.66699 -56 23s-23 34.666 -23 57.999v117c0 28 13.667 50 41 66c-16.667 11.333 -37 15.333 -61 12c1.33301 41.333 16.666 75.333 45.999 102c27.333 24.667 62.333 37 105 37
c44.667 0 80.834 -12.667 108.501 -38s41.5 -60.333 41.5 -105v-179c0 -14 6 -24.167 18 -30.5s26 -9.5 42 -9.5c15.333 0 29.333 3.16699 42 9.5s19 16.5 19 30.5v314h62v-305zM352.002 -105c0 8.66699 -3 16 -9 22s-13.667 9 -23 9s-16.833 -3 -22.5 -9
s-8.5 -13.333 -8.5 -22s2.83301 -16.167 8.5 -22.5s13.167 -9.5 22.5 -9.5s17 3.16699 23 9.5s9 13.833 9 22.5zM165.002 67c0 9.33301 -3.33301 17.333 -10 24s-14.667 10 -24 10s-17.333 -3.33301 -24 -10s-10 -14.667 -10 -24s3.33301 -17.333 10 -24s14.667 -10 24 -10
s17.333 3.33301 24 10s10 14.667 10 24z" />
    <glyph glyph-name="uni0E0E" unicode="&#xe0e;" horiz-adv-x="425" 
d="M374 -230l-62.998 -0.000976562c-8.66699 35.333 -39.334 63.333 -92.001 84c-4.66699 -58.667 -30.667 -88 -78 -88c-22 0 -40.833 7 -56.5 21s-23.5 31.667 -23.5 53c0 47.333 31.333 71 94 71c9.33301 0 17 -0.333008 23 -1c3.33301 12.667 7 22 11 28
c6.66699 10.667 17 20.334 31 29.001l41 -22c-20.667 -11.333 -33 -26.333 -37 -45c38 -13.333 67.333 -30 88 -50v415c0 26.667 -8.83301 48.167 -26.5 64.5s-39.834 24.5 -66.501 24.5c-40.667 0 -70.334 -17 -89.001 -51c32.667 -6.66699 55 -21.667 67 -45
c-18 -10 -30 -18.333 -36 -25c-8.66699 -10.667 -13 -25 -13 -43c0 -14.667 1.66699 -35.834 5 -63.501s5 -47.167 5 -58.5c0 -21.333 -7.16699 -39.333 -21.5 -54s-31.833 -22 -52.5 -22c-21.333 0 -39.333 7.33301 -54 22s-22 32.667 -22 54
c0 20.667 7.33301 38.334 22 53.001s32 22 52 22c8 0 13 -1 15 -3l-6 62c0 23.333 11.333 41.333 34 54c-18 11.333 -38.333 15.333 -61 12c0.666992 41.333 16 75.333 46 102c28.667 24.667 64.667 37 108 37c46.667 0 84.334 -13 113.001 -39s43 -60.667 43 -104v-494z
M173.002 -135.001c-6 2 -13.999 2.99902 -23.999 2.99902c-27.333 0 -41.333 -8 -42 -24c-0.666992 -21.333 10 -32 32 -32c12.667 1.33301 21.667 6.33301 27 15s7.66602 21.334 6.99902 38.001zM118.003 67.998c0 9.33301 -3.33301 17.333 -10 24s-14.667 10 -24 10
s-17.333 -3.33301 -24 -10s-10 -14.667 -10 -24s3.33301 -17.333 10 -24s14.667 -10 24 -10s17.333 3.33301 24 10s10 14.667 10 24z" />
    <glyph glyph-name="uni0E0F" unicode="&#xe0f;" horiz-adv-x="425" 
d="M126 -137c-6.66699 3.33301 -16 5 -28 5c-21.333 0 -32 -9 -32 -27c0 -16.667 8.66699 -25 26 -25c22.667 0 34 15.667 34 47zM118 68c0 9.33301 -3.33301 17.333 -10 24s-14.667 10 -24 10s-17.333 -3.33301 -24 -10s-10 -14.667 -10 -24s3.33301 -17.333 10 -24
s14.667 -10 24 -10s17.333 3.33301 24 10s10 14.667 10 24zM374 -231l-55.9971 0.00195312l-52 68l-49 -68l-46 63c-2.66699 -18.667 -11.334 -34.5 -26.001 -47.5s-30.667 -19.5 -48 -19.5c-22 0 -40.333 7.16699 -55 21.5s-22 32.166 -22 53.499c0 49.333 28.333 74 85 74
c12.667 0 21.667 -1 27 -3c8 24.667 25.333 44 52 58l35 -42c-24.667 -6.66699 -38.334 -20.334 -41.001 -41.001l39 -48l48 61l47 -54v420c0 26.667 -8.83301 48.167 -26.5 64.5s-39.834 24.5 -66.501 24.5c-40.667 0 -70.334 -17 -89.001 -51
c32.667 -6.66699 55 -21.667 67 -45c-18 -10 -30 -18.333 -36 -25c-8.66699 -10.667 -13 -25 -13 -43c0 -14.667 1.66699 -35.834 5 -63.501s5 -47.167 5 -58.5c0 -21.333 -7.16699 -39.333 -21.5 -54s-31.833 -22 -52.5 -22c-21.333 0 -39.333 7.33301 -54 22
s-22 32.667 -22 54c0 20.667 7.33301 38.334 22 53.001s32 22 52 22c8 0 13 -1 15 -3l-6 62c0 23.333 11.333 41.333 34 54c-18 11.333 -38.333 15.333 -61 12c0.666992 41.333 16 75.333 46 102c28.667 24.667 64.667 37 108 37c46.667 0 84.334 -13 113.001 -39
s43 -60.667 43 -104v-495z" />
    <glyph glyph-name="uni0E10" unicode="&#xe10;" horiz-adv-x="372" 
d="M86 -137c-8.66699 3.33301 -16.333 5 -23 5c-25.333 0 -38 -8.66699 -38 -26c0 -16.667 8.66699 -25 26 -25c23.333 0 35 15.333 35 46zM314.001 -163c0 -44.667 -22.332 -67 -66.999 -67h-82l-44 60c-1.33301 -16 -8.33301 -29.667 -21 -41s-27 -17 -43 -17
c-22 0 -39.333 6.66699 -52 20s-19 30.333 -19 51s7 37.5 21 50.5s32.667 19.5 56 19.5c13.333 0 22.666 -1.66699 27.999 -5c2 22 14 39 36 51l31 -18c-20 -9.33301 -30 -28 -30 -56l49 -66h52c21.333 0 32 5.66699 32 17v13h-12c-18 0 -33.167 5.5 -45.5 16.5
s-18.5 24.5 -18.5 40.5c0 15.333 6.16699 28.666 18.5 39.999s27.5 17 45.5 17c17.333 0 32.5 -5.66699 45.5 -17s19.5 -24.666 19.5 -39.999v-69zM314.002 83c0 -60.667 -31.6689 -91.001 -95.002 -91.001c-61.333 0 -92 28.667 -92 86v33c-5.33301 -1.33301 -10 -2 -14 -2
c-19.333 0 -35.333 6.5 -48 19.5s-19 28.833 -19 47.5c0 19.333 7.16699 35.333 21.5 48s30.5 19 48.5 19c20 0 37.167 -6.16699 51.5 -18.5s21.5 -28.166 21.5 -47.499v-97c0 -24 10.333 -36 31 -36c21.333 0 32 12 32 36v144c0 14 -31.333 28 -94 42
c-54 11.333 -95.333 17 -124 17c4 42.667 19.667 75 47 97c22.667 18 50.667 27 84 27c12.667 0 31.5 -3.33301 56.5 -10s44.5 -10 58.5 -10c10 0 16.333 8 19 24l51 -13c-12 -46 -36.333 -69 -73 -69c-12.667 0 -31.167 4.16699 -55.5 12.5s-43.166 12.5 -56.499 12.5
c-10 0 -21.5 -2.66699 -34.5 -8s-21.5 -11.666 -25.5 -18.999c76.667 -12.667 133.334 -27.334 170.001 -44.001c26 -12 39 -29.667 39 -53v-147zM142 175.999c0 8 -2.83301 14.833 -8.5 20.5s-12.5 8.5 -20.5 8.5s-14.833 -2.83301 -20.5 -8.5s-8.5 -12.5 -8.5 -20.5
s2.83301 -14.833 8.5 -20.5s12.5 -8.5 20.5 -8.5s14.833 2.83301 20.5 8.5s8.5 12.5 8.5 20.5zM270 -94.001c0 6 -2.16699 11 -6.5 15s-9.83301 6 -16.5 6s-12 -2 -16 -6s-6 -9 -6 -15s2 -11.167 6 -15.5s9.33301 -6.5 16 -6.5s12.167 2.16699 16.5 6.5s6.5 9.5 6.5 15.5z
" />
    <glyph glyph-name="uni0E11" unicode="&#xe11;" horiz-adv-x="492" 
d="M441 0l-62 -0.00488281v321c0 18 -5.33301 27 -16 27c-9.33301 0 -15.666 -4.66699 -18.999 -14l-117 -334h-70v107c0 26.667 8.83301 61.834 26.5 105.501s26.5 77.167 26.5 100.5c0 22.667 -6.66699 38.334 -20 47.001l-37 -39l-42 40
c-6.66699 -3.33301 -13.834 -10.333 -21.501 -21s-12.167 -20 -13.5 -28c4.66699 2 12 3 22 3c20 0 37 -7.16699 51 -21.5s21 -31.166 21 -50.499c0 -20 -7 -37 -21 -51s-31 -21 -51 -21c-22 0 -40.5 9.33301 -55.5 28s-22.5 41.334 -22.5 68.001c0 34.667 9.33301 66 28 94
s42.667 43.333 72 46l33 -34l32 35c49.333 -10.667 74 -42.667 74 -96c0 -21.333 -7.5 -52.166 -22.5 -92.499s-22.5 -73.5 -22.5 -99.5c-5.33301 -32 -8 -51 -8 -57l99 284c14 40 36 60 66 60c46.667 0 70 -28 70 -84v-323zM130 242.995c0 8.66699 -3 16 -9 22
s-13.333 9 -22 9s-16 -3 -22 -9s-9 -13.333 -9 -22s3 -16 9 -22s13.333 -9 22 -9s16 3 22 9s9 13.333 9 22z" />
    <glyph glyph-name="uni0E12" unicode="&#xe12;" horiz-adv-x="551" 
d="M500 0l-58 0.00292969c-16.667 28.667 -37.667 50.334 -63 65.001c0 -20.667 -6.83301 -38 -20.5 -52s-32.167 -21 -55.5 -21c-21.333 0 -39 7.5 -53 22.5s-21 33.5 -21 55.5c0 15.333 5.16699 29.666 15.5 42.999s22.833 22 37.5 26v123c0 45.333 -10 75.666 -30 90.999
l-61 -44l-56 44c-28.667 -14.667 -43 -47.334 -43 -98.001c0 -10 4.83301 -31.833 14.5 -65.5s14.5 -58.834 14.5 -75.501c0 -10 -1.66699 -19.333 -5 -28c14.667 33.333 36.667 59 66 77c-18 1.33301 -32.167 8.33301 -42.5 21s-15.5 27 -15.5 43
c0 18 6.33301 33.167 19 45.5s28 18.5 46 18.5c17.333 0 32.5 -6.33301 45.5 -19s19.5 -27.667 19.5 -45c0 -32.667 -19.833 -71.167 -59.5 -115.5s-59.5 -81.5 -59.5 -111.5h-65c0.666992 18.667 1 40 1 64c0 38.667 -4 68 -12 88c-18.667 46.667 -28 80.667 -28 102
c0 37.333 9.16699 70 27.5 98s44.833 46.667 79.5 56l53 -45l49 45c69.333 -10 104 -58 104 -144v-133c13.333 -4 30.5 -12 51.5 -24s35.167 -22.333 42.5 -31v323h62v-399zM220 227.003c0 8.66699 -3 16 -9 22s-13.333 9 -22 9s-16 -3 -22 -9s-9 -13.333 -9 -22
s3 -16 9 -22s13.333 -9 22 -9s16 3 22 9s9 13.333 9 22zM335 67.0029c0 9.33301 -3 17 -9 23s-13.667 9 -23 9s-16.833 -3 -22.5 -9s-8.5 -13.667 -8.5 -23s2.83301 -16.833 8.5 -22.5s13.167 -8.5 22.5 -8.5s17 2.83301 23 8.5s9 13.167 9 22.5z" />
    <glyph glyph-name="uni0E13" unicode="&#xe13;" horiz-adv-x="576" 
d="M543 68c0 -20.667 -6.66699 -38.5 -20 -53.5s-31 -22.5 -53 -22.5c-19.333 0 -36.333 6.16699 -51 18.5s-23.667 27.833 -27 46.5c-18 -12 -38 -31 -60 -57h-63v265c0 26 -8.16699 47.167 -24.5 63.5s-36.5 24.5 -60.5 24.5c-40.667 0 -69.667 -16.667 -87 -50
c26 -2 48 -17 66 -45c-34 -18.667 -51 -42.667 -51 -72v-47c4.66699 2.66699 11 4 19 4c20.667 0 38.167 -7.16699 52.5 -21.5s21.5 -32.166 21.5 -53.499s-7.33301 -39.333 -22 -54s-32.667 -22 -54 -22c-22 0 -40.667 7.66699 -56 23s-23 34.666 -23 57.999v117
c0 28 13.667 50 41 66c-16.667 11.333 -37 15.333 -61 12c1.33301 41.333 16.666 75.333 45.999 102c27.333 24.667 62.333 37 105 37c44.667 0 80.834 -12.5 108.501 -37.5s41.5 -59.833 41.5 -104.5v-202c10 12 28 28.333 54 49c36 28 57.333 45 64 51
c9.33301 12 14 27.667 14 47v189h62v-210c0 -26 -7 -44.333 -21 -55c26 -14.667 39 -36.667 39 -66zM502 69c0 9.33301 -3.33301 17.333 -10 24s-14.667 10 -24 10s-17.333 -3.33301 -24 -10s-10 -14.667 -10 -24s3.33301 -17.333 10 -24s14.667 -10 24 -10
s17.333 3.33301 24 10s10 14.667 10 24zM165 67c0 9.33301 -3.33301 17.333 -10 24s-14.667 10 -24 10s-17.333 -3.33301 -24 -10s-10 -14.667 -10 -24s3.33301 -17.333 10 -24s14.667 -10 24 -10s17.333 3.33301 24 10s10 14.667 10 24z" />
    <glyph glyph-name="uni0E14" unicode="&#xe14;" horiz-adv-x="405" 
d="M354 0l-61.999 0.00195312v268c0 25.333 -9.5 46 -28.5 62s-41.5 24 -67.5 24c-28 0 -52.333 -9.5 -73 -28.5s-31 -41.833 -31 -68.5c0 -16.667 5.5 -40.334 16.5 -71.001s16.5 -53.667 16.5 -69c0 -4.66699 -0.666992 -11 -2 -19c19.333 31.333 41 57.666 65 78.999
c-18.667 1.33301 -33.334 8.66602 -44.001 21.999c-10 11.333 -15 25.333 -15 42c0 17.333 6.5 32.5 19.5 45.5s28.5 19.5 46.5 19.5s33.333 -6.5 46 -19.5s19 -28.167 19 -45.5c0 -30 -14.667 -63.333 -44 -100c-40.667 -50 -63.667 -80 -69 -90
c-10 -17.333 -15 -34.333 -15 -51h-63c0.666992 24.667 1 47.334 1 68.001c0 36 -4 63.667 -12 83l-18 53.5c-6 18.333 -9 34.5 -9 48.5c0 45.333 15.833 82.333 47.5 111s70.167 43 115.5 43c46 0 83.667 -12 113 -36c31.333 -26 47 -61.667 47 -107v-264zM225.001 241.002
c0 8.66699 -2.83301 15.834 -8.5 21.501s-12.834 8.5 -21.501 8.5s-15.834 -2.83301 -21.501 -8.5s-8.5 -12.834 -8.5 -21.501s2.83301 -15.834 8.5 -21.501s12.834 -8.5 21.501 -8.5s15.834 2.83301 21.501 8.5s8.5 12.834 8.5 21.501z" />
    <glyph glyph-name="uni0E15" unicode="&#xe15;" horiz-adv-x="405" 
d="M354 0l-62 -0.00390625v262c0 42.667 -11.667 73.334 -35 92.001l-62 -45l-61 45c-28 -14 -42 -45.667 -42 -95c0 -16 4.83301 -39.667 14.5 -71s14.5 -54.666 14.5 -69.999c0 -10.667 -2 -21.667 -6 -33c4 9.33301 13.667 22.333 29 39s30 29.334 44 38.001
c-18 1.33301 -32.167 8.33301 -42.5 21s-15.5 26.667 -15.5 42c0 18 6.16699 33.333 18.5 46s27.5 19 45.5 19s33.333 -6.33301 46 -19s19 -28 19 -46c0 -28.667 -15 -59 -45 -91c-40 -42.667 -63.333 -70.334 -70 -83.001c-10 -19.333 -15 -36.333 -15 -51h-63
c1.33301 25.333 2 51 2 77c0 26.667 -4 51.334 -12 74.001c-16.667 48 -25 84 -25 108c0 36.667 9.16699 68.334 27.5 95.001s44.5 44.667 78.5 54l57 -43l53 43c71.333 -10.667 107 -58.667 107 -144v-264zM224 225.996c0 8.66699 -2.83301 15.834 -8.5 21.501
s-12.834 8.5 -21.501 8.5s-15.834 -2.83301 -21.501 -8.5s-8.5 -12.834 -8.5 -21.501s2.83301 -15.834 8.5 -21.501s12.834 -8.5 21.501 -8.5s15.834 2.83301 21.501 8.5s8.5 12.834 8.5 21.501z" />
    <glyph glyph-name="uni0E16" unicode="&#xe16;" horiz-adv-x="391" 
d="M340 0h-61.999v265c0 27.333 -8.33301 49 -25 65s-38.667 24 -66 24c-40 0 -70.333 -17 -91 -51c31.333 -6 53.666 -21 66.999 -45c-34 -20 -51 -44 -51 -72v-47c4.66699 2.66699 11 4 19 4c20.667 0 38.167 -7.16699 52.5 -21.5s21.5 -32.166 21.5 -53.499
s-7.33301 -39.333 -22 -54s-32.667 -22 -54 -22c-22 0 -40.667 7.66699 -56 23s-23 34.666 -23 57.999v117c0 28 13.667 50 41 66c-16.667 11.333 -37 15.333 -61 12c1.33301 41.333 17.333 75.333 48 102c28 24.667 63.667 37 107 37c48 0 85.833 -12.833 113.5 -38.5
s41.5 -60.5 41.5 -104.5v-264zM165.001 67c0 9.33301 -3.33301 17.333 -10 24s-14.667 10 -24 10s-17.333 -3.33301 -24 -10s-10 -14.667 -10 -24s3.33301 -17.333 10 -24s14.667 -10 24 -10s17.333 3.33301 24 10s10 14.667 10 24z" />
    <glyph glyph-name="uni0E17" unicode="&#xe17;" horiz-adv-x="438" 
d="M387 0l-61.998 -0.00195312v323c0 20.667 -5 31 -15 31c-8.66699 0 -14.667 -5 -18 -15l-119 -339h-70v257c-6.66699 -1.33301 -12.334 -2 -17.001 -2c-21.333 0 -39.333 7.5 -54 22.5s-22 33.167 -22 54.5c0 20.667 7.33301 38.334 22 53.001s32.667 22 54 22
c22.667 0 41.5 -7.66699 56.5 -23s22.5 -34.666 22.5 -57.999v-149c0 -22.667 -4 -58 -12 -106c7.33301 29.333 16.666 62 27.999 98l56 178c12.667 40.667 37.667 60.667 75 60c50 -0.666992 75 -29 75 -85v-322zM120.002 330.998c0 9.33301 -3.33301 17.333 -10 24
s-14.667 10 -24 10s-17.333 -3.33301 -24 -10s-10 -14.667 -10 -24s3.33301 -17.333 10 -24s14.667 -10 24 -10s17.333 3.33301 24 10s10 14.667 10 24z" />
    <glyph glyph-name="uni0E18" unicode="&#xe18;" horiz-adv-x="358" 
d="M300 85c0 -62 -41.667 -92.999 -125 -92.999c-82.667 0 -124 31 -124 93v131h62v-135c0 -24 21 -36 63 -36c41.333 0 62 12 62 36v132c0 15.333 -26 28.833 -78 40.5s-97 21.167 -135 28.5c4 42.667 14.333 73.667 31 93c19.333 21.333 49.666 32 90.999 32
c14.667 0 35.334 -3.16699 62.001 -9.5s45.334 -9.5 56.001 -9.5c11.333 0 17.666 7.33301 18.999 22l49 -13c-7.33301 -22 -16 -37.833 -26 -47.5s-25.333 -14.5 -46 -14.5c-12 0 -30.333 3.33301 -55 10s-43.667 10 -57 10c-36 0 -55.333 -11 -58 -33
c65.333 -14 116.5 -27.333 153.5 -40s55.5 -34.334 55.5 -65.001v-132z" />
    <glyph glyph-name="uni0E19" unicode="&#xe19;" horiz-adv-x="433" 
d="M382 189c0 -26.667 -6.99902 -45.0029 -20.999 -55.0029c26 -14.667 39 -37 39 -67c0 -21.333 -7.33301 -39.166 -22 -53.499s-32.334 -21.5 -53.001 -21.5c-19.333 0 -36 6.16699 -50 18.5s-22.333 27.833 -25 46.5c-21.333 -10.667 -36.666 -18.667 -45.999 -24
c-16 -10 -28.667 -21 -38 -33h-63v257c-6.66699 -1.33301 -12.334 -2 -17.001 -2c-21.333 0 -39.333 7.5 -54 22.5s-22 33.167 -22 54.5c0 20.667 7.33301 38.334 22 53.001s32.667 22 54 22c22.667 0 41.5 -7.66699 56.5 -23s22.5 -34.666 22.5 -57.999v-254
c10.667 8 34.667 19.667 72 35c33.333 14 56.333 28 69 42c9.33301 10 14 26 14 48v202h62v-210zM120.001 330.997c0 9.33301 -3.33301 17.333 -10 24s-14.667 10 -24 10s-17.333 -3.33301 -24 -10s-10 -14.667 -10 -24s3.33301 -17.333 10 -24s14.667 -10 24 -10
s17.333 3.33301 24 10s10 14.667 10 24zM358.001 66.9971c0 9.33301 -3.33301 17.333 -10 24s-14.667 10 -24 10s-17.333 -3.33301 -24 -10s-10 -14.667 -10 -24s3.33301 -17.333 10 -24s14.667 -10 24 -10s17.333 3.33301 24 10s10 14.667 10 24z" />
    <glyph glyph-name="uni0E1A" unicode="&#xe1a;" horiz-adv-x="445" 
d="M394 90c0 -65.333 -48.332 -98.002 -144.999 -98.002c-97.333 0 -146 32.667 -146 98v167c-6.66699 -1.33301 -12.334 -2 -17.001 -2c-21.333 0 -39.333 7.5 -54 22.5s-22 33.167 -22 54.5c0 20.667 7.33301 38.334 22 53.001s32.667 22 54 22
c22.667 0 41.5 -7.66699 56.5 -23s22.5 -34.666 22.5 -57.999v-237c0 -13.333 9 -24 27 -32s37 -12 57 -12c19.333 0 38 4 56 12s27 18.667 27 32v310h62v-309zM120.001 330.998c0 9.33301 -3.33301 17.333 -10 24s-14.667 10 -24 10s-17.333 -3.33301 -24 -10
s-10 -14.667 -10 -24s3.33301 -17.333 10 -24s14.667 -10 24 -10s17.333 3.33301 24 10s10 14.667 10 24z" />
    <glyph glyph-name="uni0E1B" unicode="&#xe1b;" horiz-adv-x="445" 
d="M394 90c0 -65.333 -48.332 -98.002 -144.999 -98.002c-97.333 0 -146 32.667 -146 98v167c-6.66699 -1.33301 -12.334 -2 -17.001 -2c-21.333 0 -39.333 7.5 -54 22.5s-22 33.167 -22 54.5c0 20.667 7.33301 38.334 22 53.001s32.667 22 54 22
c22.667 0 41.5 -7.66699 56.5 -23s22.5 -34.666 22.5 -57.999v-237c0 -13.333 9 -24 27 -32s37 -12 57 -12c19.333 0 38 4 56 12s27 18.667 27 32v470h62v-469zM120.001 330.998c0 9.33301 -3.33301 17.333 -10 24s-14.667 10 -24 10s-17.333 -3.33301 -24 -10
s-10 -14.667 -10 -24s3.33301 -17.333 10 -24s14.667 -10 24 -10s17.333 3.33301 24 10s10 14.667 10 24z" />
    <glyph glyph-name="uni0E1C" unicode="&#xe1c;" horiz-adv-x="414" 
d="M363 0l-62 0.000976562l-100 160l-100 -160h-61v326c0 23.333 7.83301 42.666 23.5 57.999s34.5 23 56.5 23c21.333 0 39.333 -7.5 54 -22.5s22 -32.833 22 -53.5c0 -21.333 -7.33301 -39.333 -22 -54s-32.667 -22 -54 -22c-9.33301 0 -15.333 0.333008 -18 1v-171
l79 123h40l80 -124v315h62v-399zM154 331.001c0 9.33301 -3.33301 17.333 -10 24s-14.667 10 -24 10s-17.333 -3.33301 -24 -10s-10 -14.667 -10 -24s3.33301 -17.333 10 -24s14.667 -10 24 -10s17.333 3.33301 24 10s10 14.667 10 24z" />
    <glyph glyph-name="uni0E1D" unicode="&#xe1d;" horiz-adv-x="414" 
d="M363 0l-62 0.000976562l-100 160l-100 -160h-61v326c0 23.333 7.83301 42.666 23.5 57.999s34.5 23 56.5 23c21.333 0 39.333 -7.5 54 -22.5s22 -32.833 22 -53.5c0 -21.333 -7.33301 -39.333 -22 -54s-32.667 -22 -54 -22c-9.33301 0 -15.333 0.333008 -18 1v-171
l79 123h40l80 -124v475h62v-559zM154 331.001c0 9.33301 -3.33301 17.333 -10 24s-14.667 10 -24 10s-17.333 -3.33301 -24 -10s-10 -14.667 -10 -24s3.33301 -17.333 10 -24s14.667 -10 24 -10s17.333 3.33301 24 10s10 14.667 10 24z" />
    <glyph glyph-name="uni0E1E" unicode="&#xe1e;" horiz-adv-x="482" 
d="M431 0l-69.998 -0.00292969l-94 310l-97 -310h-67v257c-6.66699 -1.33301 -12.334 -2 -17.001 -2c-21.333 0 -39.333 7.5 -54 22.5s-22 33.167 -22 54.5c0 20.667 7.33301 38.334 22 53.001s32.667 22 54 22c22.667 0 41.5 -7.66699 56.5 -23s22.5 -34.666 22.5 -57.999
v-149c0 -17.333 -4 -52.666 -12 -105.999c14.667 60.667 23 93.334 25 98.001l70 213h38l70 -213c1.33301 -4 9.66602 -36.667 24.999 -98c-8 53.333 -12 88.666 -12 105.999v222h62v-399zM120.002 330.997c0 9.33301 -3.33301 17.333 -10 24s-14.667 10 -24 10
s-17.333 -3.33301 -24 -10s-10 -14.667 -10 -24s3.33301 -17.333 10 -24s14.667 -10 24 -10s17.333 3.33301 24 10s10 14.667 10 24z" />
    <glyph glyph-name="uni0E1F" unicode="&#xe1f;" horiz-adv-x="482" 
d="M431 0l-69.998 -0.00292969l-94 310l-97 -310h-67v257c-6.66699 -1.33301 -12.334 -2 -17.001 -2c-21.333 0 -39.333 7.5 -54 22.5s-22 33.167 -22 54.5c0 20.667 7.33301 38.334 22 53.001s32.667 22 54 22c22.667 0 41.5 -7.66699 56.5 -23s22.5 -34.666 22.5 -57.999
v-149c0 -17.333 -4 -52.666 -12 -105.999c14.667 60.667 23 93.334 25 98.001l70 213h38l70 -213c1.33301 -4 9.66602 -36.667 24.999 -98c-8 53.333 -12 88.666 -12 105.999v382h62v-559zM120.002 330.997c0 9.33301 -3.33301 17.333 -10 24s-14.667 10 -24 10
s-17.333 -3.33301 -24 -10s-10 -14.667 -10 -24s3.33301 -17.333 10 -24s14.667 -10 24 -10s17.333 3.33301 24 10s10 14.667 10 24z" />
    <glyph glyph-name="uni0E20" unicode="&#xe20;" horiz-adv-x="425" 
d="M118 68c0 9.33301 -3.33301 17.333 -10 24s-14.667 10 -24 10s-17.333 -3.33301 -24 -10s-10 -14.667 -10 -24s3.33301 -17.333 10 -24s14.667 -10 24 -10s17.333 3.33301 24 10s10 14.667 10 24zM374 0h-61.999v265c0 26.667 -8.83301 48.167 -26.5 64.5
s-39.834 24.5 -66.501 24.5c-40.667 0 -70.334 -17 -89.001 -51c32.667 -6.66699 55 -21.667 67 -45c-18 -10 -30 -18.333 -36 -25c-8.66699 -10.667 -13 -25 -13 -43c0 -14.667 1.66699 -35.834 5 -63.501s5 -47.167 5 -58.5c0 -21.333 -7.16699 -39.333 -21.5 -54
s-31.833 -22 -52.5 -22c-21.333 0 -39.333 7.33301 -54 22s-22 32.667 -22 54c0 20.667 7.33301 38.334 22 53.001s32 22 52 22c8 0 13 -1 15 -3l-6 62c0 23.333 11.333 41.333 34 54c-18 11.333 -38.333 15.333 -61 12c0.666992 41.333 16 75.333 46 102
c28.667 24.667 64.667 37 108 37c46.667 0 84.334 -13 113.001 -39s43 -60.667 43 -104v-264z" />
    <glyph glyph-name="uni0E21" unicode="&#xe21;" horiz-adv-x="417" 
d="M366 0l-62 -0.00195312c-38.667 34.667 -77.667 59 -117 73v-5c0 -21.333 -8.16699 -39.333 -24.5 -54s-34.833 -22 -55.5 -22c-22 0 -41 8 -57 24s-24 35 -24 57s8 40.833 24 56.5s35 23.5 57 23.5h7v104c-6.66699 -1.33301 -12.334 -2 -17.001 -2
c-21.333 0 -39.333 7.5 -54 22.5s-22 33.167 -22 54.5c0 20.667 7.33301 38.334 22 53.001s32.667 22 54 22c22.667 0 41.5 -7.66699 56.5 -23s22.5 -34.666 22.5 -57.999v-190c52.667 -18 95.334 -41.667 128.001 -71v334h62v-399zM131 330.998
c0 9.33301 -3.33301 17.333 -10 24s-14.667 10 -24 10s-17.333 -3.33301 -24 -10s-10 -14.667 -10 -24s3.33301 -17.333 10 -24s14.667 -10 24 -10s17.333 3.33301 24 10s10 14.667 10 24zM141 72.998c0 9.33301 -3.33301 17.333 -10 24s-14.667 10 -24 10
s-17.333 -3.33301 -24 -10s-10 -14.667 -10 -24s3.33301 -17.333 10 -24s14.667 -10 24 -10s17.333 3.33301 24 10s10 14.667 10 24z" />
    <glyph glyph-name="uni0E22" unicode="&#xe22;" horiz-adv-x="386" 
d="M335 101c0 -72.667 -49.3311 -109 -147.998 -109c-98 0 -147 36.333 -147 109v46c0 32 13.667 54.667 41 68c-30.667 20.667 -46 51 -46 91c0 29.333 8.16699 53.5 24.5 72.5s38.833 28.5 67.5 28.5c20 0 37 -6.16699 51 -18.5s21 -28.5 21 -48.5
c0 -18 -6.33301 -33.667 -19 -47s-29.334 -20 -50.001 -20c-10.667 0 -20 1.66699 -28 5c5.33301 -25.333 17.333 -38 36 -38h71v-49h-71c-10.667 0 -19.334 -4.66699 -26.001 -14s-10 -20 -10 -32v-46c0 -36 28.333 -54 85 -54c57.333 0 86 18 86 54v300h62v-298z
M162.002 339c0 9.33301 -3 17 -9 23s-13.667 9 -23 9s-17 -3 -23 -9s-9 -13.667 -9 -23s3 -17 9 -23s13.667 -9 23 -9s17 3 23 9s9 13.667 9 23z" />
    <glyph glyph-name="uni0E23" unicode="&#xe23;" horiz-adv-x="329" 
d="M271 67c0 -21.333 -7.5 -39.167 -22.5 -53.5s-33.167 -21.5 -54.5 -21.5s-39.5 7.33301 -54.5 22s-22.5 32.667 -22.5 54s7.5 39.333 22.5 54s33.167 22 54.5 22c8 0 13 -0.333008 15 -1v86c0 10.667 -22.167 21.167 -66.5 31.5s-84.5 18.5 -120.5 24.5
c1.33301 36.667 11 66.167 29 88.5s44 33.5 78 33.5c14 0 33.167 -3.16699 57.5 -9.5s41.833 -9.5 52.5 -9.5c11.333 0 17.666 7.33301 18.999 22l49 -13c-12 -40.667 -34 -61 -66 -61c-12 0 -29.167 3 -51.5 9s-39.166 9 -50.499 9c-29.333 0 -46 -11.333 -50 -34
c51.333 -10.667 94.5 -22 129.5 -34s52.5 -32.667 52.5 -62v-157zM228 67.999c0 9.33301 -3.33301 17.333 -10 24s-14.667 10 -24 10s-17.333 -3.33301 -24 -10s-10 -14.667 -10 -24s3.33301 -17.333 10 -24s14.667 -10 24 -10s17.333 3.33301 24 10s10 14.667 10 24z" />
    <glyph glyph-name="uni0E24" unicode="&#xe24;" horiz-adv-x="391" 
d="M340 -140h-61.999v405c0 27.333 -8.33301 49 -25 65s-38.667 24 -66 24c-40 0 -70.333 -17 -91 -51c31.333 -6 53.666 -21 66.999 -45c-34 -20 -51 -44 -51 -72v-47c4.66699 2.66699 11 4 19 4c20.667 0 38.167 -7.16699 52.5 -21.5s21.5 -32.166 21.5 -53.499
s-7.33301 -39.333 -22 -54s-32.667 -22 -54 -22c-22 0 -40.667 7.66699 -56 23s-23 34.666 -23 57.999v117c0 28 13.667 50 41 66c-16.667 11.333 -37 15.333 -61 12c1.33301 41.333 17.333 75.333 48 102c28 24.667 63.667 37 107 37c48 0 85.833 -12.833 113.5 -38.5
s41.5 -60.5 41.5 -104.5v-404zM165.001 67c0 9.33301 -3.33301 17.333 -10 24s-14.667 10 -24 10s-17.333 -3.33301 -24 -10s-10 -14.667 -10 -24s3.33301 -17.333 10 -24s14.667 -10 24 -10s17.333 3.33301 24 10s10 14.667 10 24z" />
    </font>
</defs>
</svg>
